G04 MADE WITH FRITZING*
G04 WWW.FRITZING.ORG*
G04 DOUBLE SIDED*
G04 HOLES PLATED*
G04 CONTOUR ON CENTER OF CONTOUR VECTOR*
%ASAXBY*%
%FSLAX23Y23*%
%MOIN*%
%OFA0B0*%
%SFA1.0B1.0*%
%ADD10C,0.010000*%
%ADD11C,0.005000*%
%ADD12C,0.008000*%
%ADD13R,0.001000X0.001000*%
%LNSILK1*%
G90*
G70*
G54D10*
X1925Y459D02*
X1521Y459D01*
D02*
X1521Y459D02*
X1521Y19D01*
D02*
X1521Y19D02*
X1925Y19D01*
D02*
X1925Y19D02*
X1925Y459D01*
G54D11*
D02*
X1521Y99D02*
X1925Y99D01*
G54D10*
D02*
X1021Y459D02*
X1021Y19D01*
D02*
X1021Y19D02*
X1425Y19D01*
D02*
X1425Y19D02*
X1425Y459D01*
G54D11*
D02*
X1021Y99D02*
X1425Y99D01*
G54D10*
D02*
X521Y459D02*
X521Y19D01*
D02*
X521Y19D02*
X925Y19D01*
G54D11*
D02*
X521Y99D02*
X925Y99D01*
G54D10*
D02*
X425Y459D02*
X21Y459D01*
D02*
X21Y459D02*
X21Y19D01*
D02*
X21Y19D02*
X425Y19D01*
D02*
X425Y19D02*
X425Y459D01*
G54D11*
D02*
X21Y99D02*
X425Y99D01*
G54D10*
D02*
X1167Y678D02*
X1026Y537D01*
D02*
X1026Y537D02*
X979Y583D01*
D02*
X979Y583D02*
X1121Y725D01*
D02*
X1121Y725D02*
X1167Y678D01*
D02*
X1367Y678D02*
X1226Y537D01*
D02*
X1226Y537D02*
X1179Y583D01*
D02*
X1179Y583D02*
X1321Y725D01*
D02*
X1321Y725D02*
X1367Y678D01*
G54D12*
D02*
X296Y879D02*
X296Y479D01*
D02*
X296Y479D02*
X146Y479D01*
D02*
X146Y479D02*
X121Y479D01*
D02*
X121Y479D02*
X121Y879D01*
D02*
X121Y879D02*
X146Y879D01*
D02*
X146Y879D02*
X296Y879D01*
D02*
X146Y879D02*
X146Y479D01*
G54D13*
X0Y1141D02*
X2077Y1141D01*
X0Y1140D02*
X2077Y1140D01*
X0Y1139D02*
X2077Y1139D01*
X0Y1138D02*
X2077Y1138D01*
X0Y1137D02*
X2077Y1137D01*
X0Y1136D02*
X2077Y1136D01*
X0Y1135D02*
X2077Y1135D01*
X0Y1134D02*
X2077Y1134D01*
X0Y1133D02*
X7Y1133D01*
X2070Y1133D02*
X2077Y1133D01*
X0Y1132D02*
X7Y1132D01*
X2070Y1132D02*
X2077Y1132D01*
X0Y1131D02*
X7Y1131D01*
X2070Y1131D02*
X2077Y1131D01*
X0Y1130D02*
X7Y1130D01*
X2070Y1130D02*
X2077Y1130D01*
X0Y1129D02*
X7Y1129D01*
X2070Y1129D02*
X2077Y1129D01*
X0Y1128D02*
X7Y1128D01*
X2070Y1128D02*
X2077Y1128D01*
X0Y1127D02*
X7Y1127D01*
X2070Y1127D02*
X2077Y1127D01*
X0Y1126D02*
X7Y1126D01*
X2070Y1126D02*
X2077Y1126D01*
X0Y1125D02*
X7Y1125D01*
X2070Y1125D02*
X2077Y1125D01*
X0Y1124D02*
X7Y1124D01*
X2070Y1124D02*
X2077Y1124D01*
X0Y1123D02*
X7Y1123D01*
X2070Y1123D02*
X2077Y1123D01*
X0Y1122D02*
X7Y1122D01*
X2070Y1122D02*
X2077Y1122D01*
X0Y1121D02*
X7Y1121D01*
X2070Y1121D02*
X2077Y1121D01*
X0Y1120D02*
X7Y1120D01*
X2070Y1120D02*
X2077Y1120D01*
X0Y1119D02*
X7Y1119D01*
X2070Y1119D02*
X2077Y1119D01*
X0Y1118D02*
X7Y1118D01*
X2070Y1118D02*
X2077Y1118D01*
X0Y1117D02*
X7Y1117D01*
X2070Y1117D02*
X2077Y1117D01*
X0Y1116D02*
X7Y1116D01*
X2070Y1116D02*
X2077Y1116D01*
X0Y1115D02*
X7Y1115D01*
X2070Y1115D02*
X2077Y1115D01*
X0Y1114D02*
X7Y1114D01*
X2070Y1114D02*
X2077Y1114D01*
X0Y1113D02*
X7Y1113D01*
X2070Y1113D02*
X2077Y1113D01*
X0Y1112D02*
X7Y1112D01*
X2070Y1112D02*
X2077Y1112D01*
X0Y1111D02*
X7Y1111D01*
X2070Y1111D02*
X2077Y1111D01*
X0Y1110D02*
X7Y1110D01*
X2070Y1110D02*
X2077Y1110D01*
X0Y1109D02*
X7Y1109D01*
X2070Y1109D02*
X2077Y1109D01*
X0Y1108D02*
X7Y1108D01*
X2070Y1108D02*
X2077Y1108D01*
X0Y1107D02*
X7Y1107D01*
X2070Y1107D02*
X2077Y1107D01*
X0Y1106D02*
X7Y1106D01*
X2070Y1106D02*
X2077Y1106D01*
X0Y1105D02*
X7Y1105D01*
X2070Y1105D02*
X2077Y1105D01*
X0Y1104D02*
X7Y1104D01*
X2070Y1104D02*
X2077Y1104D01*
X0Y1103D02*
X7Y1103D01*
X2070Y1103D02*
X2077Y1103D01*
X0Y1102D02*
X7Y1102D01*
X2070Y1102D02*
X2077Y1102D01*
X0Y1101D02*
X7Y1101D01*
X2070Y1101D02*
X2077Y1101D01*
X0Y1100D02*
X7Y1100D01*
X2070Y1100D02*
X2077Y1100D01*
X0Y1099D02*
X7Y1099D01*
X2070Y1099D02*
X2077Y1099D01*
X0Y1098D02*
X7Y1098D01*
X2070Y1098D02*
X2077Y1098D01*
X0Y1097D02*
X7Y1097D01*
X2070Y1097D02*
X2077Y1097D01*
X0Y1096D02*
X7Y1096D01*
X2070Y1096D02*
X2077Y1096D01*
X0Y1095D02*
X7Y1095D01*
X2070Y1095D02*
X2077Y1095D01*
X0Y1094D02*
X7Y1094D01*
X2070Y1094D02*
X2077Y1094D01*
X0Y1093D02*
X7Y1093D01*
X2070Y1093D02*
X2077Y1093D01*
X0Y1092D02*
X7Y1092D01*
X2070Y1092D02*
X2077Y1092D01*
X0Y1091D02*
X7Y1091D01*
X2070Y1091D02*
X2077Y1091D01*
X0Y1090D02*
X7Y1090D01*
X2070Y1090D02*
X2077Y1090D01*
X0Y1089D02*
X7Y1089D01*
X2070Y1089D02*
X2077Y1089D01*
X0Y1088D02*
X7Y1088D01*
X2070Y1088D02*
X2077Y1088D01*
X0Y1087D02*
X7Y1087D01*
X2070Y1087D02*
X2077Y1087D01*
X0Y1086D02*
X7Y1086D01*
X2070Y1086D02*
X2077Y1086D01*
X0Y1085D02*
X7Y1085D01*
X2070Y1085D02*
X2077Y1085D01*
X0Y1084D02*
X7Y1084D01*
X2070Y1084D02*
X2077Y1084D01*
X0Y1083D02*
X7Y1083D01*
X2070Y1083D02*
X2077Y1083D01*
X0Y1082D02*
X7Y1082D01*
X2070Y1082D02*
X2077Y1082D01*
X0Y1081D02*
X7Y1081D01*
X2070Y1081D02*
X2077Y1081D01*
X0Y1080D02*
X7Y1080D01*
X2070Y1080D02*
X2077Y1080D01*
X0Y1079D02*
X7Y1079D01*
X2070Y1079D02*
X2077Y1079D01*
X0Y1078D02*
X7Y1078D01*
X2070Y1078D02*
X2077Y1078D01*
X0Y1077D02*
X7Y1077D01*
X2070Y1077D02*
X2077Y1077D01*
X0Y1076D02*
X7Y1076D01*
X2070Y1076D02*
X2077Y1076D01*
X0Y1075D02*
X7Y1075D01*
X2070Y1075D02*
X2077Y1075D01*
X0Y1074D02*
X7Y1074D01*
X2070Y1074D02*
X2077Y1074D01*
X0Y1073D02*
X7Y1073D01*
X2070Y1073D02*
X2077Y1073D01*
X0Y1072D02*
X7Y1072D01*
X2070Y1072D02*
X2077Y1072D01*
X0Y1071D02*
X7Y1071D01*
X2070Y1071D02*
X2077Y1071D01*
X0Y1070D02*
X7Y1070D01*
X2070Y1070D02*
X2077Y1070D01*
X0Y1069D02*
X7Y1069D01*
X2070Y1069D02*
X2077Y1069D01*
X0Y1068D02*
X7Y1068D01*
X2070Y1068D02*
X2077Y1068D01*
X0Y1067D02*
X7Y1067D01*
X2070Y1067D02*
X2077Y1067D01*
X0Y1066D02*
X7Y1066D01*
X2070Y1066D02*
X2077Y1066D01*
X0Y1065D02*
X7Y1065D01*
X2070Y1065D02*
X2077Y1065D01*
X0Y1064D02*
X7Y1064D01*
X2070Y1064D02*
X2077Y1064D01*
X0Y1063D02*
X7Y1063D01*
X2070Y1063D02*
X2077Y1063D01*
X0Y1062D02*
X7Y1062D01*
X2070Y1062D02*
X2077Y1062D01*
X0Y1061D02*
X7Y1061D01*
X2070Y1061D02*
X2077Y1061D01*
X0Y1060D02*
X7Y1060D01*
X2070Y1060D02*
X2077Y1060D01*
X0Y1059D02*
X7Y1059D01*
X2070Y1059D02*
X2077Y1059D01*
X0Y1058D02*
X7Y1058D01*
X2070Y1058D02*
X2077Y1058D01*
X0Y1057D02*
X7Y1057D01*
X2070Y1057D02*
X2077Y1057D01*
X0Y1056D02*
X7Y1056D01*
X2070Y1056D02*
X2077Y1056D01*
X0Y1055D02*
X7Y1055D01*
X2070Y1055D02*
X2077Y1055D01*
X0Y1054D02*
X7Y1054D01*
X2070Y1054D02*
X2077Y1054D01*
X0Y1053D02*
X7Y1053D01*
X2070Y1053D02*
X2077Y1053D01*
X0Y1052D02*
X7Y1052D01*
X2070Y1052D02*
X2077Y1052D01*
X0Y1051D02*
X7Y1051D01*
X2070Y1051D02*
X2077Y1051D01*
X0Y1050D02*
X7Y1050D01*
X2070Y1050D02*
X2077Y1050D01*
X0Y1049D02*
X7Y1049D01*
X2070Y1049D02*
X2077Y1049D01*
X0Y1048D02*
X7Y1048D01*
X2070Y1048D02*
X2077Y1048D01*
X0Y1047D02*
X7Y1047D01*
X2070Y1047D02*
X2077Y1047D01*
X0Y1046D02*
X7Y1046D01*
X2070Y1046D02*
X2077Y1046D01*
X0Y1045D02*
X7Y1045D01*
X2070Y1045D02*
X2077Y1045D01*
X0Y1044D02*
X7Y1044D01*
X2070Y1044D02*
X2077Y1044D01*
X0Y1043D02*
X7Y1043D01*
X2070Y1043D02*
X2077Y1043D01*
X0Y1042D02*
X7Y1042D01*
X2070Y1042D02*
X2077Y1042D01*
X0Y1041D02*
X7Y1041D01*
X2070Y1041D02*
X2077Y1041D01*
X0Y1040D02*
X7Y1040D01*
X2070Y1040D02*
X2077Y1040D01*
X0Y1039D02*
X7Y1039D01*
X2070Y1039D02*
X2077Y1039D01*
X0Y1038D02*
X7Y1038D01*
X2070Y1038D02*
X2077Y1038D01*
X0Y1037D02*
X7Y1037D01*
X2070Y1037D02*
X2077Y1037D01*
X0Y1036D02*
X7Y1036D01*
X2070Y1036D02*
X2077Y1036D01*
X0Y1035D02*
X7Y1035D01*
X2070Y1035D02*
X2077Y1035D01*
X0Y1034D02*
X7Y1034D01*
X2070Y1034D02*
X2077Y1034D01*
X0Y1033D02*
X7Y1033D01*
X2070Y1033D02*
X2077Y1033D01*
X0Y1032D02*
X7Y1032D01*
X2070Y1032D02*
X2077Y1032D01*
X0Y1031D02*
X7Y1031D01*
X2070Y1031D02*
X2077Y1031D01*
X0Y1030D02*
X7Y1030D01*
X2070Y1030D02*
X2077Y1030D01*
X0Y1029D02*
X7Y1029D01*
X2070Y1029D02*
X2077Y1029D01*
X0Y1028D02*
X7Y1028D01*
X2070Y1028D02*
X2077Y1028D01*
X0Y1027D02*
X7Y1027D01*
X2070Y1027D02*
X2077Y1027D01*
X0Y1026D02*
X7Y1026D01*
X2070Y1026D02*
X2077Y1026D01*
X0Y1025D02*
X7Y1025D01*
X68Y1025D02*
X89Y1025D01*
X2070Y1025D02*
X2077Y1025D01*
X0Y1024D02*
X7Y1024D01*
X67Y1024D02*
X90Y1024D01*
X2070Y1024D02*
X2077Y1024D01*
X0Y1023D02*
X7Y1023D01*
X67Y1023D02*
X90Y1023D01*
X2070Y1023D02*
X2077Y1023D01*
X0Y1022D02*
X7Y1022D01*
X67Y1022D02*
X91Y1022D01*
X2070Y1022D02*
X2077Y1022D01*
X0Y1021D02*
X7Y1021D01*
X67Y1021D02*
X91Y1021D01*
X2070Y1021D02*
X2077Y1021D01*
X0Y1020D02*
X7Y1020D01*
X68Y1020D02*
X91Y1020D01*
X2070Y1020D02*
X2077Y1020D01*
X0Y1019D02*
X7Y1019D01*
X69Y1019D02*
X91Y1019D01*
X2070Y1019D02*
X2077Y1019D01*
X0Y1018D02*
X7Y1018D01*
X85Y1018D02*
X91Y1018D01*
X2070Y1018D02*
X2077Y1018D01*
X0Y1017D02*
X7Y1017D01*
X85Y1017D02*
X91Y1017D01*
X2070Y1017D02*
X2077Y1017D01*
X0Y1016D02*
X7Y1016D01*
X85Y1016D02*
X91Y1016D01*
X2070Y1016D02*
X2077Y1016D01*
X0Y1015D02*
X7Y1015D01*
X85Y1015D02*
X91Y1015D01*
X2070Y1015D02*
X2077Y1015D01*
X0Y1014D02*
X7Y1014D01*
X85Y1014D02*
X91Y1014D01*
X2070Y1014D02*
X2077Y1014D01*
X0Y1013D02*
X7Y1013D01*
X85Y1013D02*
X91Y1013D01*
X2070Y1013D02*
X2077Y1013D01*
X0Y1012D02*
X7Y1012D01*
X38Y1012D02*
X91Y1012D01*
X2070Y1012D02*
X2077Y1012D01*
X0Y1011D02*
X7Y1011D01*
X37Y1011D02*
X91Y1011D01*
X2070Y1011D02*
X2077Y1011D01*
X0Y1010D02*
X7Y1010D01*
X37Y1010D02*
X91Y1010D01*
X2070Y1010D02*
X2077Y1010D01*
X0Y1009D02*
X7Y1009D01*
X37Y1009D02*
X90Y1009D01*
X2070Y1009D02*
X2077Y1009D01*
X0Y1008D02*
X7Y1008D01*
X37Y1008D02*
X89Y1008D01*
X2070Y1008D02*
X2077Y1008D01*
X0Y1007D02*
X7Y1007D01*
X37Y1007D02*
X88Y1007D01*
X2070Y1007D02*
X2077Y1007D01*
X0Y1006D02*
X7Y1006D01*
X37Y1006D02*
X87Y1006D01*
X2070Y1006D02*
X2077Y1006D01*
X0Y1005D02*
X7Y1005D01*
X37Y1005D02*
X44Y1005D01*
X84Y1005D02*
X87Y1005D01*
X2070Y1005D02*
X2077Y1005D01*
X0Y1004D02*
X7Y1004D01*
X37Y1004D02*
X43Y1004D01*
X85Y1004D02*
X86Y1004D01*
X2070Y1004D02*
X2077Y1004D01*
X0Y1003D02*
X7Y1003D01*
X37Y1003D02*
X43Y1003D01*
X85Y1003D02*
X85Y1003D01*
X2070Y1003D02*
X2077Y1003D01*
X0Y1002D02*
X7Y1002D01*
X37Y1002D02*
X43Y1002D01*
X2070Y1002D02*
X2077Y1002D01*
X0Y1001D02*
X7Y1001D01*
X37Y1001D02*
X43Y1001D01*
X2070Y1001D02*
X2077Y1001D01*
X0Y1000D02*
X7Y1000D01*
X37Y1000D02*
X43Y1000D01*
X2070Y1000D02*
X2077Y1000D01*
X0Y999D02*
X7Y999D01*
X37Y999D02*
X43Y999D01*
X2070Y999D02*
X2077Y999D01*
X0Y998D02*
X7Y998D01*
X37Y998D02*
X43Y998D01*
X2070Y998D02*
X2077Y998D01*
X0Y997D02*
X7Y997D01*
X37Y997D02*
X43Y997D01*
X2070Y997D02*
X2077Y997D01*
X0Y996D02*
X7Y996D01*
X37Y996D02*
X43Y996D01*
X2070Y996D02*
X2077Y996D01*
X0Y995D02*
X7Y995D01*
X37Y995D02*
X43Y995D01*
X2070Y995D02*
X2077Y995D01*
X0Y994D02*
X7Y994D01*
X38Y994D02*
X43Y994D01*
X2070Y994D02*
X2077Y994D01*
X0Y993D02*
X7Y993D01*
X38Y993D02*
X43Y993D01*
X2070Y993D02*
X2077Y993D01*
X0Y992D02*
X7Y992D01*
X39Y992D02*
X42Y992D01*
X2070Y992D02*
X2077Y992D01*
X0Y991D02*
X7Y991D01*
X2070Y991D02*
X2077Y991D01*
X0Y990D02*
X7Y990D01*
X2070Y990D02*
X2077Y990D01*
X0Y989D02*
X7Y989D01*
X2070Y989D02*
X2077Y989D01*
X0Y988D02*
X7Y988D01*
X2070Y988D02*
X2077Y988D01*
X0Y987D02*
X7Y987D01*
X2070Y987D02*
X2077Y987D01*
X0Y986D02*
X7Y986D01*
X2070Y986D02*
X2077Y986D01*
X0Y985D02*
X7Y985D01*
X2070Y985D02*
X2077Y985D01*
X0Y984D02*
X7Y984D01*
X2070Y984D02*
X2077Y984D01*
X0Y983D02*
X7Y983D01*
X2070Y983D02*
X2077Y983D01*
X0Y982D02*
X7Y982D01*
X2070Y982D02*
X2077Y982D01*
X0Y981D02*
X7Y981D01*
X2070Y981D02*
X2077Y981D01*
X0Y980D02*
X7Y980D01*
X2070Y980D02*
X2077Y980D01*
X0Y979D02*
X7Y979D01*
X2070Y979D02*
X2077Y979D01*
X0Y978D02*
X7Y978D01*
X2070Y978D02*
X2077Y978D01*
X0Y977D02*
X7Y977D01*
X2070Y977D02*
X2077Y977D01*
X0Y976D02*
X7Y976D01*
X2070Y976D02*
X2077Y976D01*
X0Y975D02*
X7Y975D01*
X39Y975D02*
X42Y975D01*
X2070Y975D02*
X2077Y975D01*
X0Y974D02*
X7Y974D01*
X38Y974D02*
X43Y974D01*
X2070Y974D02*
X2077Y974D01*
X0Y973D02*
X7Y973D01*
X38Y973D02*
X43Y973D01*
X2070Y973D02*
X2077Y973D01*
X0Y972D02*
X7Y972D01*
X37Y972D02*
X43Y972D01*
X2070Y972D02*
X2077Y972D01*
X0Y971D02*
X7Y971D01*
X37Y971D02*
X43Y971D01*
X2070Y971D02*
X2077Y971D01*
X0Y970D02*
X7Y970D01*
X37Y970D02*
X43Y970D01*
X2070Y970D02*
X2077Y970D01*
X0Y969D02*
X7Y969D01*
X37Y969D02*
X43Y969D01*
X2070Y969D02*
X2077Y969D01*
X0Y968D02*
X7Y968D01*
X37Y968D02*
X43Y968D01*
X2070Y968D02*
X2077Y968D01*
X0Y967D02*
X7Y967D01*
X37Y967D02*
X43Y967D01*
X2070Y967D02*
X2077Y967D01*
X0Y966D02*
X7Y966D01*
X37Y966D02*
X43Y966D01*
X2070Y966D02*
X2077Y966D01*
X0Y965D02*
X7Y965D01*
X37Y965D02*
X43Y965D01*
X2070Y965D02*
X2077Y965D01*
X0Y964D02*
X7Y964D01*
X37Y964D02*
X43Y964D01*
X2070Y964D02*
X2077Y964D01*
X0Y963D02*
X7Y963D01*
X37Y963D02*
X43Y963D01*
X2070Y963D02*
X2077Y963D01*
X0Y962D02*
X7Y962D01*
X37Y962D02*
X43Y962D01*
X2070Y962D02*
X2077Y962D01*
X0Y961D02*
X7Y961D01*
X37Y961D02*
X43Y961D01*
X2070Y961D02*
X2077Y961D01*
X0Y960D02*
X7Y960D01*
X37Y960D02*
X43Y960D01*
X2070Y960D02*
X2077Y960D01*
X0Y959D02*
X7Y959D01*
X37Y959D02*
X44Y959D01*
X2070Y959D02*
X2077Y959D01*
X0Y958D02*
X7Y958D01*
X38Y958D02*
X44Y958D01*
X2070Y958D02*
X2077Y958D01*
X0Y957D02*
X7Y957D01*
X38Y957D02*
X44Y957D01*
X84Y957D02*
X84Y957D01*
X2070Y957D02*
X2077Y957D01*
X0Y956D02*
X7Y956D01*
X38Y956D02*
X46Y956D01*
X82Y956D02*
X84Y956D01*
X2070Y956D02*
X2077Y956D01*
X0Y955D02*
X7Y955D01*
X38Y955D02*
X48Y955D01*
X80Y955D02*
X85Y955D01*
X2070Y955D02*
X2077Y955D01*
X0Y954D02*
X7Y954D01*
X39Y954D02*
X50Y954D01*
X78Y954D02*
X86Y954D01*
X2070Y954D02*
X2077Y954D01*
X0Y953D02*
X7Y953D01*
X39Y953D02*
X52Y953D01*
X76Y953D02*
X87Y953D01*
X2070Y953D02*
X2077Y953D01*
X0Y952D02*
X7Y952D01*
X40Y952D02*
X54Y952D01*
X75Y952D02*
X87Y952D01*
X2070Y952D02*
X2077Y952D01*
X0Y951D02*
X7Y951D01*
X41Y951D02*
X56Y951D01*
X73Y951D02*
X87Y951D01*
X2070Y951D02*
X2077Y951D01*
X0Y950D02*
X7Y950D01*
X43Y950D02*
X58Y950D01*
X71Y950D02*
X85Y950D01*
X2070Y950D02*
X2077Y950D01*
X0Y949D02*
X7Y949D01*
X45Y949D02*
X60Y949D01*
X69Y949D02*
X83Y949D01*
X2070Y949D02*
X2077Y949D01*
X0Y948D02*
X7Y948D01*
X47Y948D02*
X81Y948D01*
X2070Y948D02*
X2077Y948D01*
X0Y947D02*
X7Y947D01*
X49Y947D02*
X79Y947D01*
X2070Y947D02*
X2077Y947D01*
X0Y946D02*
X7Y946D01*
X51Y946D02*
X77Y946D01*
X2070Y946D02*
X2077Y946D01*
X0Y945D02*
X7Y945D01*
X53Y945D02*
X75Y945D01*
X2070Y945D02*
X2077Y945D01*
X0Y944D02*
X7Y944D01*
X55Y944D02*
X73Y944D01*
X2070Y944D02*
X2077Y944D01*
X0Y943D02*
X7Y943D01*
X57Y943D02*
X71Y943D01*
X2070Y943D02*
X2077Y943D01*
X0Y942D02*
X7Y942D01*
X59Y942D02*
X69Y942D01*
X2070Y942D02*
X2077Y942D01*
X0Y941D02*
X7Y941D01*
X2070Y941D02*
X2077Y941D01*
X0Y940D02*
X7Y940D01*
X2070Y940D02*
X2077Y940D01*
X0Y939D02*
X7Y939D01*
X2070Y939D02*
X2077Y939D01*
X0Y938D02*
X7Y938D01*
X2070Y938D02*
X2077Y938D01*
X0Y937D02*
X7Y937D01*
X2070Y937D02*
X2077Y937D01*
X0Y936D02*
X7Y936D01*
X2070Y936D02*
X2077Y936D01*
X0Y935D02*
X7Y935D01*
X2070Y935D02*
X2077Y935D01*
X0Y934D02*
X7Y934D01*
X2070Y934D02*
X2077Y934D01*
X0Y933D02*
X7Y933D01*
X2070Y933D02*
X2077Y933D01*
X0Y932D02*
X7Y932D01*
X2070Y932D02*
X2077Y932D01*
X0Y931D02*
X7Y931D01*
X2070Y931D02*
X2077Y931D01*
X0Y930D02*
X7Y930D01*
X2070Y930D02*
X2077Y930D01*
X0Y929D02*
X7Y929D01*
X2070Y929D02*
X2077Y929D01*
X0Y928D02*
X7Y928D01*
X2070Y928D02*
X2077Y928D01*
X0Y927D02*
X7Y927D01*
X2070Y927D02*
X2077Y927D01*
X0Y926D02*
X7Y926D01*
X2070Y926D02*
X2077Y926D01*
X0Y925D02*
X7Y925D01*
X39Y925D02*
X42Y925D01*
X87Y925D02*
X89Y925D01*
X2070Y925D02*
X2077Y925D01*
X0Y924D02*
X7Y924D01*
X38Y924D02*
X43Y924D01*
X85Y924D02*
X90Y924D01*
X2070Y924D02*
X2077Y924D01*
X0Y923D02*
X7Y923D01*
X38Y923D02*
X43Y923D01*
X85Y923D02*
X90Y923D01*
X2070Y923D02*
X2077Y923D01*
X0Y922D02*
X7Y922D01*
X37Y922D02*
X43Y922D01*
X85Y922D02*
X91Y922D01*
X2070Y922D02*
X2077Y922D01*
X0Y921D02*
X7Y921D01*
X37Y921D02*
X43Y921D01*
X85Y921D02*
X91Y921D01*
X2070Y921D02*
X2077Y921D01*
X0Y920D02*
X7Y920D01*
X37Y920D02*
X43Y920D01*
X85Y920D02*
X91Y920D01*
X2070Y920D02*
X2077Y920D01*
X0Y919D02*
X7Y919D01*
X37Y919D02*
X43Y919D01*
X85Y919D02*
X91Y919D01*
X2070Y919D02*
X2077Y919D01*
X0Y918D02*
X7Y918D01*
X37Y918D02*
X43Y918D01*
X85Y918D02*
X91Y918D01*
X2070Y918D02*
X2077Y918D01*
X0Y917D02*
X7Y917D01*
X37Y917D02*
X43Y917D01*
X85Y917D02*
X91Y917D01*
X2070Y917D02*
X2077Y917D01*
X0Y916D02*
X7Y916D01*
X37Y916D02*
X43Y916D01*
X85Y916D02*
X91Y916D01*
X2070Y916D02*
X2077Y916D01*
X0Y915D02*
X7Y915D01*
X37Y915D02*
X43Y915D01*
X85Y915D02*
X91Y915D01*
X2070Y915D02*
X2077Y915D01*
X0Y914D02*
X7Y914D01*
X37Y914D02*
X43Y914D01*
X85Y914D02*
X91Y914D01*
X2070Y914D02*
X2077Y914D01*
X0Y913D02*
X7Y913D01*
X37Y913D02*
X43Y913D01*
X85Y913D02*
X91Y913D01*
X2070Y913D02*
X2077Y913D01*
X0Y912D02*
X7Y912D01*
X37Y912D02*
X44Y912D01*
X85Y912D02*
X91Y912D01*
X2070Y912D02*
X2077Y912D01*
X0Y911D02*
X7Y911D01*
X37Y911D02*
X91Y911D01*
X2070Y911D02*
X2077Y911D01*
X0Y910D02*
X7Y910D01*
X37Y910D02*
X91Y910D01*
X2070Y910D02*
X2077Y910D01*
X0Y909D02*
X7Y909D01*
X37Y909D02*
X91Y909D01*
X2070Y909D02*
X2077Y909D01*
X0Y908D02*
X7Y908D01*
X37Y908D02*
X91Y908D01*
X2070Y908D02*
X2077Y908D01*
X0Y907D02*
X7Y907D01*
X37Y907D02*
X91Y907D01*
X2070Y907D02*
X2077Y907D01*
X0Y906D02*
X7Y906D01*
X37Y906D02*
X91Y906D01*
X2070Y906D02*
X2077Y906D01*
X0Y905D02*
X7Y905D01*
X37Y905D02*
X91Y905D01*
X2070Y905D02*
X2077Y905D01*
X0Y904D02*
X7Y904D01*
X37Y904D02*
X43Y904D01*
X85Y904D02*
X91Y904D01*
X2070Y904D02*
X2077Y904D01*
X0Y903D02*
X7Y903D01*
X37Y903D02*
X43Y903D01*
X85Y903D02*
X91Y903D01*
X2070Y903D02*
X2077Y903D01*
X0Y902D02*
X7Y902D01*
X37Y902D02*
X43Y902D01*
X85Y902D02*
X91Y902D01*
X2070Y902D02*
X2077Y902D01*
X0Y901D02*
X7Y901D01*
X37Y901D02*
X43Y901D01*
X85Y901D02*
X91Y901D01*
X2070Y901D02*
X2077Y901D01*
X0Y900D02*
X7Y900D01*
X37Y900D02*
X43Y900D01*
X85Y900D02*
X91Y900D01*
X2070Y900D02*
X2077Y900D01*
X0Y899D02*
X7Y899D01*
X37Y899D02*
X43Y899D01*
X85Y899D02*
X91Y899D01*
X2070Y899D02*
X2077Y899D01*
X0Y898D02*
X7Y898D01*
X37Y898D02*
X43Y898D01*
X85Y898D02*
X91Y898D01*
X2070Y898D02*
X2077Y898D01*
X0Y897D02*
X7Y897D01*
X37Y897D02*
X43Y897D01*
X85Y897D02*
X91Y897D01*
X2070Y897D02*
X2077Y897D01*
X0Y896D02*
X7Y896D01*
X37Y896D02*
X43Y896D01*
X85Y896D02*
X91Y896D01*
X2070Y896D02*
X2077Y896D01*
X0Y895D02*
X7Y895D01*
X37Y895D02*
X43Y895D01*
X85Y895D02*
X91Y895D01*
X2070Y895D02*
X2077Y895D01*
X0Y894D02*
X7Y894D01*
X38Y894D02*
X43Y894D01*
X85Y894D02*
X91Y894D01*
X2070Y894D02*
X2077Y894D01*
X0Y893D02*
X7Y893D01*
X38Y893D02*
X43Y893D01*
X85Y893D02*
X90Y893D01*
X2070Y893D02*
X2077Y893D01*
X0Y892D02*
X7Y892D01*
X38Y892D02*
X42Y892D01*
X86Y892D02*
X90Y892D01*
X2070Y892D02*
X2077Y892D01*
X0Y891D02*
X7Y891D01*
X40Y891D02*
X41Y891D01*
X87Y891D02*
X88Y891D01*
X2070Y891D02*
X2077Y891D01*
X0Y890D02*
X7Y890D01*
X2070Y890D02*
X2077Y890D01*
X0Y889D02*
X7Y889D01*
X2070Y889D02*
X2077Y889D01*
X0Y888D02*
X7Y888D01*
X2070Y888D02*
X2077Y888D01*
X0Y887D02*
X7Y887D01*
X2070Y887D02*
X2077Y887D01*
X0Y886D02*
X7Y886D01*
X2070Y886D02*
X2077Y886D01*
X0Y885D02*
X7Y885D01*
X2070Y885D02*
X2077Y885D01*
X0Y884D02*
X7Y884D01*
X2070Y884D02*
X2077Y884D01*
X0Y883D02*
X7Y883D01*
X2070Y883D02*
X2077Y883D01*
X0Y882D02*
X7Y882D01*
X2070Y882D02*
X2077Y882D01*
X0Y881D02*
X7Y881D01*
X2070Y881D02*
X2077Y881D01*
X0Y880D02*
X7Y880D01*
X2070Y880D02*
X2077Y880D01*
X0Y879D02*
X7Y879D01*
X2070Y879D02*
X2077Y879D01*
X0Y878D02*
X7Y878D01*
X2070Y878D02*
X2077Y878D01*
X0Y877D02*
X7Y877D01*
X2070Y877D02*
X2077Y877D01*
X0Y876D02*
X7Y876D01*
X2070Y876D02*
X2077Y876D01*
X0Y875D02*
X7Y875D01*
X2070Y875D02*
X2077Y875D01*
X0Y874D02*
X7Y874D01*
X2070Y874D02*
X2077Y874D01*
X0Y873D02*
X7Y873D01*
X2070Y873D02*
X2077Y873D01*
X0Y872D02*
X7Y872D01*
X2070Y872D02*
X2077Y872D01*
X0Y871D02*
X7Y871D01*
X2070Y871D02*
X2077Y871D01*
X0Y870D02*
X7Y870D01*
X2070Y870D02*
X2077Y870D01*
X0Y869D02*
X7Y869D01*
X2070Y869D02*
X2077Y869D01*
X0Y868D02*
X7Y868D01*
X2070Y868D02*
X2077Y868D01*
X0Y867D02*
X7Y867D01*
X2070Y867D02*
X2077Y867D01*
X0Y866D02*
X7Y866D01*
X2070Y866D02*
X2077Y866D01*
X0Y865D02*
X7Y865D01*
X2070Y865D02*
X2077Y865D01*
X0Y864D02*
X7Y864D01*
X2070Y864D02*
X2077Y864D01*
X0Y863D02*
X7Y863D01*
X2070Y863D02*
X2077Y863D01*
X0Y862D02*
X7Y862D01*
X2070Y862D02*
X2077Y862D01*
X0Y861D02*
X7Y861D01*
X2070Y861D02*
X2077Y861D01*
X0Y860D02*
X7Y860D01*
X2070Y860D02*
X2077Y860D01*
X0Y859D02*
X7Y859D01*
X2070Y859D02*
X2077Y859D01*
X0Y858D02*
X7Y858D01*
X2070Y858D02*
X2077Y858D01*
X0Y857D02*
X7Y857D01*
X2070Y857D02*
X2077Y857D01*
X0Y856D02*
X7Y856D01*
X2070Y856D02*
X2077Y856D01*
X0Y855D02*
X7Y855D01*
X2070Y855D02*
X2077Y855D01*
X0Y854D02*
X7Y854D01*
X2070Y854D02*
X2077Y854D01*
X0Y853D02*
X7Y853D01*
X2070Y853D02*
X2077Y853D01*
X0Y852D02*
X7Y852D01*
X2070Y852D02*
X2077Y852D01*
X0Y851D02*
X7Y851D01*
X2070Y851D02*
X2077Y851D01*
X0Y850D02*
X7Y850D01*
X2070Y850D02*
X2077Y850D01*
X0Y849D02*
X7Y849D01*
X2070Y849D02*
X2077Y849D01*
X0Y848D02*
X7Y848D01*
X2070Y848D02*
X2077Y848D01*
X0Y847D02*
X7Y847D01*
X2070Y847D02*
X2077Y847D01*
X0Y846D02*
X7Y846D01*
X2070Y846D02*
X2077Y846D01*
X0Y845D02*
X7Y845D01*
X2070Y845D02*
X2077Y845D01*
X0Y844D02*
X7Y844D01*
X2070Y844D02*
X2077Y844D01*
X0Y843D02*
X7Y843D01*
X2070Y843D02*
X2077Y843D01*
X0Y842D02*
X7Y842D01*
X2070Y842D02*
X2077Y842D01*
X0Y841D02*
X7Y841D01*
X2070Y841D02*
X2077Y841D01*
X0Y840D02*
X7Y840D01*
X2070Y840D02*
X2077Y840D01*
X0Y839D02*
X7Y839D01*
X2070Y839D02*
X2077Y839D01*
X0Y838D02*
X7Y838D01*
X2070Y838D02*
X2077Y838D01*
X0Y837D02*
X7Y837D01*
X2070Y837D02*
X2077Y837D01*
X0Y836D02*
X7Y836D01*
X2070Y836D02*
X2077Y836D01*
X0Y835D02*
X7Y835D01*
X2070Y835D02*
X2077Y835D01*
X0Y834D02*
X7Y834D01*
X2070Y834D02*
X2077Y834D01*
X0Y833D02*
X7Y833D01*
X2070Y833D02*
X2077Y833D01*
X0Y832D02*
X7Y832D01*
X2070Y832D02*
X2077Y832D01*
X0Y831D02*
X7Y831D01*
X2070Y831D02*
X2077Y831D01*
X0Y830D02*
X7Y830D01*
X2070Y830D02*
X2077Y830D01*
X0Y829D02*
X7Y829D01*
X2070Y829D02*
X2077Y829D01*
X0Y828D02*
X7Y828D01*
X2070Y828D02*
X2077Y828D01*
X0Y827D02*
X7Y827D01*
X2070Y827D02*
X2077Y827D01*
X0Y826D02*
X7Y826D01*
X2070Y826D02*
X2077Y826D01*
X0Y825D02*
X7Y825D01*
X2070Y825D02*
X2077Y825D01*
X0Y824D02*
X7Y824D01*
X2070Y824D02*
X2077Y824D01*
X0Y823D02*
X7Y823D01*
X2070Y823D02*
X2077Y823D01*
X0Y822D02*
X7Y822D01*
X2070Y822D02*
X2077Y822D01*
X0Y821D02*
X7Y821D01*
X2070Y821D02*
X2077Y821D01*
X0Y820D02*
X7Y820D01*
X2070Y820D02*
X2077Y820D01*
X0Y819D02*
X7Y819D01*
X2070Y819D02*
X2077Y819D01*
X0Y818D02*
X7Y818D01*
X2070Y818D02*
X2077Y818D01*
X0Y817D02*
X7Y817D01*
X2070Y817D02*
X2077Y817D01*
X0Y816D02*
X7Y816D01*
X2070Y816D02*
X2077Y816D01*
X0Y815D02*
X7Y815D01*
X2070Y815D02*
X2077Y815D01*
X0Y814D02*
X7Y814D01*
X2070Y814D02*
X2077Y814D01*
X0Y813D02*
X7Y813D01*
X2070Y813D02*
X2077Y813D01*
X0Y812D02*
X7Y812D01*
X2070Y812D02*
X2077Y812D01*
X0Y811D02*
X7Y811D01*
X2070Y811D02*
X2077Y811D01*
X0Y810D02*
X7Y810D01*
X2070Y810D02*
X2077Y810D01*
X0Y809D02*
X7Y809D01*
X2070Y809D02*
X2077Y809D01*
X0Y808D02*
X7Y808D01*
X2070Y808D02*
X2077Y808D01*
X0Y807D02*
X7Y807D01*
X2070Y807D02*
X2077Y807D01*
X0Y806D02*
X7Y806D01*
X2070Y806D02*
X2077Y806D01*
X0Y805D02*
X7Y805D01*
X2070Y805D02*
X2077Y805D01*
X0Y804D02*
X7Y804D01*
X2070Y804D02*
X2077Y804D01*
X0Y803D02*
X7Y803D01*
X2070Y803D02*
X2077Y803D01*
X0Y802D02*
X7Y802D01*
X2070Y802D02*
X2077Y802D01*
X0Y801D02*
X7Y801D01*
X2070Y801D02*
X2077Y801D01*
X0Y800D02*
X7Y800D01*
X2070Y800D02*
X2077Y800D01*
X0Y799D02*
X7Y799D01*
X2070Y799D02*
X2077Y799D01*
X0Y798D02*
X7Y798D01*
X2070Y798D02*
X2077Y798D01*
X0Y797D02*
X7Y797D01*
X2070Y797D02*
X2077Y797D01*
X0Y796D02*
X7Y796D01*
X2070Y796D02*
X2077Y796D01*
X0Y795D02*
X7Y795D01*
X2070Y795D02*
X2077Y795D01*
X0Y794D02*
X7Y794D01*
X2070Y794D02*
X2077Y794D01*
X0Y793D02*
X7Y793D01*
X2070Y793D02*
X2077Y793D01*
X0Y792D02*
X7Y792D01*
X2070Y792D02*
X2077Y792D01*
X0Y791D02*
X7Y791D01*
X2070Y791D02*
X2077Y791D01*
X0Y790D02*
X7Y790D01*
X2070Y790D02*
X2077Y790D01*
X0Y789D02*
X7Y789D01*
X2070Y789D02*
X2077Y789D01*
X0Y788D02*
X7Y788D01*
X2070Y788D02*
X2077Y788D01*
X0Y787D02*
X7Y787D01*
X2070Y787D02*
X2077Y787D01*
X0Y786D02*
X7Y786D01*
X2070Y786D02*
X2077Y786D01*
X0Y785D02*
X7Y785D01*
X2070Y785D02*
X2077Y785D01*
X0Y784D02*
X7Y784D01*
X2070Y784D02*
X2077Y784D01*
X0Y783D02*
X7Y783D01*
X2070Y783D02*
X2077Y783D01*
X0Y782D02*
X7Y782D01*
X2070Y782D02*
X2077Y782D01*
X0Y781D02*
X7Y781D01*
X2070Y781D02*
X2077Y781D01*
X0Y780D02*
X7Y780D01*
X2070Y780D02*
X2077Y780D01*
X0Y779D02*
X7Y779D01*
X2070Y779D02*
X2077Y779D01*
X0Y778D02*
X7Y778D01*
X2070Y778D02*
X2077Y778D01*
X0Y777D02*
X7Y777D01*
X2070Y777D02*
X2077Y777D01*
X0Y776D02*
X7Y776D01*
X2070Y776D02*
X2077Y776D01*
X0Y775D02*
X7Y775D01*
X2070Y775D02*
X2077Y775D01*
X0Y774D02*
X7Y774D01*
X2070Y774D02*
X2077Y774D01*
X0Y773D02*
X7Y773D01*
X2070Y773D02*
X2077Y773D01*
X0Y772D02*
X7Y772D01*
X2070Y772D02*
X2077Y772D01*
X0Y771D02*
X7Y771D01*
X2070Y771D02*
X2077Y771D01*
X0Y770D02*
X7Y770D01*
X2070Y770D02*
X2077Y770D01*
X0Y769D02*
X7Y769D01*
X2070Y769D02*
X2077Y769D01*
X0Y768D02*
X7Y768D01*
X2070Y768D02*
X2077Y768D01*
X0Y767D02*
X7Y767D01*
X2070Y767D02*
X2077Y767D01*
X0Y766D02*
X7Y766D01*
X2070Y766D02*
X2077Y766D01*
X0Y765D02*
X7Y765D01*
X2070Y765D02*
X2077Y765D01*
X0Y764D02*
X7Y764D01*
X2070Y764D02*
X2077Y764D01*
X0Y763D02*
X7Y763D01*
X2070Y763D02*
X2077Y763D01*
X0Y762D02*
X7Y762D01*
X2070Y762D02*
X2077Y762D01*
X0Y761D02*
X7Y761D01*
X2070Y761D02*
X2077Y761D01*
X0Y760D02*
X7Y760D01*
X2070Y760D02*
X2077Y760D01*
X0Y759D02*
X7Y759D01*
X2070Y759D02*
X2077Y759D01*
X0Y758D02*
X7Y758D01*
X2070Y758D02*
X2077Y758D01*
X0Y757D02*
X7Y757D01*
X2070Y757D02*
X2077Y757D01*
X0Y756D02*
X7Y756D01*
X2070Y756D02*
X2077Y756D01*
X0Y755D02*
X7Y755D01*
X2070Y755D02*
X2077Y755D01*
X0Y754D02*
X7Y754D01*
X2070Y754D02*
X2077Y754D01*
X0Y753D02*
X7Y753D01*
X2070Y753D02*
X2077Y753D01*
X0Y752D02*
X7Y752D01*
X1187Y752D02*
X1187Y752D01*
X1387Y752D02*
X1387Y752D01*
X2070Y752D02*
X2077Y752D01*
X0Y751D02*
X7Y751D01*
X1186Y751D02*
X1188Y751D01*
X1386Y751D02*
X1388Y751D01*
X2070Y751D02*
X2077Y751D01*
X0Y750D02*
X7Y750D01*
X1185Y750D02*
X1189Y750D01*
X1385Y750D02*
X1389Y750D01*
X2070Y750D02*
X2077Y750D01*
X0Y749D02*
X7Y749D01*
X1184Y749D02*
X1190Y749D01*
X1384Y749D02*
X1390Y749D01*
X2070Y749D02*
X2077Y749D01*
X0Y748D02*
X7Y748D01*
X1183Y748D02*
X1191Y748D01*
X1383Y748D02*
X1391Y748D01*
X2070Y748D02*
X2077Y748D01*
X0Y747D02*
X7Y747D01*
X1182Y747D02*
X1192Y747D01*
X1382Y747D02*
X1392Y747D01*
X2070Y747D02*
X2077Y747D01*
X0Y746D02*
X7Y746D01*
X1181Y746D02*
X1193Y746D01*
X1381Y746D02*
X1393Y746D01*
X2070Y746D02*
X2077Y746D01*
X0Y745D02*
X7Y745D01*
X1180Y745D02*
X1193Y745D01*
X1380Y745D02*
X1393Y745D01*
X2070Y745D02*
X2077Y745D01*
X0Y744D02*
X7Y744D01*
X1179Y744D02*
X1192Y744D01*
X1379Y744D02*
X1392Y744D01*
X2070Y744D02*
X2077Y744D01*
X0Y743D02*
X7Y743D01*
X1178Y743D02*
X1191Y743D01*
X1378Y743D02*
X1391Y743D01*
X2070Y743D02*
X2077Y743D01*
X0Y742D02*
X7Y742D01*
X1177Y742D02*
X1190Y742D01*
X1377Y742D02*
X1390Y742D01*
X2070Y742D02*
X2077Y742D01*
X0Y741D02*
X7Y741D01*
X1176Y741D02*
X1189Y741D01*
X1376Y741D02*
X1389Y741D01*
X2070Y741D02*
X2077Y741D01*
X0Y740D02*
X7Y740D01*
X1175Y740D02*
X1188Y740D01*
X1375Y740D02*
X1388Y740D01*
X2070Y740D02*
X2077Y740D01*
X0Y739D02*
X7Y739D01*
X1174Y739D02*
X1187Y739D01*
X1374Y739D02*
X1387Y739D01*
X2070Y739D02*
X2077Y739D01*
X0Y738D02*
X7Y738D01*
X1173Y738D02*
X1186Y738D01*
X1373Y738D02*
X1386Y738D01*
X2070Y738D02*
X2077Y738D01*
X0Y737D02*
X7Y737D01*
X1172Y737D02*
X1185Y737D01*
X1372Y737D02*
X1385Y737D01*
X2070Y737D02*
X2077Y737D01*
X0Y736D02*
X7Y736D01*
X1171Y736D02*
X1184Y736D01*
X1371Y736D02*
X1384Y736D01*
X2070Y736D02*
X2077Y736D01*
X0Y735D02*
X7Y735D01*
X1170Y735D02*
X1183Y735D01*
X1370Y735D02*
X1383Y735D01*
X2070Y735D02*
X2077Y735D01*
X0Y734D02*
X7Y734D01*
X1169Y734D02*
X1182Y734D01*
X1369Y734D02*
X1382Y734D01*
X2070Y734D02*
X2077Y734D01*
X0Y733D02*
X7Y733D01*
X1168Y733D02*
X1181Y733D01*
X1368Y733D02*
X1381Y733D01*
X2070Y733D02*
X2077Y733D01*
X0Y732D02*
X7Y732D01*
X1167Y732D02*
X1180Y732D01*
X1367Y732D02*
X1380Y732D01*
X2070Y732D02*
X2077Y732D01*
X0Y731D02*
X7Y731D01*
X1166Y731D02*
X1179Y731D01*
X1366Y731D02*
X1379Y731D01*
X2070Y731D02*
X2077Y731D01*
X0Y730D02*
X7Y730D01*
X1165Y730D02*
X1178Y730D01*
X1365Y730D02*
X1378Y730D01*
X2070Y730D02*
X2077Y730D01*
X0Y729D02*
X7Y729D01*
X1164Y729D02*
X1177Y729D01*
X1364Y729D02*
X1377Y729D01*
X2070Y729D02*
X2077Y729D01*
X0Y728D02*
X7Y728D01*
X1163Y728D02*
X1176Y728D01*
X1363Y728D02*
X1376Y728D01*
X2070Y728D02*
X2077Y728D01*
X0Y727D02*
X7Y727D01*
X1162Y727D02*
X1175Y727D01*
X1362Y727D02*
X1375Y727D01*
X2070Y727D02*
X2077Y727D01*
X0Y726D02*
X7Y726D01*
X1161Y726D02*
X1174Y726D01*
X1361Y726D02*
X1374Y726D01*
X2070Y726D02*
X2077Y726D01*
X0Y725D02*
X7Y725D01*
X1160Y725D02*
X1173Y725D01*
X1360Y725D02*
X1373Y725D01*
X2070Y725D02*
X2077Y725D01*
X0Y724D02*
X7Y724D01*
X1159Y724D02*
X1172Y724D01*
X1359Y724D02*
X1372Y724D01*
X2070Y724D02*
X2077Y724D01*
X0Y723D02*
X7Y723D01*
X1158Y723D02*
X1171Y723D01*
X1358Y723D02*
X1371Y723D01*
X2070Y723D02*
X2077Y723D01*
X0Y722D02*
X7Y722D01*
X1157Y722D02*
X1170Y722D01*
X1357Y722D02*
X1370Y722D01*
X2070Y722D02*
X2077Y722D01*
X0Y721D02*
X7Y721D01*
X1156Y721D02*
X1169Y721D01*
X1356Y721D02*
X1369Y721D01*
X2070Y721D02*
X2077Y721D01*
X0Y720D02*
X7Y720D01*
X1155Y720D02*
X1168Y720D01*
X1355Y720D02*
X1368Y720D01*
X2070Y720D02*
X2077Y720D01*
X0Y719D02*
X7Y719D01*
X1154Y719D02*
X1167Y719D01*
X1354Y719D02*
X1367Y719D01*
X2070Y719D02*
X2077Y719D01*
X0Y718D02*
X7Y718D01*
X1153Y718D02*
X1166Y718D01*
X1353Y718D02*
X1366Y718D01*
X2070Y718D02*
X2077Y718D01*
X0Y717D02*
X7Y717D01*
X1152Y717D02*
X1165Y717D01*
X1352Y717D02*
X1365Y717D01*
X2070Y717D02*
X2077Y717D01*
X0Y716D02*
X7Y716D01*
X1151Y716D02*
X1164Y716D01*
X1351Y716D02*
X1364Y716D01*
X2070Y716D02*
X2077Y716D01*
X0Y715D02*
X7Y715D01*
X1150Y715D02*
X1163Y715D01*
X1350Y715D02*
X1363Y715D01*
X2070Y715D02*
X2077Y715D01*
X0Y714D02*
X7Y714D01*
X1149Y714D02*
X1162Y714D01*
X1349Y714D02*
X1362Y714D01*
X2070Y714D02*
X2077Y714D01*
X0Y713D02*
X7Y713D01*
X1148Y713D02*
X1161Y713D01*
X1348Y713D02*
X1361Y713D01*
X2070Y713D02*
X2077Y713D01*
X0Y712D02*
X7Y712D01*
X1147Y712D02*
X1160Y712D01*
X1347Y712D02*
X1360Y712D01*
X2070Y712D02*
X2077Y712D01*
X0Y711D02*
X7Y711D01*
X1146Y711D02*
X1159Y711D01*
X1346Y711D02*
X1359Y711D01*
X2070Y711D02*
X2077Y711D01*
X0Y710D02*
X7Y710D01*
X1145Y710D02*
X1158Y710D01*
X1345Y710D02*
X1358Y710D01*
X2070Y710D02*
X2077Y710D01*
X0Y709D02*
X7Y709D01*
X1144Y709D02*
X1157Y709D01*
X1344Y709D02*
X1357Y709D01*
X2070Y709D02*
X2077Y709D01*
X0Y708D02*
X7Y708D01*
X1143Y708D02*
X1156Y708D01*
X1343Y708D02*
X1356Y708D01*
X2070Y708D02*
X2077Y708D01*
X0Y707D02*
X7Y707D01*
X1142Y707D02*
X1155Y707D01*
X1342Y707D02*
X1355Y707D01*
X2070Y707D02*
X2077Y707D01*
X0Y706D02*
X7Y706D01*
X1141Y706D02*
X1154Y706D01*
X1341Y706D02*
X1354Y706D01*
X2070Y706D02*
X2077Y706D01*
X0Y705D02*
X7Y705D01*
X1140Y705D02*
X1153Y705D01*
X1340Y705D02*
X1353Y705D01*
X2070Y705D02*
X2077Y705D01*
X0Y704D02*
X7Y704D01*
X1141Y704D02*
X1152Y704D01*
X1341Y704D02*
X1352Y704D01*
X2070Y704D02*
X2077Y704D01*
X0Y703D02*
X7Y703D01*
X1142Y703D02*
X1151Y703D01*
X1342Y703D02*
X1351Y703D01*
X2070Y703D02*
X2077Y703D01*
X0Y702D02*
X7Y702D01*
X1143Y702D02*
X1150Y702D01*
X1343Y702D02*
X1350Y702D01*
X2070Y702D02*
X2077Y702D01*
X0Y701D02*
X7Y701D01*
X1144Y701D02*
X1149Y701D01*
X1344Y701D02*
X1349Y701D01*
X2070Y701D02*
X2077Y701D01*
X0Y700D02*
X7Y700D01*
X1145Y700D02*
X1148Y700D01*
X1345Y700D02*
X1348Y700D01*
X2070Y700D02*
X2077Y700D01*
X0Y699D02*
X7Y699D01*
X1146Y699D02*
X1147Y699D01*
X1346Y699D02*
X1347Y699D01*
X2070Y699D02*
X2077Y699D01*
X0Y698D02*
X7Y698D01*
X2070Y698D02*
X2077Y698D01*
X0Y697D02*
X7Y697D01*
X2070Y697D02*
X2077Y697D01*
X0Y696D02*
X7Y696D01*
X2070Y696D02*
X2077Y696D01*
X0Y695D02*
X7Y695D01*
X2070Y695D02*
X2077Y695D01*
X0Y694D02*
X7Y694D01*
X2070Y694D02*
X2077Y694D01*
X0Y693D02*
X7Y693D01*
X2070Y693D02*
X2077Y693D01*
X0Y692D02*
X7Y692D01*
X2070Y692D02*
X2077Y692D01*
X0Y691D02*
X7Y691D01*
X2070Y691D02*
X2077Y691D01*
X0Y690D02*
X7Y690D01*
X2070Y690D02*
X2077Y690D01*
X0Y689D02*
X7Y689D01*
X2070Y689D02*
X2077Y689D01*
X0Y688D02*
X7Y688D01*
X2070Y688D02*
X2077Y688D01*
X0Y687D02*
X7Y687D01*
X2070Y687D02*
X2077Y687D01*
X0Y686D02*
X7Y686D01*
X2070Y686D02*
X2077Y686D01*
X0Y685D02*
X7Y685D01*
X2070Y685D02*
X2077Y685D01*
X0Y684D02*
X7Y684D01*
X2070Y684D02*
X2077Y684D01*
X0Y683D02*
X7Y683D01*
X2070Y683D02*
X2077Y683D01*
X0Y682D02*
X7Y682D01*
X2070Y682D02*
X2077Y682D01*
X0Y681D02*
X7Y681D01*
X2070Y681D02*
X2077Y681D01*
X0Y680D02*
X7Y680D01*
X2070Y680D02*
X2077Y680D01*
X0Y679D02*
X7Y679D01*
X2070Y679D02*
X2077Y679D01*
X0Y678D02*
X7Y678D01*
X2070Y678D02*
X2077Y678D01*
X0Y677D02*
X7Y677D01*
X2070Y677D02*
X2077Y677D01*
X0Y676D02*
X7Y676D01*
X2070Y676D02*
X2077Y676D01*
X0Y675D02*
X7Y675D01*
X2070Y675D02*
X2077Y675D01*
X0Y674D02*
X7Y674D01*
X2070Y674D02*
X2077Y674D01*
X0Y673D02*
X7Y673D01*
X2070Y673D02*
X2077Y673D01*
X0Y672D02*
X7Y672D01*
X2070Y672D02*
X2077Y672D01*
X0Y671D02*
X7Y671D01*
X2070Y671D02*
X2077Y671D01*
X0Y670D02*
X7Y670D01*
X2070Y670D02*
X2077Y670D01*
X0Y669D02*
X7Y669D01*
X2070Y669D02*
X2077Y669D01*
X0Y668D02*
X7Y668D01*
X2070Y668D02*
X2077Y668D01*
X0Y667D02*
X7Y667D01*
X2070Y667D02*
X2077Y667D01*
X0Y666D02*
X7Y666D01*
X2070Y666D02*
X2077Y666D01*
X0Y665D02*
X7Y665D01*
X2070Y665D02*
X2077Y665D01*
X0Y664D02*
X7Y664D01*
X2070Y664D02*
X2077Y664D01*
X0Y663D02*
X7Y663D01*
X2070Y663D02*
X2077Y663D01*
X0Y662D02*
X7Y662D01*
X2070Y662D02*
X2077Y662D01*
X0Y661D02*
X7Y661D01*
X2070Y661D02*
X2077Y661D01*
X0Y660D02*
X7Y660D01*
X2070Y660D02*
X2077Y660D01*
X0Y659D02*
X7Y659D01*
X2070Y659D02*
X2077Y659D01*
X0Y658D02*
X7Y658D01*
X2070Y658D02*
X2077Y658D01*
X0Y657D02*
X7Y657D01*
X2070Y657D02*
X2077Y657D01*
X0Y656D02*
X7Y656D01*
X2070Y656D02*
X2077Y656D01*
X0Y655D02*
X7Y655D01*
X2070Y655D02*
X2077Y655D01*
X0Y654D02*
X7Y654D01*
X2070Y654D02*
X2077Y654D01*
X0Y653D02*
X7Y653D01*
X2070Y653D02*
X2077Y653D01*
X0Y652D02*
X7Y652D01*
X2070Y652D02*
X2077Y652D01*
X0Y651D02*
X7Y651D01*
X2070Y651D02*
X2077Y651D01*
X0Y650D02*
X7Y650D01*
X2070Y650D02*
X2077Y650D01*
X0Y649D02*
X7Y649D01*
X2070Y649D02*
X2077Y649D01*
X0Y648D02*
X7Y648D01*
X2070Y648D02*
X2077Y648D01*
X0Y647D02*
X7Y647D01*
X2070Y647D02*
X2077Y647D01*
X0Y646D02*
X7Y646D01*
X2070Y646D02*
X2077Y646D01*
X0Y645D02*
X7Y645D01*
X2070Y645D02*
X2077Y645D01*
X0Y644D02*
X7Y644D01*
X2070Y644D02*
X2077Y644D01*
X0Y643D02*
X7Y643D01*
X2070Y643D02*
X2077Y643D01*
X0Y642D02*
X7Y642D01*
X2070Y642D02*
X2077Y642D01*
X0Y641D02*
X7Y641D01*
X2070Y641D02*
X2077Y641D01*
X0Y640D02*
X7Y640D01*
X2070Y640D02*
X2077Y640D01*
X0Y639D02*
X7Y639D01*
X2070Y639D02*
X2077Y639D01*
X0Y638D02*
X7Y638D01*
X2070Y638D02*
X2077Y638D01*
X0Y637D02*
X7Y637D01*
X2070Y637D02*
X2077Y637D01*
X0Y636D02*
X7Y636D01*
X2070Y636D02*
X2077Y636D01*
X0Y635D02*
X7Y635D01*
X2070Y635D02*
X2077Y635D01*
X0Y634D02*
X7Y634D01*
X2070Y634D02*
X2077Y634D01*
X0Y633D02*
X7Y633D01*
X2070Y633D02*
X2077Y633D01*
X0Y632D02*
X7Y632D01*
X2070Y632D02*
X2077Y632D01*
X0Y631D02*
X7Y631D01*
X2070Y631D02*
X2077Y631D01*
X0Y630D02*
X7Y630D01*
X2070Y630D02*
X2077Y630D01*
X0Y629D02*
X7Y629D01*
X2070Y629D02*
X2077Y629D01*
X0Y628D02*
X7Y628D01*
X2070Y628D02*
X2077Y628D01*
X0Y627D02*
X7Y627D01*
X2070Y627D02*
X2077Y627D01*
X0Y626D02*
X7Y626D01*
X2070Y626D02*
X2077Y626D01*
X0Y625D02*
X7Y625D01*
X2070Y625D02*
X2077Y625D01*
X0Y624D02*
X7Y624D01*
X2070Y624D02*
X2077Y624D01*
X0Y623D02*
X7Y623D01*
X2070Y623D02*
X2077Y623D01*
X0Y622D02*
X7Y622D01*
X2070Y622D02*
X2077Y622D01*
X0Y621D02*
X7Y621D01*
X2070Y621D02*
X2077Y621D01*
X0Y620D02*
X7Y620D01*
X2070Y620D02*
X2077Y620D01*
X0Y619D02*
X7Y619D01*
X2070Y619D02*
X2077Y619D01*
X0Y618D02*
X7Y618D01*
X2070Y618D02*
X2077Y618D01*
X0Y617D02*
X7Y617D01*
X2070Y617D02*
X2077Y617D01*
X0Y616D02*
X7Y616D01*
X2070Y616D02*
X2077Y616D01*
X0Y615D02*
X7Y615D01*
X2070Y615D02*
X2077Y615D01*
X0Y614D02*
X7Y614D01*
X2070Y614D02*
X2077Y614D01*
X0Y613D02*
X7Y613D01*
X2070Y613D02*
X2077Y613D01*
X0Y612D02*
X7Y612D01*
X2070Y612D02*
X2077Y612D01*
X0Y611D02*
X7Y611D01*
X2070Y611D02*
X2077Y611D01*
X0Y610D02*
X7Y610D01*
X2070Y610D02*
X2077Y610D01*
X0Y609D02*
X7Y609D01*
X2070Y609D02*
X2077Y609D01*
X0Y608D02*
X7Y608D01*
X2070Y608D02*
X2077Y608D01*
X0Y607D02*
X7Y607D01*
X2070Y607D02*
X2077Y607D01*
X0Y606D02*
X7Y606D01*
X2070Y606D02*
X2077Y606D01*
X0Y605D02*
X7Y605D01*
X2070Y605D02*
X2077Y605D01*
X0Y604D02*
X7Y604D01*
X2070Y604D02*
X2077Y604D01*
X0Y603D02*
X7Y603D01*
X2070Y603D02*
X2077Y603D01*
X0Y602D02*
X7Y602D01*
X2070Y602D02*
X2077Y602D01*
X0Y601D02*
X7Y601D01*
X2070Y601D02*
X2077Y601D01*
X0Y600D02*
X7Y600D01*
X2070Y600D02*
X2077Y600D01*
X0Y599D02*
X7Y599D01*
X2070Y599D02*
X2077Y599D01*
X0Y598D02*
X7Y598D01*
X2070Y598D02*
X2077Y598D01*
X0Y597D02*
X7Y597D01*
X2070Y597D02*
X2077Y597D01*
X0Y596D02*
X7Y596D01*
X2070Y596D02*
X2077Y596D01*
X0Y595D02*
X7Y595D01*
X2070Y595D02*
X2077Y595D01*
X0Y594D02*
X7Y594D01*
X2070Y594D02*
X2077Y594D01*
X0Y593D02*
X7Y593D01*
X2070Y593D02*
X2077Y593D01*
X0Y592D02*
X7Y592D01*
X2070Y592D02*
X2077Y592D01*
X0Y591D02*
X7Y591D01*
X2070Y591D02*
X2077Y591D01*
X0Y590D02*
X7Y590D01*
X2070Y590D02*
X2077Y590D01*
X0Y589D02*
X7Y589D01*
X2070Y589D02*
X2077Y589D01*
X0Y588D02*
X7Y588D01*
X2070Y588D02*
X2077Y588D01*
X0Y587D02*
X7Y587D01*
X2070Y587D02*
X2077Y587D01*
X0Y586D02*
X7Y586D01*
X2070Y586D02*
X2077Y586D01*
X0Y585D02*
X7Y585D01*
X2070Y585D02*
X2077Y585D01*
X0Y584D02*
X7Y584D01*
X2070Y584D02*
X2077Y584D01*
X0Y583D02*
X7Y583D01*
X2070Y583D02*
X2077Y583D01*
X0Y582D02*
X7Y582D01*
X2070Y582D02*
X2077Y582D01*
X0Y581D02*
X7Y581D01*
X2070Y581D02*
X2077Y581D01*
X0Y580D02*
X7Y580D01*
X2070Y580D02*
X2077Y580D01*
X0Y579D02*
X7Y579D01*
X2070Y579D02*
X2077Y579D01*
X0Y578D02*
X7Y578D01*
X2070Y578D02*
X2077Y578D01*
X0Y577D02*
X7Y577D01*
X2070Y577D02*
X2077Y577D01*
X0Y576D02*
X7Y576D01*
X2070Y576D02*
X2077Y576D01*
X0Y575D02*
X7Y575D01*
X2070Y575D02*
X2077Y575D01*
X0Y574D02*
X7Y574D01*
X2070Y574D02*
X2077Y574D01*
X0Y573D02*
X7Y573D01*
X2070Y573D02*
X2077Y573D01*
X0Y572D02*
X7Y572D01*
X2070Y572D02*
X2077Y572D01*
X0Y571D02*
X7Y571D01*
X2070Y571D02*
X2077Y571D01*
X0Y570D02*
X7Y570D01*
X2070Y570D02*
X2077Y570D01*
X0Y569D02*
X7Y569D01*
X2070Y569D02*
X2077Y569D01*
X0Y568D02*
X7Y568D01*
X2070Y568D02*
X2077Y568D01*
X0Y567D02*
X7Y567D01*
X2070Y567D02*
X2077Y567D01*
X0Y566D02*
X7Y566D01*
X2070Y566D02*
X2077Y566D01*
X0Y565D02*
X7Y565D01*
X2070Y565D02*
X2077Y565D01*
X0Y564D02*
X7Y564D01*
X2070Y564D02*
X2077Y564D01*
X0Y563D02*
X7Y563D01*
X998Y563D02*
X998Y563D01*
X1198Y563D02*
X1198Y563D01*
X2070Y563D02*
X2077Y563D01*
X0Y562D02*
X7Y562D01*
X997Y562D02*
X999Y562D01*
X1197Y562D02*
X1199Y562D01*
X2070Y562D02*
X2077Y562D01*
X0Y561D02*
X7Y561D01*
X996Y561D02*
X1000Y561D01*
X1196Y561D02*
X1200Y561D01*
X2070Y561D02*
X2077Y561D01*
X0Y560D02*
X7Y560D01*
X995Y560D02*
X1001Y560D01*
X1195Y560D02*
X1201Y560D01*
X2070Y560D02*
X2077Y560D01*
X0Y559D02*
X7Y559D01*
X994Y559D02*
X1002Y559D01*
X1194Y559D02*
X1202Y559D01*
X2070Y559D02*
X2077Y559D01*
X0Y558D02*
X7Y558D01*
X993Y558D02*
X1003Y558D01*
X1193Y558D02*
X1203Y558D01*
X2070Y558D02*
X2077Y558D01*
X0Y557D02*
X7Y557D01*
X992Y557D02*
X1004Y557D01*
X1192Y557D02*
X1204Y557D01*
X2070Y557D02*
X2077Y557D01*
X0Y556D02*
X7Y556D01*
X991Y556D02*
X1004Y556D01*
X1191Y556D02*
X1204Y556D01*
X2070Y556D02*
X2077Y556D01*
X0Y555D02*
X7Y555D01*
X990Y555D02*
X1003Y555D01*
X1190Y555D02*
X1203Y555D01*
X2070Y555D02*
X2077Y555D01*
X0Y554D02*
X7Y554D01*
X989Y554D02*
X1002Y554D01*
X1189Y554D02*
X1202Y554D01*
X2070Y554D02*
X2077Y554D01*
X0Y553D02*
X7Y553D01*
X988Y553D02*
X1001Y553D01*
X1188Y553D02*
X1201Y553D01*
X2070Y553D02*
X2077Y553D01*
X0Y552D02*
X7Y552D01*
X987Y552D02*
X1000Y552D01*
X1187Y552D02*
X1200Y552D01*
X2070Y552D02*
X2077Y552D01*
X0Y551D02*
X7Y551D01*
X986Y551D02*
X999Y551D01*
X1186Y551D02*
X1199Y551D01*
X2070Y551D02*
X2077Y551D01*
X0Y550D02*
X7Y550D01*
X985Y550D02*
X998Y550D01*
X1185Y550D02*
X1198Y550D01*
X1339Y550D02*
X1340Y550D01*
X1539Y550D02*
X1540Y550D01*
X2070Y550D02*
X2077Y550D01*
X0Y549D02*
X7Y549D01*
X984Y549D02*
X997Y549D01*
X1184Y549D02*
X1197Y549D01*
X1338Y549D02*
X1341Y549D01*
X1538Y549D02*
X1541Y549D01*
X2070Y549D02*
X2077Y549D01*
X0Y548D02*
X7Y548D01*
X983Y548D02*
X996Y548D01*
X1183Y548D02*
X1196Y548D01*
X1337Y548D02*
X1342Y548D01*
X1537Y548D02*
X1542Y548D01*
X2070Y548D02*
X2077Y548D01*
X0Y547D02*
X7Y547D01*
X982Y547D02*
X995Y547D01*
X1182Y547D02*
X1195Y547D01*
X1336Y547D02*
X1343Y547D01*
X1536Y547D02*
X1543Y547D01*
X2070Y547D02*
X2077Y547D01*
X0Y546D02*
X7Y546D01*
X981Y546D02*
X994Y546D01*
X1181Y546D02*
X1194Y546D01*
X1335Y546D02*
X1344Y546D01*
X1535Y546D02*
X1544Y546D01*
X2070Y546D02*
X2077Y546D01*
X0Y545D02*
X7Y545D01*
X980Y545D02*
X993Y545D01*
X1180Y545D02*
X1193Y545D01*
X1334Y545D02*
X1345Y545D01*
X1534Y545D02*
X1545Y545D01*
X2070Y545D02*
X2077Y545D01*
X0Y544D02*
X7Y544D01*
X979Y544D02*
X992Y544D01*
X1179Y544D02*
X1192Y544D01*
X1333Y544D02*
X1346Y544D01*
X1533Y544D02*
X1546Y544D01*
X2070Y544D02*
X2077Y544D01*
X0Y543D02*
X7Y543D01*
X978Y543D02*
X991Y543D01*
X1178Y543D02*
X1191Y543D01*
X1332Y543D02*
X1347Y543D01*
X1532Y543D02*
X1547Y543D01*
X2070Y543D02*
X2077Y543D01*
X0Y542D02*
X7Y542D01*
X977Y542D02*
X990Y542D01*
X1177Y542D02*
X1190Y542D01*
X1331Y542D02*
X1348Y542D01*
X1531Y542D02*
X1548Y542D01*
X2070Y542D02*
X2077Y542D01*
X0Y541D02*
X7Y541D01*
X976Y541D02*
X989Y541D01*
X1176Y541D02*
X1189Y541D01*
X1330Y541D02*
X1349Y541D01*
X1530Y541D02*
X1549Y541D01*
X2070Y541D02*
X2077Y541D01*
X0Y540D02*
X7Y540D01*
X975Y540D02*
X988Y540D01*
X1175Y540D02*
X1188Y540D01*
X1329Y540D02*
X1338Y540D01*
X1341Y540D02*
X1350Y540D01*
X1529Y540D02*
X1538Y540D01*
X1541Y540D02*
X1550Y540D01*
X2070Y540D02*
X2077Y540D01*
X0Y539D02*
X7Y539D01*
X974Y539D02*
X987Y539D01*
X1174Y539D02*
X1187Y539D01*
X1328Y539D02*
X1337Y539D01*
X1342Y539D02*
X1351Y539D01*
X1528Y539D02*
X1537Y539D01*
X1542Y539D02*
X1551Y539D01*
X2070Y539D02*
X2077Y539D01*
X0Y538D02*
X7Y538D01*
X973Y538D02*
X986Y538D01*
X1173Y538D02*
X1186Y538D01*
X1327Y538D02*
X1336Y538D01*
X1343Y538D02*
X1352Y538D01*
X1527Y538D02*
X1536Y538D01*
X1543Y538D02*
X1552Y538D01*
X2070Y538D02*
X2077Y538D01*
X0Y537D02*
X7Y537D01*
X972Y537D02*
X985Y537D01*
X1172Y537D02*
X1185Y537D01*
X1326Y537D02*
X1335Y537D01*
X1344Y537D02*
X1353Y537D01*
X1526Y537D02*
X1535Y537D01*
X1544Y537D02*
X1553Y537D01*
X2070Y537D02*
X2077Y537D01*
X0Y536D02*
X7Y536D01*
X971Y536D02*
X984Y536D01*
X1171Y536D02*
X1184Y536D01*
X1325Y536D02*
X1334Y536D01*
X1345Y536D02*
X1354Y536D01*
X1525Y536D02*
X1534Y536D01*
X1545Y536D02*
X1554Y536D01*
X2070Y536D02*
X2077Y536D01*
X0Y535D02*
X7Y535D01*
X970Y535D02*
X983Y535D01*
X1170Y535D02*
X1183Y535D01*
X1324Y535D02*
X1333Y535D01*
X1346Y535D02*
X1355Y535D01*
X1524Y535D02*
X1533Y535D01*
X1546Y535D02*
X1555Y535D01*
X2070Y535D02*
X2077Y535D01*
X0Y534D02*
X7Y534D01*
X969Y534D02*
X982Y534D01*
X1169Y534D02*
X1182Y534D01*
X1323Y534D02*
X1332Y534D01*
X1347Y534D02*
X1356Y534D01*
X1523Y534D02*
X1532Y534D01*
X1547Y534D02*
X1556Y534D01*
X2070Y534D02*
X2077Y534D01*
X0Y533D02*
X7Y533D01*
X968Y533D02*
X981Y533D01*
X1168Y533D02*
X1181Y533D01*
X1322Y533D02*
X1332Y533D01*
X1348Y533D02*
X1357Y533D01*
X1522Y533D02*
X1532Y533D01*
X1548Y533D02*
X1557Y533D01*
X2070Y533D02*
X2077Y533D01*
X0Y532D02*
X7Y532D01*
X967Y532D02*
X980Y532D01*
X1167Y532D02*
X1180Y532D01*
X1321Y532D02*
X1333Y532D01*
X1349Y532D02*
X1357Y532D01*
X1521Y532D02*
X1533Y532D01*
X1549Y532D02*
X1557Y532D01*
X2070Y532D02*
X2077Y532D01*
X0Y531D02*
X7Y531D01*
X966Y531D02*
X979Y531D01*
X1166Y531D02*
X1179Y531D01*
X1320Y531D02*
X1334Y531D01*
X1350Y531D02*
X1358Y531D01*
X1520Y531D02*
X1534Y531D01*
X1550Y531D02*
X1558Y531D01*
X2070Y531D02*
X2077Y531D01*
X0Y530D02*
X7Y530D01*
X965Y530D02*
X978Y530D01*
X1165Y530D02*
X1178Y530D01*
X1319Y530D02*
X1335Y530D01*
X1351Y530D02*
X1358Y530D01*
X1519Y530D02*
X1535Y530D01*
X1551Y530D02*
X1558Y530D01*
X2070Y530D02*
X2077Y530D01*
X0Y529D02*
X7Y529D01*
X965Y529D02*
X977Y529D01*
X1165Y529D02*
X1177Y529D01*
X1318Y529D02*
X1336Y529D01*
X1352Y529D02*
X1359Y529D01*
X1518Y529D02*
X1536Y529D01*
X1552Y529D02*
X1558Y529D01*
X2070Y529D02*
X2077Y529D01*
X0Y528D02*
X7Y528D01*
X966Y528D02*
X976Y528D01*
X1166Y528D02*
X1176Y528D01*
X1317Y528D02*
X1326Y528D01*
X1328Y528D02*
X1337Y528D01*
X1352Y528D02*
X1359Y528D01*
X1517Y528D02*
X1526Y528D01*
X1528Y528D02*
X1537Y528D01*
X1552Y528D02*
X1559Y528D01*
X2070Y528D02*
X2077Y528D01*
X0Y527D02*
X7Y527D01*
X967Y527D02*
X975Y527D01*
X1167Y527D02*
X1175Y527D01*
X1316Y527D02*
X1325Y527D01*
X1329Y527D02*
X1338Y527D01*
X1353Y527D02*
X1359Y527D01*
X1516Y527D02*
X1525Y527D01*
X1529Y527D02*
X1538Y527D01*
X1553Y527D02*
X1559Y527D01*
X2070Y527D02*
X2077Y527D01*
X0Y526D02*
X7Y526D01*
X968Y526D02*
X974Y526D01*
X1168Y526D02*
X1174Y526D01*
X1315Y526D02*
X1324Y526D01*
X1330Y526D02*
X1339Y526D01*
X1353Y526D02*
X1359Y526D01*
X1515Y526D02*
X1524Y526D01*
X1530Y526D02*
X1539Y526D01*
X1553Y526D02*
X1559Y526D01*
X2070Y526D02*
X2077Y526D01*
X0Y525D02*
X7Y525D01*
X969Y525D02*
X973Y525D01*
X1169Y525D02*
X1173Y525D01*
X1314Y525D02*
X1323Y525D01*
X1331Y525D02*
X1340Y525D01*
X1352Y525D02*
X1359Y525D01*
X1514Y525D02*
X1523Y525D01*
X1530Y525D02*
X1540Y525D01*
X1552Y525D02*
X1559Y525D01*
X2070Y525D02*
X2077Y525D01*
X0Y524D02*
X7Y524D01*
X970Y524D02*
X972Y524D01*
X1170Y524D02*
X1172Y524D01*
X1313Y524D02*
X1322Y524D01*
X1330Y524D02*
X1341Y524D01*
X1352Y524D02*
X1358Y524D01*
X1513Y524D02*
X1522Y524D01*
X1530Y524D02*
X1541Y524D01*
X1552Y524D02*
X1558Y524D01*
X2070Y524D02*
X2077Y524D01*
X0Y523D02*
X7Y523D01*
X971Y523D02*
X971Y523D01*
X1171Y523D02*
X1171Y523D01*
X1312Y523D02*
X1321Y523D01*
X1330Y523D02*
X1342Y523D01*
X1351Y523D02*
X1358Y523D01*
X1512Y523D02*
X1521Y523D01*
X1530Y523D02*
X1542Y523D01*
X1551Y523D02*
X1558Y523D01*
X2070Y523D02*
X2077Y523D01*
X0Y522D02*
X7Y522D01*
X1311Y522D02*
X1320Y522D01*
X1330Y522D02*
X1343Y522D01*
X1350Y522D02*
X1358Y522D01*
X1511Y522D02*
X1520Y522D01*
X1530Y522D02*
X1543Y522D01*
X1550Y522D02*
X1558Y522D01*
X2070Y522D02*
X2077Y522D01*
X0Y521D02*
X7Y521D01*
X1310Y521D02*
X1319Y521D01*
X1330Y521D02*
X1344Y521D01*
X1348Y521D02*
X1357Y521D01*
X1510Y521D02*
X1519Y521D01*
X1529Y521D02*
X1544Y521D01*
X1548Y521D02*
X1557Y521D01*
X2070Y521D02*
X2077Y521D01*
X0Y520D02*
X7Y520D01*
X1309Y520D02*
X1318Y520D01*
X1329Y520D02*
X1356Y520D01*
X1509Y520D02*
X1518Y520D01*
X1529Y520D02*
X1556Y520D01*
X2070Y520D02*
X2077Y520D01*
X0Y519D02*
X7Y519D01*
X1308Y519D02*
X1317Y519D01*
X1329Y519D02*
X1356Y519D01*
X1508Y519D02*
X1517Y519D01*
X1529Y519D02*
X1535Y519D01*
X1537Y519D02*
X1556Y519D01*
X2070Y519D02*
X2077Y519D01*
X0Y518D02*
X7Y518D01*
X1307Y518D02*
X1316Y518D01*
X1329Y518D02*
X1335Y518D01*
X1338Y518D02*
X1355Y518D01*
X1507Y518D02*
X1516Y518D01*
X1529Y518D02*
X1535Y518D01*
X1538Y518D02*
X1555Y518D01*
X2070Y518D02*
X2077Y518D01*
X0Y517D02*
X7Y517D01*
X1306Y517D02*
X1315Y517D01*
X1328Y517D02*
X1335Y517D01*
X1339Y517D02*
X1354Y517D01*
X1506Y517D02*
X1515Y517D01*
X1528Y517D02*
X1535Y517D01*
X1539Y517D02*
X1554Y517D01*
X2070Y517D02*
X2077Y517D01*
X0Y516D02*
X7Y516D01*
X1305Y516D02*
X1314Y516D01*
X1328Y516D02*
X1335Y516D01*
X1340Y516D02*
X1352Y516D01*
X1505Y516D02*
X1514Y516D01*
X1528Y516D02*
X1534Y516D01*
X1540Y516D02*
X1552Y516D01*
X2070Y516D02*
X2077Y516D01*
X0Y515D02*
X7Y515D01*
X1304Y515D02*
X1313Y515D01*
X1328Y515D02*
X1334Y515D01*
X1341Y515D02*
X1351Y515D01*
X1504Y515D02*
X1513Y515D01*
X1528Y515D02*
X1534Y515D01*
X1541Y515D02*
X1551Y515D01*
X2070Y515D02*
X2077Y515D01*
X0Y514D02*
X7Y514D01*
X1303Y514D02*
X1312Y514D01*
X1328Y514D02*
X1334Y514D01*
X1344Y514D02*
X1349Y514D01*
X1375Y514D02*
X1375Y514D01*
X1503Y514D02*
X1512Y514D01*
X1528Y514D02*
X1534Y514D01*
X1544Y514D02*
X1549Y514D01*
X1574Y514D02*
X1575Y514D01*
X2070Y514D02*
X2077Y514D01*
X0Y513D02*
X7Y513D01*
X1303Y513D02*
X1311Y513D01*
X1327Y513D02*
X1334Y513D01*
X1373Y513D02*
X1377Y513D01*
X1503Y513D02*
X1511Y513D01*
X1527Y513D02*
X1534Y513D01*
X1573Y513D02*
X1577Y513D01*
X2070Y513D02*
X2077Y513D01*
X0Y512D02*
X7Y512D01*
X1303Y512D02*
X1310Y512D01*
X1327Y512D02*
X1333Y512D01*
X1372Y512D02*
X1378Y512D01*
X1503Y512D02*
X1510Y512D01*
X1527Y512D02*
X1533Y512D01*
X1572Y512D02*
X1578Y512D01*
X2070Y512D02*
X2077Y512D01*
X0Y511D02*
X7Y511D01*
X1303Y511D02*
X1309Y511D01*
X1327Y511D02*
X1333Y511D01*
X1372Y511D02*
X1379Y511D01*
X1503Y511D02*
X1509Y511D01*
X1527Y511D02*
X1533Y511D01*
X1572Y511D02*
X1579Y511D01*
X2070Y511D02*
X2077Y511D01*
X0Y510D02*
X7Y510D01*
X1304Y510D02*
X1307Y510D01*
X1327Y510D02*
X1333Y510D01*
X1372Y510D02*
X1380Y510D01*
X1504Y510D02*
X1507Y510D01*
X1527Y510D02*
X1533Y510D01*
X1572Y510D02*
X1580Y510D01*
X2070Y510D02*
X2077Y510D01*
X0Y509D02*
X7Y509D01*
X1326Y509D02*
X1333Y509D01*
X1372Y509D02*
X1381Y509D01*
X1526Y509D02*
X1533Y509D01*
X1572Y509D02*
X1581Y509D01*
X2070Y509D02*
X2077Y509D01*
X0Y508D02*
X7Y508D01*
X1326Y508D02*
X1332Y508D01*
X1373Y508D02*
X1382Y508D01*
X1526Y508D02*
X1532Y508D01*
X1573Y508D02*
X1582Y508D01*
X2070Y508D02*
X2077Y508D01*
X0Y507D02*
X7Y507D01*
X1326Y507D02*
X1332Y507D01*
X1374Y507D02*
X1383Y507D01*
X1526Y507D02*
X1532Y507D01*
X1574Y507D02*
X1583Y507D01*
X2070Y507D02*
X2077Y507D01*
X0Y506D02*
X7Y506D01*
X1326Y506D02*
X1332Y506D01*
X1375Y506D02*
X1384Y506D01*
X1525Y506D02*
X1532Y506D01*
X1575Y506D02*
X1584Y506D01*
X2070Y506D02*
X2077Y506D01*
X0Y505D02*
X7Y505D01*
X1325Y505D02*
X1332Y505D01*
X1376Y505D02*
X1385Y505D01*
X1525Y505D02*
X1532Y505D01*
X1576Y505D02*
X1585Y505D01*
X2070Y505D02*
X2077Y505D01*
X0Y504D02*
X7Y504D01*
X1325Y504D02*
X1331Y504D01*
X1377Y504D02*
X1386Y504D01*
X1525Y504D02*
X1531Y504D01*
X1577Y504D02*
X1586Y504D01*
X2070Y504D02*
X2077Y504D01*
X0Y503D02*
X7Y503D01*
X1325Y503D02*
X1331Y503D01*
X1378Y503D02*
X1387Y503D01*
X1525Y503D02*
X1531Y503D01*
X1578Y503D02*
X1587Y503D01*
X2070Y503D02*
X2077Y503D01*
X0Y502D02*
X7Y502D01*
X1325Y502D02*
X1331Y502D01*
X1379Y502D02*
X1388Y502D01*
X1524Y502D02*
X1531Y502D01*
X1579Y502D02*
X1588Y502D01*
X2070Y502D02*
X2077Y502D01*
X0Y501D02*
X7Y501D01*
X1324Y501D02*
X1331Y501D01*
X1380Y501D02*
X1389Y501D01*
X1524Y501D02*
X1530Y501D01*
X1580Y501D02*
X1589Y501D01*
X2070Y501D02*
X2077Y501D01*
X0Y500D02*
X7Y500D01*
X1324Y500D02*
X1330Y500D01*
X1379Y500D02*
X1388Y500D01*
X1524Y500D02*
X1530Y500D01*
X1581Y500D02*
X1590Y500D01*
X2070Y500D02*
X2077Y500D01*
X0Y499D02*
X7Y499D01*
X1324Y499D02*
X1330Y499D01*
X1378Y499D02*
X1387Y499D01*
X1524Y499D02*
X1530Y499D01*
X1582Y499D02*
X1591Y499D01*
X2070Y499D02*
X2077Y499D01*
X0Y498D02*
X7Y498D01*
X1323Y498D02*
X1330Y498D01*
X1377Y498D02*
X1386Y498D01*
X1523Y498D02*
X1530Y498D01*
X1583Y498D02*
X1592Y498D01*
X2070Y498D02*
X2077Y498D01*
X0Y497D02*
X7Y497D01*
X1323Y497D02*
X1330Y497D01*
X1376Y497D02*
X1385Y497D01*
X1523Y497D02*
X1529Y497D01*
X1584Y497D02*
X1593Y497D01*
X2070Y497D02*
X2077Y497D01*
X0Y496D02*
X7Y496D01*
X1323Y496D02*
X1329Y496D01*
X1375Y496D02*
X1384Y496D01*
X1523Y496D02*
X1529Y496D01*
X1585Y496D02*
X1594Y496D01*
X2070Y496D02*
X2077Y496D01*
X0Y495D02*
X7Y495D01*
X1323Y495D02*
X1329Y495D01*
X1374Y495D02*
X1383Y495D01*
X1523Y495D02*
X1529Y495D01*
X1555Y495D02*
X1561Y495D01*
X1586Y495D02*
X1594Y495D01*
X2070Y495D02*
X2077Y495D01*
X0Y494D02*
X7Y494D01*
X1322Y494D02*
X1329Y494D01*
X1373Y494D02*
X1382Y494D01*
X1522Y494D02*
X1529Y494D01*
X1554Y494D02*
X1562Y494D01*
X1587Y494D02*
X1595Y494D01*
X2070Y494D02*
X2077Y494D01*
X0Y493D02*
X7Y493D01*
X1322Y493D02*
X1328Y493D01*
X1372Y493D02*
X1381Y493D01*
X1522Y493D02*
X1528Y493D01*
X1553Y493D02*
X1563Y493D01*
X1588Y493D02*
X1595Y493D01*
X2070Y493D02*
X2077Y493D01*
X0Y492D02*
X7Y492D01*
X1323Y492D02*
X1328Y492D01*
X1371Y492D02*
X1380Y492D01*
X1523Y492D02*
X1528Y492D01*
X1552Y492D02*
X1564Y492D01*
X1589Y492D02*
X1596Y492D01*
X2070Y492D02*
X2077Y492D01*
X0Y491D02*
X7Y491D01*
X1323Y491D02*
X1327Y491D01*
X1370Y491D02*
X1379Y491D01*
X1523Y491D02*
X1527Y491D01*
X1551Y491D02*
X1565Y491D01*
X1589Y491D02*
X1596Y491D01*
X2070Y491D02*
X2077Y491D01*
X0Y490D02*
X7Y490D01*
X1325Y490D02*
X1326Y490D01*
X1369Y490D02*
X1378Y490D01*
X1525Y490D02*
X1526Y490D01*
X1550Y490D02*
X1566Y490D01*
X1589Y490D02*
X1596Y490D01*
X2070Y490D02*
X2077Y490D01*
X0Y489D02*
X7Y489D01*
X1368Y489D02*
X1377Y489D01*
X1549Y489D02*
X1567Y489D01*
X1588Y489D02*
X1595Y489D01*
X2070Y489D02*
X2077Y489D01*
X0Y488D02*
X7Y488D01*
X1367Y488D02*
X1376Y488D01*
X1548Y488D02*
X1557Y488D01*
X1560Y488D02*
X1568Y488D01*
X1587Y488D02*
X1595Y488D01*
X2070Y488D02*
X2077Y488D01*
X0Y487D02*
X7Y487D01*
X1366Y487D02*
X1375Y487D01*
X1547Y487D02*
X1556Y487D01*
X1561Y487D02*
X1569Y487D01*
X1586Y487D02*
X1594Y487D01*
X2070Y487D02*
X2077Y487D01*
X0Y486D02*
X7Y486D01*
X1365Y486D02*
X1374Y486D01*
X1546Y486D02*
X1555Y486D01*
X1562Y486D02*
X1570Y486D01*
X1585Y486D02*
X1593Y486D01*
X2070Y486D02*
X2077Y486D01*
X0Y485D02*
X7Y485D01*
X1364Y485D02*
X1373Y485D01*
X1545Y485D02*
X1554Y485D01*
X1563Y485D02*
X1571Y485D01*
X1584Y485D02*
X1592Y485D01*
X2070Y485D02*
X2077Y485D01*
X0Y484D02*
X7Y484D01*
X1363Y484D02*
X1372Y484D01*
X1544Y484D02*
X1553Y484D01*
X1564Y484D02*
X1572Y484D01*
X1583Y484D02*
X1591Y484D01*
X2070Y484D02*
X2077Y484D01*
X0Y483D02*
X7Y483D01*
X1362Y483D02*
X1371Y483D01*
X1543Y483D02*
X1552Y483D01*
X1565Y483D02*
X1573Y483D01*
X1582Y483D02*
X1590Y483D01*
X2070Y483D02*
X2077Y483D01*
X0Y482D02*
X7Y482D01*
X1361Y482D02*
X1370Y482D01*
X1542Y482D02*
X1551Y482D01*
X1566Y482D02*
X1574Y482D01*
X1581Y482D02*
X1589Y482D01*
X2070Y482D02*
X2077Y482D01*
X0Y481D02*
X7Y481D01*
X1360Y481D02*
X1369Y481D01*
X1541Y481D02*
X1550Y481D01*
X1567Y481D02*
X1575Y481D01*
X1580Y481D02*
X1588Y481D01*
X2070Y481D02*
X2077Y481D01*
X0Y480D02*
X7Y480D01*
X1340Y480D02*
X1343Y480D01*
X1359Y480D02*
X1368Y480D01*
X1540Y480D02*
X1549Y480D01*
X1568Y480D02*
X1576Y480D01*
X1579Y480D02*
X1587Y480D01*
X2070Y480D02*
X2077Y480D01*
X0Y479D02*
X7Y479D01*
X1339Y479D02*
X1344Y479D01*
X1358Y479D02*
X1367Y479D01*
X1539Y479D02*
X1548Y479D01*
X1569Y479D02*
X1586Y479D01*
X2070Y479D02*
X2077Y479D01*
X0Y478D02*
X7Y478D01*
X1339Y478D02*
X1345Y478D01*
X1357Y478D02*
X1366Y478D01*
X1538Y478D02*
X1547Y478D01*
X1570Y478D02*
X1585Y478D01*
X2070Y478D02*
X2077Y478D01*
X0Y477D02*
X7Y477D01*
X1338Y477D02*
X1346Y477D01*
X1356Y477D02*
X1365Y477D01*
X1537Y477D02*
X1546Y477D01*
X1571Y477D02*
X1584Y477D01*
X2070Y477D02*
X2077Y477D01*
X0Y476D02*
X7Y476D01*
X1339Y476D02*
X1347Y476D01*
X1355Y476D02*
X1364Y476D01*
X1538Y476D02*
X1547Y476D01*
X1572Y476D02*
X1583Y476D01*
X2070Y476D02*
X2077Y476D01*
X0Y475D02*
X7Y475D01*
X1339Y475D02*
X1348Y475D01*
X1354Y475D02*
X1363Y475D01*
X1539Y475D02*
X1548Y475D01*
X1573Y475D02*
X1582Y475D01*
X2070Y475D02*
X2077Y475D01*
X0Y474D02*
X7Y474D01*
X1340Y474D02*
X1349Y474D01*
X1353Y474D02*
X1362Y474D01*
X1540Y474D02*
X1549Y474D01*
X1574Y474D02*
X1581Y474D01*
X2070Y474D02*
X2077Y474D01*
X0Y473D02*
X7Y473D01*
X1341Y473D02*
X1350Y473D01*
X1352Y473D02*
X1361Y473D01*
X1372Y473D02*
X1375Y473D01*
X1541Y473D02*
X1550Y473D01*
X1575Y473D02*
X1580Y473D01*
X2070Y473D02*
X2077Y473D01*
X0Y472D02*
X7Y472D01*
X1342Y472D02*
X1360Y472D01*
X1371Y472D02*
X1376Y472D01*
X1542Y472D02*
X1551Y472D01*
X2070Y472D02*
X2077Y472D01*
X0Y471D02*
X7Y471D01*
X1343Y471D02*
X1359Y471D01*
X1370Y471D02*
X1376Y471D01*
X1543Y471D02*
X1552Y471D01*
X2070Y471D02*
X2077Y471D01*
X0Y470D02*
X7Y470D01*
X1344Y470D02*
X1358Y470D01*
X1369Y470D02*
X1376Y470D01*
X1544Y470D02*
X1553Y470D01*
X2070Y470D02*
X2077Y470D01*
X0Y469D02*
X7Y469D01*
X1345Y469D02*
X1357Y469D01*
X1368Y469D02*
X1376Y469D01*
X1545Y469D02*
X1554Y469D01*
X2070Y469D02*
X2077Y469D01*
X0Y468D02*
X7Y468D01*
X1346Y468D02*
X1356Y468D01*
X1367Y468D02*
X1375Y468D01*
X1546Y468D02*
X1555Y468D01*
X2070Y468D02*
X2077Y468D01*
X0Y467D02*
X7Y467D01*
X1347Y467D02*
X1356Y467D01*
X1366Y467D02*
X1375Y467D01*
X1547Y467D02*
X1556Y467D01*
X2070Y467D02*
X2077Y467D01*
X0Y466D02*
X7Y466D01*
X1348Y466D02*
X1357Y466D01*
X1365Y466D02*
X1374Y466D01*
X1548Y466D02*
X1557Y466D01*
X2070Y466D02*
X2077Y466D01*
X0Y465D02*
X7Y465D01*
X1349Y465D02*
X1358Y465D01*
X1364Y465D02*
X1373Y465D01*
X1549Y465D02*
X1558Y465D01*
X2070Y465D02*
X2077Y465D01*
X0Y464D02*
X7Y464D01*
X521Y464D02*
X910Y464D01*
X1021Y464D02*
X1109Y464D01*
X1166Y464D02*
X1423Y464D01*
X1550Y464D02*
X1559Y464D01*
X2070Y464D02*
X2077Y464D01*
X0Y463D02*
X7Y463D01*
X521Y463D02*
X911Y463D01*
X1021Y463D02*
X1111Y463D01*
X1164Y463D02*
X1423Y463D01*
X1551Y463D02*
X1560Y463D01*
X2070Y463D02*
X2077Y463D01*
X0Y462D02*
X7Y462D01*
X521Y462D02*
X912Y462D01*
X1021Y462D02*
X1112Y462D01*
X1163Y462D02*
X1423Y462D01*
X1552Y462D02*
X1561Y462D01*
X2070Y462D02*
X2077Y462D01*
X0Y461D02*
X7Y461D01*
X521Y461D02*
X914Y461D01*
X1021Y461D02*
X1113Y461D01*
X1162Y461D02*
X1423Y461D01*
X1553Y461D02*
X1562Y461D01*
X2070Y461D02*
X2077Y461D01*
X0Y460D02*
X7Y460D01*
X521Y460D02*
X915Y460D01*
X1021Y460D02*
X1115Y460D01*
X1160Y460D02*
X1423Y460D01*
X1554Y460D02*
X1563Y460D01*
X2070Y460D02*
X2077Y460D01*
X0Y459D02*
X7Y459D01*
X521Y459D02*
X917Y459D01*
X1021Y459D02*
X1117Y459D01*
X1158Y459D02*
X1423Y459D01*
X1555Y459D02*
X1564Y459D01*
X2070Y459D02*
X2077Y459D01*
X0Y458D02*
X7Y458D01*
X521Y458D02*
X919Y458D01*
X1021Y458D02*
X1119Y458D01*
X1156Y458D02*
X1423Y458D01*
X1556Y458D02*
X1564Y458D01*
X2070Y458D02*
X2077Y458D01*
X0Y457D02*
X7Y457D01*
X521Y457D02*
X921Y457D01*
X1021Y457D02*
X1121Y457D01*
X1154Y457D02*
X1423Y457D01*
X1557Y457D02*
X1564Y457D01*
X2070Y457D02*
X2077Y457D01*
X0Y456D02*
X7Y456D01*
X521Y456D02*
X924Y456D01*
X1021Y456D02*
X1124Y456D01*
X1151Y456D02*
X1423Y456D01*
X1558Y456D02*
X1563Y456D01*
X2070Y456D02*
X2077Y456D01*
X0Y455D02*
X7Y455D01*
X521Y455D02*
X927Y455D01*
X1021Y455D02*
X1127Y455D01*
X1148Y455D02*
X1423Y455D01*
X1559Y455D02*
X1562Y455D01*
X2070Y455D02*
X2077Y455D01*
X0Y454D02*
X7Y454D01*
X919Y454D02*
X928Y454D01*
X2070Y454D02*
X2077Y454D01*
X0Y453D02*
X7Y453D01*
X919Y453D02*
X928Y453D01*
X2070Y453D02*
X2077Y453D01*
X0Y452D02*
X7Y452D01*
X919Y452D02*
X928Y452D01*
X2070Y452D02*
X2077Y452D01*
X0Y451D02*
X7Y451D01*
X919Y451D02*
X928Y451D01*
X2070Y451D02*
X2077Y451D01*
X0Y450D02*
X7Y450D01*
X919Y450D02*
X928Y450D01*
X2070Y450D02*
X2077Y450D01*
X0Y449D02*
X7Y449D01*
X919Y449D02*
X928Y449D01*
X2070Y449D02*
X2077Y449D01*
X0Y448D02*
X7Y448D01*
X919Y448D02*
X928Y448D01*
X2070Y448D02*
X2077Y448D01*
X0Y447D02*
X7Y447D01*
X919Y447D02*
X928Y447D01*
X2070Y447D02*
X2077Y447D01*
X0Y446D02*
X7Y446D01*
X919Y446D02*
X928Y446D01*
X2070Y446D02*
X2077Y446D01*
X0Y445D02*
X7Y445D01*
X919Y445D02*
X928Y445D01*
X2070Y445D02*
X2077Y445D01*
X0Y444D02*
X7Y444D01*
X919Y444D02*
X928Y444D01*
X2070Y444D02*
X2077Y444D01*
X0Y443D02*
X7Y443D01*
X919Y443D02*
X928Y443D01*
X2070Y443D02*
X2077Y443D01*
X0Y442D02*
X7Y442D01*
X919Y442D02*
X928Y442D01*
X2070Y442D02*
X2077Y442D01*
X0Y441D02*
X7Y441D01*
X919Y441D02*
X928Y441D01*
X2070Y441D02*
X2077Y441D01*
X0Y440D02*
X7Y440D01*
X919Y440D02*
X928Y440D01*
X2070Y440D02*
X2077Y440D01*
X0Y439D02*
X7Y439D01*
X919Y439D02*
X928Y439D01*
X2070Y439D02*
X2077Y439D01*
X0Y438D02*
X7Y438D01*
X919Y438D02*
X928Y438D01*
X2070Y438D02*
X2077Y438D01*
X0Y437D02*
X7Y437D01*
X919Y437D02*
X928Y437D01*
X2070Y437D02*
X2077Y437D01*
X0Y436D02*
X7Y436D01*
X919Y436D02*
X928Y436D01*
X2070Y436D02*
X2077Y436D01*
X0Y435D02*
X7Y435D01*
X919Y435D02*
X928Y435D01*
X2070Y435D02*
X2077Y435D01*
X0Y434D02*
X7Y434D01*
X919Y434D02*
X928Y434D01*
X2070Y434D02*
X2077Y434D01*
X0Y433D02*
X7Y433D01*
X919Y433D02*
X928Y433D01*
X2070Y433D02*
X2077Y433D01*
X0Y432D02*
X7Y432D01*
X919Y432D02*
X928Y432D01*
X2070Y432D02*
X2077Y432D01*
X0Y431D02*
X7Y431D01*
X919Y431D02*
X928Y431D01*
X2070Y431D02*
X2077Y431D01*
X0Y430D02*
X7Y430D01*
X919Y430D02*
X928Y430D01*
X2070Y430D02*
X2077Y430D01*
X0Y429D02*
X7Y429D01*
X919Y429D02*
X928Y429D01*
X2070Y429D02*
X2077Y429D01*
X0Y428D02*
X7Y428D01*
X919Y428D02*
X928Y428D01*
X2070Y428D02*
X2077Y428D01*
X0Y427D02*
X7Y427D01*
X919Y427D02*
X928Y427D01*
X2070Y427D02*
X2077Y427D01*
X0Y426D02*
X7Y426D01*
X919Y426D02*
X928Y426D01*
X2070Y426D02*
X2077Y426D01*
X0Y425D02*
X7Y425D01*
X919Y425D02*
X928Y425D01*
X2070Y425D02*
X2077Y425D01*
X0Y424D02*
X7Y424D01*
X919Y424D02*
X928Y424D01*
X2070Y424D02*
X2077Y424D01*
X0Y423D02*
X7Y423D01*
X919Y423D02*
X928Y423D01*
X2070Y423D02*
X2077Y423D01*
X0Y422D02*
X7Y422D01*
X919Y422D02*
X928Y422D01*
X2070Y422D02*
X2077Y422D01*
X0Y421D02*
X7Y421D01*
X919Y421D02*
X928Y421D01*
X2070Y421D02*
X2077Y421D01*
X0Y420D02*
X7Y420D01*
X919Y420D02*
X928Y420D01*
X2070Y420D02*
X2077Y420D01*
X0Y419D02*
X7Y419D01*
X919Y419D02*
X928Y419D01*
X2070Y419D02*
X2077Y419D01*
X0Y418D02*
X7Y418D01*
X919Y418D02*
X928Y418D01*
X2070Y418D02*
X2077Y418D01*
X0Y417D02*
X7Y417D01*
X919Y417D02*
X928Y417D01*
X2070Y417D02*
X2077Y417D01*
X0Y416D02*
X7Y416D01*
X919Y416D02*
X928Y416D01*
X2070Y416D02*
X2077Y416D01*
X0Y415D02*
X7Y415D01*
X919Y415D02*
X928Y415D01*
X2070Y415D02*
X2077Y415D01*
X0Y414D02*
X7Y414D01*
X919Y414D02*
X928Y414D01*
X2070Y414D02*
X2077Y414D01*
X0Y413D02*
X7Y413D01*
X919Y413D02*
X928Y413D01*
X2070Y413D02*
X2077Y413D01*
X0Y412D02*
X7Y412D01*
X919Y412D02*
X928Y412D01*
X2070Y412D02*
X2077Y412D01*
X0Y411D02*
X7Y411D01*
X919Y411D02*
X928Y411D01*
X2070Y411D02*
X2077Y411D01*
X0Y410D02*
X7Y410D01*
X919Y410D02*
X928Y410D01*
X2070Y410D02*
X2077Y410D01*
X0Y409D02*
X7Y409D01*
X919Y409D02*
X928Y409D01*
X2070Y409D02*
X2077Y409D01*
X0Y408D02*
X7Y408D01*
X919Y408D02*
X928Y408D01*
X2070Y408D02*
X2077Y408D01*
X0Y407D02*
X7Y407D01*
X919Y407D02*
X928Y407D01*
X2070Y407D02*
X2077Y407D01*
X0Y406D02*
X7Y406D01*
X919Y406D02*
X928Y406D01*
X2070Y406D02*
X2077Y406D01*
X0Y405D02*
X7Y405D01*
X919Y405D02*
X928Y405D01*
X2070Y405D02*
X2077Y405D01*
X0Y404D02*
X7Y404D01*
X919Y404D02*
X928Y404D01*
X2070Y404D02*
X2077Y404D01*
X0Y403D02*
X7Y403D01*
X919Y403D02*
X928Y403D01*
X2070Y403D02*
X2077Y403D01*
X0Y402D02*
X7Y402D01*
X919Y402D02*
X928Y402D01*
X2070Y402D02*
X2077Y402D01*
X0Y401D02*
X7Y401D01*
X919Y401D02*
X928Y401D01*
X2070Y401D02*
X2077Y401D01*
X0Y400D02*
X7Y400D01*
X919Y400D02*
X928Y400D01*
X2070Y400D02*
X2077Y400D01*
X0Y399D02*
X7Y399D01*
X919Y399D02*
X928Y399D01*
X2070Y399D02*
X2077Y399D01*
X0Y398D02*
X7Y398D01*
X919Y398D02*
X928Y398D01*
X2070Y398D02*
X2077Y398D01*
X0Y397D02*
X7Y397D01*
X919Y397D02*
X928Y397D01*
X2070Y397D02*
X2077Y397D01*
X0Y396D02*
X7Y396D01*
X919Y396D02*
X928Y396D01*
X2070Y396D02*
X2077Y396D01*
X0Y395D02*
X7Y395D01*
X919Y395D02*
X928Y395D01*
X2070Y395D02*
X2077Y395D01*
X0Y394D02*
X7Y394D01*
X919Y394D02*
X928Y394D01*
X2070Y394D02*
X2077Y394D01*
X0Y393D02*
X7Y393D01*
X919Y393D02*
X928Y393D01*
X2070Y393D02*
X2077Y393D01*
X0Y392D02*
X7Y392D01*
X919Y392D02*
X928Y392D01*
X2070Y392D02*
X2077Y392D01*
X0Y391D02*
X7Y391D01*
X919Y391D02*
X928Y391D01*
X2070Y391D02*
X2077Y391D01*
X0Y390D02*
X7Y390D01*
X919Y390D02*
X928Y390D01*
X2070Y390D02*
X2077Y390D01*
X0Y389D02*
X7Y389D01*
X919Y389D02*
X928Y389D01*
X2070Y389D02*
X2077Y389D01*
X0Y388D02*
X7Y388D01*
X919Y388D02*
X928Y388D01*
X2070Y388D02*
X2077Y388D01*
X0Y387D02*
X7Y387D01*
X919Y387D02*
X928Y387D01*
X2070Y387D02*
X2077Y387D01*
X0Y386D02*
X7Y386D01*
X919Y386D02*
X928Y386D01*
X2070Y386D02*
X2077Y386D01*
X0Y385D02*
X7Y385D01*
X919Y385D02*
X928Y385D01*
X2070Y385D02*
X2077Y385D01*
X0Y384D02*
X7Y384D01*
X919Y384D02*
X928Y384D01*
X2070Y384D02*
X2077Y384D01*
X0Y383D02*
X7Y383D01*
X919Y383D02*
X928Y383D01*
X2070Y383D02*
X2077Y383D01*
X0Y382D02*
X7Y382D01*
X919Y382D02*
X928Y382D01*
X2070Y382D02*
X2077Y382D01*
X0Y381D02*
X7Y381D01*
X919Y381D02*
X928Y381D01*
X2070Y381D02*
X2077Y381D01*
X0Y380D02*
X7Y380D01*
X919Y380D02*
X928Y380D01*
X2070Y380D02*
X2077Y380D01*
X0Y379D02*
X7Y379D01*
X919Y379D02*
X928Y379D01*
X2070Y379D02*
X2077Y379D01*
X0Y378D02*
X7Y378D01*
X919Y378D02*
X928Y378D01*
X2070Y378D02*
X2077Y378D01*
X0Y377D02*
X7Y377D01*
X919Y377D02*
X928Y377D01*
X2070Y377D02*
X2077Y377D01*
X0Y376D02*
X7Y376D01*
X919Y376D02*
X928Y376D01*
X2070Y376D02*
X2077Y376D01*
X0Y375D02*
X7Y375D01*
X919Y375D02*
X928Y375D01*
X2070Y375D02*
X2077Y375D01*
X0Y374D02*
X7Y374D01*
X919Y374D02*
X928Y374D01*
X2070Y374D02*
X2077Y374D01*
X0Y373D02*
X7Y373D01*
X919Y373D02*
X928Y373D01*
X2070Y373D02*
X2077Y373D01*
X0Y372D02*
X7Y372D01*
X919Y372D02*
X928Y372D01*
X2070Y372D02*
X2077Y372D01*
X0Y371D02*
X7Y371D01*
X919Y371D02*
X928Y371D01*
X2070Y371D02*
X2077Y371D01*
X0Y370D02*
X7Y370D01*
X919Y370D02*
X928Y370D01*
X2070Y370D02*
X2077Y370D01*
X0Y369D02*
X7Y369D01*
X919Y369D02*
X928Y369D01*
X2070Y369D02*
X2077Y369D01*
X0Y368D02*
X7Y368D01*
X919Y368D02*
X928Y368D01*
X2070Y368D02*
X2077Y368D01*
X0Y367D02*
X7Y367D01*
X919Y367D02*
X928Y367D01*
X2070Y367D02*
X2077Y367D01*
X0Y366D02*
X7Y366D01*
X919Y366D02*
X928Y366D01*
X2070Y366D02*
X2077Y366D01*
X0Y365D02*
X7Y365D01*
X919Y365D02*
X928Y365D01*
X2070Y365D02*
X2077Y365D01*
X0Y364D02*
X7Y364D01*
X919Y364D02*
X928Y364D01*
X2070Y364D02*
X2077Y364D01*
X0Y363D02*
X7Y363D01*
X919Y363D02*
X928Y363D01*
X2070Y363D02*
X2077Y363D01*
X0Y362D02*
X7Y362D01*
X919Y362D02*
X928Y362D01*
X2070Y362D02*
X2077Y362D01*
X0Y361D02*
X7Y361D01*
X919Y361D02*
X928Y361D01*
X2070Y361D02*
X2077Y361D01*
X0Y360D02*
X7Y360D01*
X919Y360D02*
X928Y360D01*
X2070Y360D02*
X2077Y360D01*
X0Y359D02*
X7Y359D01*
X919Y359D02*
X928Y359D01*
X2070Y359D02*
X2077Y359D01*
X0Y358D02*
X7Y358D01*
X919Y358D02*
X928Y358D01*
X2070Y358D02*
X2077Y358D01*
X0Y357D02*
X7Y357D01*
X919Y357D02*
X928Y357D01*
X2070Y357D02*
X2077Y357D01*
X0Y356D02*
X7Y356D01*
X919Y356D02*
X928Y356D01*
X2070Y356D02*
X2077Y356D01*
X0Y355D02*
X7Y355D01*
X919Y355D02*
X928Y355D01*
X2070Y355D02*
X2077Y355D01*
X0Y354D02*
X7Y354D01*
X919Y354D02*
X928Y354D01*
X2070Y354D02*
X2077Y354D01*
X0Y353D02*
X7Y353D01*
X919Y353D02*
X928Y353D01*
X2070Y353D02*
X2077Y353D01*
X0Y352D02*
X7Y352D01*
X919Y352D02*
X928Y352D01*
X2070Y352D02*
X2077Y352D01*
X0Y351D02*
X7Y351D01*
X919Y351D02*
X928Y351D01*
X2070Y351D02*
X2077Y351D01*
X0Y350D02*
X7Y350D01*
X919Y350D02*
X928Y350D01*
X2070Y350D02*
X2077Y350D01*
X0Y349D02*
X7Y349D01*
X919Y349D02*
X928Y349D01*
X2070Y349D02*
X2077Y349D01*
X0Y348D02*
X7Y348D01*
X919Y348D02*
X928Y348D01*
X2070Y348D02*
X2077Y348D01*
X0Y347D02*
X7Y347D01*
X919Y347D02*
X928Y347D01*
X2070Y347D02*
X2077Y347D01*
X0Y346D02*
X7Y346D01*
X919Y346D02*
X928Y346D01*
X2070Y346D02*
X2077Y346D01*
X0Y345D02*
X7Y345D01*
X919Y345D02*
X928Y345D01*
X2070Y345D02*
X2077Y345D01*
X0Y344D02*
X7Y344D01*
X919Y344D02*
X928Y344D01*
X2070Y344D02*
X2077Y344D01*
X0Y343D02*
X7Y343D01*
X919Y343D02*
X928Y343D01*
X2070Y343D02*
X2077Y343D01*
X0Y342D02*
X7Y342D01*
X919Y342D02*
X928Y342D01*
X2070Y342D02*
X2077Y342D01*
X0Y341D02*
X7Y341D01*
X919Y341D02*
X928Y341D01*
X2070Y341D02*
X2077Y341D01*
X0Y340D02*
X7Y340D01*
X919Y340D02*
X928Y340D01*
X2070Y340D02*
X2077Y340D01*
X0Y339D02*
X7Y339D01*
X919Y339D02*
X928Y339D01*
X2070Y339D02*
X2077Y339D01*
X0Y338D02*
X7Y338D01*
X919Y338D02*
X928Y338D01*
X2070Y338D02*
X2077Y338D01*
X0Y337D02*
X7Y337D01*
X919Y337D02*
X928Y337D01*
X2070Y337D02*
X2077Y337D01*
X0Y336D02*
X7Y336D01*
X919Y336D02*
X928Y336D01*
X2070Y336D02*
X2077Y336D01*
X0Y335D02*
X7Y335D01*
X919Y335D02*
X928Y335D01*
X2070Y335D02*
X2077Y335D01*
X0Y334D02*
X7Y334D01*
X919Y334D02*
X928Y334D01*
X2070Y334D02*
X2077Y334D01*
X0Y333D02*
X7Y333D01*
X919Y333D02*
X928Y333D01*
X2070Y333D02*
X2077Y333D01*
X0Y332D02*
X7Y332D01*
X919Y332D02*
X928Y332D01*
X2070Y332D02*
X2077Y332D01*
X0Y331D02*
X7Y331D01*
X919Y331D02*
X928Y331D01*
X2070Y331D02*
X2077Y331D01*
X0Y330D02*
X7Y330D01*
X919Y330D02*
X928Y330D01*
X2070Y330D02*
X2077Y330D01*
X0Y329D02*
X7Y329D01*
X919Y329D02*
X928Y329D01*
X2070Y329D02*
X2077Y329D01*
X0Y328D02*
X7Y328D01*
X919Y328D02*
X928Y328D01*
X2070Y328D02*
X2077Y328D01*
X0Y327D02*
X7Y327D01*
X919Y327D02*
X928Y327D01*
X2070Y327D02*
X2077Y327D01*
X0Y326D02*
X7Y326D01*
X919Y326D02*
X928Y326D01*
X2070Y326D02*
X2077Y326D01*
X0Y325D02*
X7Y325D01*
X919Y325D02*
X928Y325D01*
X2070Y325D02*
X2077Y325D01*
X0Y324D02*
X7Y324D01*
X919Y324D02*
X928Y324D01*
X2070Y324D02*
X2077Y324D01*
X0Y323D02*
X7Y323D01*
X919Y323D02*
X928Y323D01*
X2070Y323D02*
X2077Y323D01*
X0Y322D02*
X7Y322D01*
X919Y322D02*
X928Y322D01*
X2070Y322D02*
X2077Y322D01*
X0Y321D02*
X7Y321D01*
X919Y321D02*
X928Y321D01*
X2070Y321D02*
X2077Y321D01*
X0Y320D02*
X7Y320D01*
X919Y320D02*
X928Y320D01*
X2070Y320D02*
X2077Y320D01*
X0Y319D02*
X7Y319D01*
X919Y319D02*
X928Y319D01*
X2070Y319D02*
X2077Y319D01*
X0Y318D02*
X7Y318D01*
X919Y318D02*
X928Y318D01*
X2070Y318D02*
X2077Y318D01*
X0Y317D02*
X7Y317D01*
X919Y317D02*
X928Y317D01*
X2070Y317D02*
X2077Y317D01*
X0Y316D02*
X7Y316D01*
X919Y316D02*
X928Y316D01*
X2070Y316D02*
X2077Y316D01*
X0Y315D02*
X7Y315D01*
X919Y315D02*
X928Y315D01*
X2070Y315D02*
X2077Y315D01*
X0Y314D02*
X7Y314D01*
X919Y314D02*
X928Y314D01*
X2070Y314D02*
X2077Y314D01*
X0Y313D02*
X7Y313D01*
X919Y313D02*
X928Y313D01*
X2070Y313D02*
X2077Y313D01*
X0Y312D02*
X7Y312D01*
X919Y312D02*
X928Y312D01*
X2070Y312D02*
X2077Y312D01*
X0Y311D02*
X7Y311D01*
X919Y311D02*
X928Y311D01*
X2070Y311D02*
X2077Y311D01*
X0Y310D02*
X7Y310D01*
X919Y310D02*
X928Y310D01*
X2070Y310D02*
X2077Y310D01*
X0Y309D02*
X7Y309D01*
X919Y309D02*
X928Y309D01*
X2070Y309D02*
X2077Y309D01*
X0Y308D02*
X7Y308D01*
X919Y308D02*
X928Y308D01*
X2070Y308D02*
X2077Y308D01*
X0Y307D02*
X7Y307D01*
X919Y307D02*
X928Y307D01*
X2070Y307D02*
X2077Y307D01*
X0Y306D02*
X7Y306D01*
X919Y306D02*
X928Y306D01*
X2070Y306D02*
X2077Y306D01*
X0Y305D02*
X7Y305D01*
X919Y305D02*
X928Y305D01*
X2070Y305D02*
X2077Y305D01*
X0Y304D02*
X7Y304D01*
X919Y304D02*
X928Y304D01*
X2070Y304D02*
X2077Y304D01*
X0Y303D02*
X7Y303D01*
X919Y303D02*
X928Y303D01*
X2070Y303D02*
X2077Y303D01*
X0Y302D02*
X7Y302D01*
X919Y302D02*
X928Y302D01*
X2070Y302D02*
X2077Y302D01*
X0Y301D02*
X7Y301D01*
X919Y301D02*
X928Y301D01*
X2070Y301D02*
X2077Y301D01*
X0Y300D02*
X7Y300D01*
X919Y300D02*
X928Y300D01*
X2070Y300D02*
X2077Y300D01*
X0Y299D02*
X7Y299D01*
X919Y299D02*
X928Y299D01*
X2070Y299D02*
X2077Y299D01*
X0Y298D02*
X7Y298D01*
X919Y298D02*
X928Y298D01*
X2070Y298D02*
X2077Y298D01*
X0Y297D02*
X7Y297D01*
X919Y297D02*
X928Y297D01*
X2070Y297D02*
X2077Y297D01*
X0Y296D02*
X7Y296D01*
X919Y296D02*
X928Y296D01*
X2070Y296D02*
X2077Y296D01*
X0Y295D02*
X7Y295D01*
X919Y295D02*
X928Y295D01*
X2070Y295D02*
X2077Y295D01*
X0Y294D02*
X7Y294D01*
X919Y294D02*
X928Y294D01*
X2070Y294D02*
X2077Y294D01*
X0Y293D02*
X7Y293D01*
X919Y293D02*
X928Y293D01*
X2070Y293D02*
X2077Y293D01*
X0Y292D02*
X7Y292D01*
X919Y292D02*
X928Y292D01*
X2070Y292D02*
X2077Y292D01*
X0Y291D02*
X7Y291D01*
X919Y291D02*
X928Y291D01*
X2070Y291D02*
X2077Y291D01*
X0Y290D02*
X7Y290D01*
X919Y290D02*
X928Y290D01*
X2070Y290D02*
X2077Y290D01*
X0Y289D02*
X7Y289D01*
X919Y289D02*
X928Y289D01*
X2070Y289D02*
X2077Y289D01*
X0Y288D02*
X7Y288D01*
X919Y288D02*
X928Y288D01*
X2070Y288D02*
X2077Y288D01*
X0Y287D02*
X7Y287D01*
X919Y287D02*
X928Y287D01*
X2070Y287D02*
X2077Y287D01*
X0Y286D02*
X7Y286D01*
X919Y286D02*
X928Y286D01*
X2070Y286D02*
X2077Y286D01*
X0Y285D02*
X7Y285D01*
X919Y285D02*
X928Y285D01*
X2070Y285D02*
X2077Y285D01*
X0Y284D02*
X7Y284D01*
X919Y284D02*
X928Y284D01*
X2070Y284D02*
X2077Y284D01*
X0Y283D02*
X7Y283D01*
X919Y283D02*
X928Y283D01*
X2070Y283D02*
X2077Y283D01*
X0Y282D02*
X7Y282D01*
X919Y282D02*
X928Y282D01*
X2070Y282D02*
X2077Y282D01*
X0Y281D02*
X7Y281D01*
X919Y281D02*
X928Y281D01*
X2070Y281D02*
X2077Y281D01*
X0Y280D02*
X7Y280D01*
X919Y280D02*
X928Y280D01*
X2070Y280D02*
X2077Y280D01*
X0Y279D02*
X7Y279D01*
X919Y279D02*
X928Y279D01*
X2070Y279D02*
X2077Y279D01*
X0Y278D02*
X7Y278D01*
X919Y278D02*
X928Y278D01*
X2070Y278D02*
X2077Y278D01*
X0Y277D02*
X7Y277D01*
X919Y277D02*
X928Y277D01*
X2070Y277D02*
X2077Y277D01*
X0Y276D02*
X7Y276D01*
X919Y276D02*
X928Y276D01*
X2070Y276D02*
X2077Y276D01*
X0Y275D02*
X7Y275D01*
X919Y275D02*
X928Y275D01*
X2070Y275D02*
X2077Y275D01*
X0Y274D02*
X7Y274D01*
X919Y274D02*
X928Y274D01*
X2070Y274D02*
X2077Y274D01*
X0Y273D02*
X7Y273D01*
X919Y273D02*
X928Y273D01*
X2070Y273D02*
X2077Y273D01*
X0Y272D02*
X7Y272D01*
X919Y272D02*
X928Y272D01*
X2070Y272D02*
X2077Y272D01*
X0Y271D02*
X7Y271D01*
X919Y271D02*
X928Y271D01*
X2070Y271D02*
X2077Y271D01*
X0Y270D02*
X7Y270D01*
X919Y270D02*
X928Y270D01*
X2070Y270D02*
X2077Y270D01*
X0Y269D02*
X7Y269D01*
X919Y269D02*
X928Y269D01*
X2070Y269D02*
X2077Y269D01*
X0Y268D02*
X7Y268D01*
X919Y268D02*
X928Y268D01*
X2070Y268D02*
X2077Y268D01*
X0Y267D02*
X7Y267D01*
X919Y267D02*
X928Y267D01*
X2070Y267D02*
X2077Y267D01*
X0Y266D02*
X7Y266D01*
X919Y266D02*
X928Y266D01*
X2070Y266D02*
X2077Y266D01*
X0Y265D02*
X7Y265D01*
X919Y265D02*
X928Y265D01*
X2070Y265D02*
X2077Y265D01*
X0Y264D02*
X7Y264D01*
X919Y264D02*
X928Y264D01*
X2070Y264D02*
X2077Y264D01*
X0Y263D02*
X7Y263D01*
X919Y263D02*
X928Y263D01*
X2070Y263D02*
X2077Y263D01*
X0Y262D02*
X7Y262D01*
X919Y262D02*
X928Y262D01*
X2070Y262D02*
X2077Y262D01*
X0Y261D02*
X7Y261D01*
X919Y261D02*
X928Y261D01*
X2070Y261D02*
X2077Y261D01*
X0Y260D02*
X7Y260D01*
X919Y260D02*
X928Y260D01*
X2070Y260D02*
X2077Y260D01*
X0Y259D02*
X7Y259D01*
X919Y259D02*
X928Y259D01*
X2070Y259D02*
X2077Y259D01*
X0Y258D02*
X7Y258D01*
X919Y258D02*
X928Y258D01*
X2070Y258D02*
X2077Y258D01*
X0Y257D02*
X7Y257D01*
X919Y257D02*
X928Y257D01*
X2070Y257D02*
X2077Y257D01*
X0Y256D02*
X7Y256D01*
X919Y256D02*
X928Y256D01*
X2070Y256D02*
X2077Y256D01*
X0Y255D02*
X7Y255D01*
X919Y255D02*
X928Y255D01*
X2070Y255D02*
X2077Y255D01*
X0Y254D02*
X7Y254D01*
X919Y254D02*
X928Y254D01*
X2070Y254D02*
X2077Y254D01*
X0Y253D02*
X7Y253D01*
X919Y253D02*
X928Y253D01*
X2070Y253D02*
X2077Y253D01*
X0Y252D02*
X7Y252D01*
X919Y252D02*
X928Y252D01*
X2070Y252D02*
X2077Y252D01*
X0Y251D02*
X7Y251D01*
X919Y251D02*
X928Y251D01*
X2070Y251D02*
X2077Y251D01*
X0Y250D02*
X7Y250D01*
X919Y250D02*
X928Y250D01*
X2070Y250D02*
X2077Y250D01*
X0Y249D02*
X7Y249D01*
X919Y249D02*
X928Y249D01*
X2070Y249D02*
X2077Y249D01*
X0Y248D02*
X7Y248D01*
X919Y248D02*
X928Y248D01*
X2070Y248D02*
X2077Y248D01*
X0Y247D02*
X7Y247D01*
X919Y247D02*
X928Y247D01*
X2070Y247D02*
X2077Y247D01*
X0Y246D02*
X7Y246D01*
X919Y246D02*
X928Y246D01*
X2070Y246D02*
X2077Y246D01*
X0Y245D02*
X7Y245D01*
X919Y245D02*
X928Y245D01*
X2070Y245D02*
X2077Y245D01*
X0Y244D02*
X7Y244D01*
X919Y244D02*
X928Y244D01*
X2070Y244D02*
X2077Y244D01*
X0Y243D02*
X7Y243D01*
X919Y243D02*
X928Y243D01*
X2070Y243D02*
X2077Y243D01*
X0Y242D02*
X7Y242D01*
X919Y242D02*
X928Y242D01*
X2070Y242D02*
X2077Y242D01*
X0Y241D02*
X7Y241D01*
X919Y241D02*
X928Y241D01*
X2070Y241D02*
X2077Y241D01*
X0Y240D02*
X7Y240D01*
X919Y240D02*
X928Y240D01*
X2070Y240D02*
X2077Y240D01*
X0Y239D02*
X7Y239D01*
X919Y239D02*
X928Y239D01*
X2070Y239D02*
X2077Y239D01*
X0Y238D02*
X7Y238D01*
X919Y238D02*
X928Y238D01*
X2070Y238D02*
X2077Y238D01*
X0Y237D02*
X7Y237D01*
X919Y237D02*
X928Y237D01*
X2070Y237D02*
X2077Y237D01*
X0Y236D02*
X7Y236D01*
X919Y236D02*
X928Y236D01*
X2070Y236D02*
X2077Y236D01*
X0Y235D02*
X7Y235D01*
X919Y235D02*
X928Y235D01*
X2070Y235D02*
X2077Y235D01*
X0Y234D02*
X7Y234D01*
X919Y234D02*
X928Y234D01*
X2070Y234D02*
X2077Y234D01*
X0Y233D02*
X7Y233D01*
X919Y233D02*
X928Y233D01*
X2070Y233D02*
X2077Y233D01*
X0Y232D02*
X7Y232D01*
X919Y232D02*
X928Y232D01*
X2070Y232D02*
X2077Y232D01*
X0Y231D02*
X7Y231D01*
X919Y231D02*
X928Y231D01*
X2070Y231D02*
X2077Y231D01*
X0Y230D02*
X7Y230D01*
X919Y230D02*
X928Y230D01*
X2070Y230D02*
X2077Y230D01*
X0Y229D02*
X7Y229D01*
X919Y229D02*
X928Y229D01*
X2070Y229D02*
X2077Y229D01*
X0Y228D02*
X7Y228D01*
X919Y228D02*
X928Y228D01*
X2070Y228D02*
X2077Y228D01*
X0Y227D02*
X7Y227D01*
X919Y227D02*
X928Y227D01*
X2070Y227D02*
X2077Y227D01*
X0Y226D02*
X7Y226D01*
X919Y226D02*
X928Y226D01*
X2070Y226D02*
X2077Y226D01*
X0Y225D02*
X7Y225D01*
X919Y225D02*
X928Y225D01*
X2070Y225D02*
X2077Y225D01*
X0Y224D02*
X7Y224D01*
X919Y224D02*
X928Y224D01*
X2070Y224D02*
X2077Y224D01*
X0Y223D02*
X7Y223D01*
X919Y223D02*
X928Y223D01*
X2070Y223D02*
X2077Y223D01*
X0Y222D02*
X7Y222D01*
X919Y222D02*
X928Y222D01*
X2070Y222D02*
X2077Y222D01*
X0Y221D02*
X7Y221D01*
X919Y221D02*
X928Y221D01*
X2070Y221D02*
X2077Y221D01*
X0Y220D02*
X7Y220D01*
X919Y220D02*
X928Y220D01*
X2070Y220D02*
X2077Y220D01*
X0Y219D02*
X7Y219D01*
X919Y219D02*
X928Y219D01*
X2070Y219D02*
X2077Y219D01*
X0Y218D02*
X7Y218D01*
X919Y218D02*
X928Y218D01*
X2070Y218D02*
X2077Y218D01*
X0Y217D02*
X7Y217D01*
X919Y217D02*
X928Y217D01*
X2070Y217D02*
X2077Y217D01*
X0Y216D02*
X7Y216D01*
X919Y216D02*
X928Y216D01*
X2070Y216D02*
X2077Y216D01*
X0Y215D02*
X7Y215D01*
X919Y215D02*
X928Y215D01*
X2070Y215D02*
X2077Y215D01*
X0Y214D02*
X7Y214D01*
X919Y214D02*
X928Y214D01*
X2070Y214D02*
X2077Y214D01*
X0Y213D02*
X7Y213D01*
X919Y213D02*
X928Y213D01*
X2070Y213D02*
X2077Y213D01*
X0Y212D02*
X7Y212D01*
X919Y212D02*
X928Y212D01*
X2070Y212D02*
X2077Y212D01*
X0Y211D02*
X7Y211D01*
X919Y211D02*
X928Y211D01*
X2070Y211D02*
X2077Y211D01*
X0Y210D02*
X7Y210D01*
X919Y210D02*
X928Y210D01*
X2070Y210D02*
X2077Y210D01*
X0Y209D02*
X7Y209D01*
X919Y209D02*
X928Y209D01*
X2070Y209D02*
X2077Y209D01*
X0Y208D02*
X7Y208D01*
X919Y208D02*
X928Y208D01*
X2070Y208D02*
X2077Y208D01*
X0Y207D02*
X7Y207D01*
X919Y207D02*
X928Y207D01*
X2070Y207D02*
X2077Y207D01*
X0Y206D02*
X7Y206D01*
X919Y206D02*
X928Y206D01*
X2070Y206D02*
X2077Y206D01*
X0Y205D02*
X7Y205D01*
X919Y205D02*
X928Y205D01*
X2070Y205D02*
X2077Y205D01*
X0Y204D02*
X7Y204D01*
X919Y204D02*
X928Y204D01*
X2070Y204D02*
X2077Y204D01*
X0Y203D02*
X7Y203D01*
X919Y203D02*
X928Y203D01*
X2070Y203D02*
X2077Y203D01*
X0Y202D02*
X7Y202D01*
X919Y202D02*
X928Y202D01*
X2070Y202D02*
X2077Y202D01*
X0Y201D02*
X7Y201D01*
X919Y201D02*
X928Y201D01*
X2070Y201D02*
X2077Y201D01*
X0Y200D02*
X7Y200D01*
X919Y200D02*
X928Y200D01*
X2070Y200D02*
X2077Y200D01*
X0Y199D02*
X7Y199D01*
X919Y199D02*
X928Y199D01*
X2070Y199D02*
X2077Y199D01*
X0Y198D02*
X7Y198D01*
X919Y198D02*
X928Y198D01*
X2070Y198D02*
X2077Y198D01*
X0Y197D02*
X7Y197D01*
X919Y197D02*
X928Y197D01*
X2070Y197D02*
X2077Y197D01*
X0Y196D02*
X7Y196D01*
X919Y196D02*
X928Y196D01*
X2070Y196D02*
X2077Y196D01*
X0Y195D02*
X7Y195D01*
X919Y195D02*
X928Y195D01*
X2070Y195D02*
X2077Y195D01*
X0Y194D02*
X7Y194D01*
X919Y194D02*
X928Y194D01*
X2070Y194D02*
X2077Y194D01*
X0Y193D02*
X7Y193D01*
X919Y193D02*
X928Y193D01*
X2070Y193D02*
X2077Y193D01*
X0Y192D02*
X7Y192D01*
X919Y192D02*
X928Y192D01*
X2070Y192D02*
X2077Y192D01*
X0Y191D02*
X7Y191D01*
X919Y191D02*
X928Y191D01*
X2070Y191D02*
X2077Y191D01*
X0Y190D02*
X7Y190D01*
X919Y190D02*
X928Y190D01*
X2070Y190D02*
X2077Y190D01*
X0Y189D02*
X7Y189D01*
X919Y189D02*
X928Y189D01*
X2070Y189D02*
X2077Y189D01*
X0Y188D02*
X7Y188D01*
X919Y188D02*
X928Y188D01*
X2070Y188D02*
X2077Y188D01*
X0Y187D02*
X7Y187D01*
X919Y187D02*
X928Y187D01*
X2070Y187D02*
X2077Y187D01*
X0Y186D02*
X7Y186D01*
X919Y186D02*
X928Y186D01*
X2070Y186D02*
X2077Y186D01*
X0Y185D02*
X7Y185D01*
X919Y185D02*
X928Y185D01*
X2070Y185D02*
X2077Y185D01*
X0Y184D02*
X7Y184D01*
X919Y184D02*
X928Y184D01*
X2070Y184D02*
X2077Y184D01*
X0Y183D02*
X7Y183D01*
X919Y183D02*
X928Y183D01*
X2070Y183D02*
X2077Y183D01*
X0Y182D02*
X7Y182D01*
X919Y182D02*
X928Y182D01*
X2070Y182D02*
X2077Y182D01*
X0Y181D02*
X7Y181D01*
X919Y181D02*
X928Y181D01*
X2070Y181D02*
X2077Y181D01*
X0Y180D02*
X7Y180D01*
X919Y180D02*
X928Y180D01*
X2070Y180D02*
X2077Y180D01*
X0Y179D02*
X7Y179D01*
X919Y179D02*
X928Y179D01*
X2070Y179D02*
X2077Y179D01*
X0Y178D02*
X7Y178D01*
X919Y178D02*
X928Y178D01*
X2070Y178D02*
X2077Y178D01*
X0Y177D02*
X7Y177D01*
X919Y177D02*
X928Y177D01*
X2070Y177D02*
X2077Y177D01*
X0Y176D02*
X7Y176D01*
X919Y176D02*
X928Y176D01*
X2070Y176D02*
X2077Y176D01*
X0Y175D02*
X7Y175D01*
X919Y175D02*
X928Y175D01*
X2070Y175D02*
X2077Y175D01*
X0Y174D02*
X7Y174D01*
X919Y174D02*
X928Y174D01*
X2070Y174D02*
X2077Y174D01*
X0Y173D02*
X7Y173D01*
X919Y173D02*
X928Y173D01*
X2070Y173D02*
X2077Y173D01*
X0Y172D02*
X7Y172D01*
X919Y172D02*
X928Y172D01*
X2070Y172D02*
X2077Y172D01*
X0Y171D02*
X7Y171D01*
X919Y171D02*
X928Y171D01*
X2070Y171D02*
X2077Y171D01*
X0Y170D02*
X7Y170D01*
X919Y170D02*
X928Y170D01*
X2070Y170D02*
X2077Y170D01*
X0Y169D02*
X7Y169D01*
X919Y169D02*
X928Y169D01*
X2070Y169D02*
X2077Y169D01*
X0Y168D02*
X7Y168D01*
X919Y168D02*
X928Y168D01*
X2070Y168D02*
X2077Y168D01*
X0Y167D02*
X7Y167D01*
X919Y167D02*
X928Y167D01*
X2070Y167D02*
X2077Y167D01*
X0Y166D02*
X7Y166D01*
X919Y166D02*
X928Y166D01*
X2070Y166D02*
X2077Y166D01*
X0Y165D02*
X7Y165D01*
X919Y165D02*
X928Y165D01*
X2070Y165D02*
X2077Y165D01*
X0Y164D02*
X7Y164D01*
X919Y164D02*
X928Y164D01*
X2070Y164D02*
X2077Y164D01*
X0Y163D02*
X7Y163D01*
X919Y163D02*
X928Y163D01*
X2070Y163D02*
X2077Y163D01*
X0Y162D02*
X7Y162D01*
X919Y162D02*
X928Y162D01*
X2070Y162D02*
X2077Y162D01*
X0Y161D02*
X7Y161D01*
X919Y161D02*
X928Y161D01*
X2070Y161D02*
X2077Y161D01*
X0Y160D02*
X7Y160D01*
X919Y160D02*
X928Y160D01*
X2070Y160D02*
X2077Y160D01*
X0Y159D02*
X7Y159D01*
X919Y159D02*
X928Y159D01*
X2070Y159D02*
X2077Y159D01*
X0Y158D02*
X7Y158D01*
X919Y158D02*
X928Y158D01*
X2070Y158D02*
X2077Y158D01*
X0Y157D02*
X7Y157D01*
X919Y157D02*
X928Y157D01*
X2070Y157D02*
X2077Y157D01*
X0Y156D02*
X7Y156D01*
X919Y156D02*
X928Y156D01*
X2070Y156D02*
X2077Y156D01*
X0Y155D02*
X7Y155D01*
X919Y155D02*
X928Y155D01*
X2070Y155D02*
X2077Y155D01*
X0Y154D02*
X7Y154D01*
X919Y154D02*
X928Y154D01*
X2070Y154D02*
X2077Y154D01*
X0Y153D02*
X7Y153D01*
X919Y153D02*
X928Y153D01*
X2070Y153D02*
X2077Y153D01*
X0Y152D02*
X7Y152D01*
X919Y152D02*
X928Y152D01*
X2070Y152D02*
X2077Y152D01*
X0Y151D02*
X7Y151D01*
X919Y151D02*
X928Y151D01*
X2070Y151D02*
X2077Y151D01*
X0Y150D02*
X7Y150D01*
X919Y150D02*
X928Y150D01*
X2070Y150D02*
X2077Y150D01*
X0Y149D02*
X7Y149D01*
X919Y149D02*
X928Y149D01*
X2070Y149D02*
X2077Y149D01*
X0Y148D02*
X7Y148D01*
X919Y148D02*
X928Y148D01*
X2070Y148D02*
X2077Y148D01*
X0Y147D02*
X7Y147D01*
X919Y147D02*
X928Y147D01*
X2070Y147D02*
X2077Y147D01*
X0Y146D02*
X7Y146D01*
X919Y146D02*
X928Y146D01*
X2070Y146D02*
X2077Y146D01*
X0Y145D02*
X7Y145D01*
X919Y145D02*
X928Y145D01*
X2070Y145D02*
X2077Y145D01*
X0Y144D02*
X7Y144D01*
X919Y144D02*
X928Y144D01*
X2070Y144D02*
X2077Y144D01*
X0Y143D02*
X7Y143D01*
X919Y143D02*
X928Y143D01*
X2070Y143D02*
X2077Y143D01*
X0Y142D02*
X7Y142D01*
X919Y142D02*
X928Y142D01*
X2070Y142D02*
X2077Y142D01*
X0Y141D02*
X7Y141D01*
X919Y141D02*
X928Y141D01*
X2070Y141D02*
X2077Y141D01*
X0Y140D02*
X7Y140D01*
X919Y140D02*
X928Y140D01*
X2070Y140D02*
X2077Y140D01*
X0Y139D02*
X7Y139D01*
X919Y139D02*
X928Y139D01*
X2070Y139D02*
X2077Y139D01*
X0Y138D02*
X7Y138D01*
X919Y138D02*
X928Y138D01*
X2070Y138D02*
X2077Y138D01*
X0Y137D02*
X7Y137D01*
X919Y137D02*
X928Y137D01*
X2070Y137D02*
X2077Y137D01*
X0Y136D02*
X7Y136D01*
X919Y136D02*
X928Y136D01*
X2070Y136D02*
X2077Y136D01*
X0Y135D02*
X7Y135D01*
X919Y135D02*
X928Y135D01*
X2070Y135D02*
X2077Y135D01*
X0Y134D02*
X7Y134D01*
X919Y134D02*
X928Y134D01*
X2070Y134D02*
X2077Y134D01*
X0Y133D02*
X7Y133D01*
X919Y133D02*
X928Y133D01*
X2070Y133D02*
X2077Y133D01*
X0Y132D02*
X7Y132D01*
X919Y132D02*
X928Y132D01*
X2070Y132D02*
X2077Y132D01*
X0Y131D02*
X7Y131D01*
X919Y131D02*
X928Y131D01*
X2070Y131D02*
X2077Y131D01*
X0Y130D02*
X7Y130D01*
X919Y130D02*
X928Y130D01*
X2070Y130D02*
X2077Y130D01*
X0Y129D02*
X7Y129D01*
X919Y129D02*
X928Y129D01*
X2070Y129D02*
X2077Y129D01*
X0Y128D02*
X7Y128D01*
X919Y128D02*
X928Y128D01*
X2070Y128D02*
X2077Y128D01*
X0Y127D02*
X7Y127D01*
X919Y127D02*
X928Y127D01*
X2070Y127D02*
X2077Y127D01*
X0Y126D02*
X7Y126D01*
X919Y126D02*
X928Y126D01*
X2070Y126D02*
X2077Y126D01*
X0Y125D02*
X7Y125D01*
X919Y125D02*
X928Y125D01*
X2070Y125D02*
X2077Y125D01*
X0Y124D02*
X7Y124D01*
X444Y124D02*
X458Y124D01*
X919Y124D02*
X928Y124D01*
X2070Y124D02*
X2077Y124D01*
X0Y123D02*
X7Y123D01*
X441Y123D02*
X459Y123D01*
X919Y123D02*
X928Y123D01*
X2070Y123D02*
X2077Y123D01*
X0Y122D02*
X7Y122D01*
X440Y122D02*
X460Y122D01*
X919Y122D02*
X928Y122D01*
X2070Y122D02*
X2077Y122D01*
X0Y121D02*
X7Y121D01*
X439Y121D02*
X460Y121D01*
X919Y121D02*
X928Y121D01*
X2070Y121D02*
X2077Y121D01*
X0Y120D02*
X7Y120D01*
X438Y120D02*
X460Y120D01*
X919Y120D02*
X928Y120D01*
X2070Y120D02*
X2077Y120D01*
X0Y119D02*
X7Y119D01*
X438Y119D02*
X459Y119D01*
X919Y119D02*
X928Y119D01*
X2070Y119D02*
X2077Y119D01*
X0Y118D02*
X7Y118D01*
X437Y118D02*
X458Y118D01*
X919Y118D02*
X928Y118D01*
X2070Y118D02*
X2077Y118D01*
X0Y117D02*
X7Y117D01*
X437Y117D02*
X444Y117D01*
X919Y117D02*
X928Y117D01*
X953Y117D02*
X968Y117D01*
X2070Y117D02*
X2077Y117D01*
X0Y116D02*
X7Y116D01*
X436Y116D02*
X443Y116D01*
X919Y116D02*
X928Y116D01*
X951Y116D02*
X969Y116D01*
X2070Y116D02*
X2077Y116D01*
X0Y115D02*
X7Y115D01*
X436Y115D02*
X442Y115D01*
X919Y115D02*
X928Y115D01*
X950Y115D02*
X970Y115D01*
X2070Y115D02*
X2077Y115D01*
X0Y114D02*
X7Y114D01*
X436Y114D02*
X442Y114D01*
X919Y114D02*
X928Y114D01*
X949Y114D02*
X970Y114D01*
X2070Y114D02*
X2077Y114D01*
X0Y113D02*
X7Y113D01*
X436Y113D02*
X442Y113D01*
X919Y113D02*
X928Y113D01*
X948Y113D02*
X970Y113D01*
X2070Y113D02*
X2077Y113D01*
X0Y112D02*
X7Y112D01*
X436Y112D02*
X442Y112D01*
X919Y112D02*
X928Y112D01*
X947Y112D02*
X969Y112D01*
X2070Y112D02*
X2077Y112D01*
X0Y111D02*
X7Y111D01*
X436Y111D02*
X442Y111D01*
X919Y111D02*
X928Y111D01*
X947Y111D02*
X968Y111D01*
X2070Y111D02*
X2077Y111D01*
X0Y110D02*
X7Y110D01*
X436Y110D02*
X442Y110D01*
X919Y110D02*
X928Y110D01*
X947Y110D02*
X954Y110D01*
X1453Y110D02*
X1468Y110D01*
X1963Y110D02*
X1978Y110D01*
X2070Y110D02*
X2077Y110D01*
X0Y109D02*
X7Y109D01*
X436Y109D02*
X442Y109D01*
X919Y109D02*
X928Y109D01*
X946Y109D02*
X953Y109D01*
X1451Y109D02*
X1469Y109D01*
X1961Y109D02*
X1979Y109D01*
X2070Y109D02*
X2077Y109D01*
X0Y108D02*
X7Y108D01*
X436Y108D02*
X442Y108D01*
X919Y108D02*
X928Y108D01*
X946Y108D02*
X952Y108D01*
X1450Y108D02*
X1470Y108D01*
X1960Y108D02*
X1980Y108D01*
X2070Y108D02*
X2077Y108D01*
X0Y107D02*
X7Y107D01*
X436Y107D02*
X442Y107D01*
X919Y107D02*
X928Y107D01*
X946Y107D02*
X952Y107D01*
X1449Y107D02*
X1470Y107D01*
X1959Y107D02*
X1980Y107D01*
X2070Y107D02*
X2077Y107D01*
X0Y106D02*
X7Y106D01*
X436Y106D02*
X442Y106D01*
X919Y106D02*
X928Y106D01*
X946Y106D02*
X952Y106D01*
X1448Y106D02*
X1469Y106D01*
X1958Y106D02*
X1979Y106D01*
X2070Y106D02*
X2077Y106D01*
X0Y105D02*
X7Y105D01*
X436Y105D02*
X443Y105D01*
X919Y105D02*
X928Y105D01*
X946Y105D02*
X952Y105D01*
X1447Y105D02*
X1469Y105D01*
X1957Y105D02*
X1979Y105D01*
X2070Y105D02*
X2077Y105D01*
X0Y104D02*
X7Y104D01*
X437Y104D02*
X444Y104D01*
X919Y104D02*
X928Y104D01*
X946Y104D02*
X952Y104D01*
X1447Y104D02*
X1467Y104D01*
X1957Y104D02*
X1977Y104D01*
X2070Y104D02*
X2077Y104D01*
X0Y103D02*
X7Y103D01*
X437Y103D02*
X488Y103D01*
X919Y103D02*
X928Y103D01*
X946Y103D02*
X952Y103D01*
X1446Y103D02*
X1453Y103D01*
X1956Y103D02*
X1963Y103D01*
X2070Y103D02*
X2077Y103D01*
X0Y102D02*
X7Y102D01*
X438Y102D02*
X489Y102D01*
X919Y102D02*
X928Y102D01*
X946Y102D02*
X952Y102D01*
X1446Y102D02*
X1453Y102D01*
X1956Y102D02*
X1963Y102D01*
X2070Y102D02*
X2077Y102D01*
X0Y101D02*
X7Y101D01*
X438Y101D02*
X489Y101D01*
X919Y101D02*
X928Y101D01*
X946Y101D02*
X952Y101D01*
X1446Y101D02*
X1452Y101D01*
X1956Y101D02*
X1962Y101D01*
X2070Y101D02*
X2077Y101D01*
X0Y100D02*
X7Y100D01*
X439Y100D02*
X489Y100D01*
X919Y100D02*
X928Y100D01*
X946Y100D02*
X952Y100D01*
X1446Y100D02*
X1452Y100D01*
X1956Y100D02*
X1962Y100D01*
X2070Y100D02*
X2077Y100D01*
X0Y99D02*
X7Y99D01*
X440Y99D02*
X489Y99D01*
X919Y99D02*
X928Y99D01*
X946Y99D02*
X953Y99D01*
X1446Y99D02*
X1452Y99D01*
X1956Y99D02*
X1962Y99D01*
X2070Y99D02*
X2077Y99D01*
X0Y98D02*
X7Y98D01*
X442Y98D02*
X488Y98D01*
X919Y98D02*
X928Y98D01*
X946Y98D02*
X953Y98D01*
X1446Y98D02*
X1452Y98D01*
X1956Y98D02*
X1962Y98D01*
X2070Y98D02*
X2077Y98D01*
X0Y97D02*
X7Y97D01*
X444Y97D02*
X487Y97D01*
X919Y97D02*
X928Y97D01*
X947Y97D02*
X955Y97D01*
X1446Y97D02*
X1452Y97D01*
X1956Y97D02*
X1962Y97D01*
X2070Y97D02*
X2077Y97D01*
X0Y96D02*
X7Y96D01*
X919Y96D02*
X928Y96D01*
X947Y96D02*
X998Y96D01*
X1446Y96D02*
X1452Y96D01*
X1956Y96D02*
X1962Y96D01*
X2070Y96D02*
X2077Y96D01*
X0Y95D02*
X7Y95D01*
X919Y95D02*
X928Y95D01*
X948Y95D02*
X999Y95D01*
X1446Y95D02*
X1452Y95D01*
X1956Y95D02*
X1962Y95D01*
X2070Y95D02*
X2077Y95D01*
X0Y94D02*
X7Y94D01*
X919Y94D02*
X928Y94D01*
X948Y94D02*
X999Y94D01*
X1446Y94D02*
X1452Y94D01*
X1956Y94D02*
X1962Y94D01*
X2070Y94D02*
X2077Y94D01*
X0Y93D02*
X7Y93D01*
X919Y93D02*
X928Y93D01*
X949Y93D02*
X999Y93D01*
X1446Y93D02*
X1452Y93D01*
X1956Y93D02*
X1962Y93D01*
X2070Y93D02*
X2077Y93D01*
X0Y92D02*
X7Y92D01*
X919Y92D02*
X928Y92D01*
X950Y92D02*
X999Y92D01*
X1446Y92D02*
X1452Y92D01*
X1956Y92D02*
X1962Y92D01*
X2070Y92D02*
X2077Y92D01*
X0Y91D02*
X7Y91D01*
X919Y91D02*
X928Y91D01*
X952Y91D02*
X998Y91D01*
X1446Y91D02*
X1453Y91D01*
X1956Y91D02*
X1963Y91D01*
X2070Y91D02*
X2077Y91D01*
X0Y90D02*
X7Y90D01*
X919Y90D02*
X928Y90D01*
X955Y90D02*
X996Y90D01*
X1447Y90D02*
X1496Y90D01*
X1957Y90D02*
X2006Y90D01*
X2070Y90D02*
X2077Y90D01*
X0Y89D02*
X7Y89D01*
X919Y89D02*
X928Y89D01*
X1447Y89D02*
X1498Y89D01*
X1957Y89D02*
X2008Y89D01*
X2070Y89D02*
X2077Y89D01*
X0Y88D02*
X7Y88D01*
X919Y88D02*
X928Y88D01*
X1448Y88D02*
X1499Y88D01*
X1958Y88D02*
X2009Y88D01*
X2070Y88D02*
X2077Y88D01*
X0Y87D02*
X7Y87D01*
X919Y87D02*
X928Y87D01*
X1448Y87D02*
X1499Y87D01*
X1958Y87D02*
X2009Y87D01*
X2070Y87D02*
X2077Y87D01*
X0Y86D02*
X7Y86D01*
X919Y86D02*
X928Y86D01*
X1449Y86D02*
X1499Y86D01*
X1959Y86D02*
X2009Y86D01*
X2070Y86D02*
X2077Y86D01*
X0Y85D02*
X7Y85D01*
X919Y85D02*
X928Y85D01*
X1451Y85D02*
X1499Y85D01*
X1961Y85D02*
X2009Y85D01*
X2070Y85D02*
X2077Y85D01*
X0Y84D02*
X7Y84D01*
X919Y84D02*
X928Y84D01*
X1452Y84D02*
X1498Y84D01*
X1962Y84D02*
X2008Y84D01*
X2070Y84D02*
X2077Y84D01*
X0Y83D02*
X7Y83D01*
X919Y83D02*
X928Y83D01*
X2070Y83D02*
X2077Y83D01*
X0Y82D02*
X7Y82D01*
X919Y82D02*
X928Y82D01*
X2070Y82D02*
X2077Y82D01*
X0Y81D02*
X7Y81D01*
X919Y81D02*
X928Y81D01*
X2070Y81D02*
X2077Y81D01*
X0Y80D02*
X7Y80D01*
X919Y80D02*
X928Y80D01*
X2070Y80D02*
X2077Y80D01*
X0Y79D02*
X7Y79D01*
X919Y79D02*
X928Y79D01*
X2070Y79D02*
X2077Y79D01*
X0Y78D02*
X7Y78D01*
X919Y78D02*
X928Y78D01*
X2070Y78D02*
X2077Y78D01*
X0Y77D02*
X7Y77D01*
X441Y77D02*
X444Y77D01*
X919Y77D02*
X928Y77D01*
X2070Y77D02*
X2077Y77D01*
X0Y76D02*
X7Y76D01*
X440Y76D02*
X445Y76D01*
X919Y76D02*
X928Y76D01*
X2070Y76D02*
X2077Y76D01*
X0Y75D02*
X7Y75D01*
X439Y75D02*
X445Y75D01*
X919Y75D02*
X928Y75D01*
X2070Y75D02*
X2077Y75D01*
X0Y74D02*
X7Y74D01*
X439Y74D02*
X445Y74D01*
X919Y74D02*
X928Y74D01*
X2070Y74D02*
X2077Y74D01*
X0Y73D02*
X7Y73D01*
X438Y73D02*
X445Y73D01*
X919Y73D02*
X928Y73D01*
X2070Y73D02*
X2077Y73D01*
X0Y72D02*
X7Y72D01*
X438Y72D02*
X444Y72D01*
X919Y72D02*
X928Y72D01*
X2070Y72D02*
X2077Y72D01*
X0Y71D02*
X7Y71D01*
X437Y71D02*
X444Y71D01*
X919Y71D02*
X928Y71D01*
X2070Y71D02*
X2077Y71D01*
X0Y70D02*
X7Y70D01*
X437Y70D02*
X444Y70D01*
X460Y70D02*
X489Y70D01*
X919Y70D02*
X928Y70D01*
X948Y70D02*
X998Y70D01*
X2070Y70D02*
X2077Y70D01*
X0Y69D02*
X7Y69D01*
X437Y69D02*
X443Y69D01*
X460Y69D02*
X489Y69D01*
X919Y69D02*
X928Y69D01*
X947Y69D02*
X999Y69D01*
X2070Y69D02*
X2077Y69D01*
X0Y68D02*
X7Y68D01*
X436Y68D02*
X443Y68D01*
X460Y68D02*
X489Y68D01*
X919Y68D02*
X928Y68D01*
X946Y68D02*
X999Y68D01*
X2070Y68D02*
X2077Y68D01*
X0Y67D02*
X7Y67D01*
X436Y67D02*
X442Y67D01*
X460Y67D02*
X489Y67D01*
X919Y67D02*
X928Y67D01*
X946Y67D02*
X999Y67D01*
X2070Y67D02*
X2077Y67D01*
X0Y66D02*
X7Y66D01*
X436Y66D02*
X442Y66D01*
X460Y66D02*
X489Y66D01*
X919Y66D02*
X928Y66D01*
X946Y66D02*
X999Y66D01*
X2070Y66D02*
X2077Y66D01*
X0Y65D02*
X7Y65D01*
X436Y65D02*
X442Y65D01*
X460Y65D02*
X489Y65D01*
X919Y65D02*
X928Y65D01*
X946Y65D02*
X999Y65D01*
X2070Y65D02*
X2077Y65D01*
X0Y64D02*
X7Y64D01*
X436Y64D02*
X442Y64D01*
X460Y64D02*
X489Y64D01*
X919Y64D02*
X928Y64D01*
X946Y64D02*
X999Y64D01*
X2070Y64D02*
X2077Y64D01*
X0Y63D02*
X7Y63D01*
X436Y63D02*
X442Y63D01*
X460Y63D02*
X466Y63D01*
X483Y63D02*
X489Y63D01*
X919Y63D02*
X928Y63D01*
X946Y63D02*
X952Y63D01*
X964Y63D02*
X970Y63D01*
X993Y63D02*
X999Y63D01*
X1491Y63D02*
X1498Y63D01*
X1960Y63D02*
X1982Y63D01*
X2070Y63D02*
X2077Y63D01*
X0Y62D02*
X7Y62D01*
X436Y62D02*
X442Y62D01*
X460Y62D02*
X466Y62D01*
X483Y62D02*
X489Y62D01*
X919Y62D02*
X928Y62D01*
X946Y62D02*
X952Y62D01*
X964Y62D02*
X970Y62D01*
X994Y62D02*
X999Y62D01*
X1491Y62D02*
X1499Y62D01*
X1958Y62D02*
X1983Y62D01*
X2070Y62D02*
X2077Y62D01*
X0Y61D02*
X7Y61D01*
X436Y61D02*
X442Y61D01*
X460Y61D02*
X466Y61D01*
X483Y61D02*
X489Y61D01*
X919Y61D02*
X928Y61D01*
X946Y61D02*
X952Y61D01*
X964Y61D02*
X970Y61D01*
X995Y61D02*
X998Y61D01*
X1490Y61D02*
X1499Y61D01*
X1957Y61D02*
X1984Y61D01*
X2070Y61D02*
X2077Y61D01*
X0Y60D02*
X7Y60D01*
X436Y60D02*
X442Y60D01*
X460Y60D02*
X466Y60D01*
X483Y60D02*
X489Y60D01*
X919Y60D02*
X928Y60D01*
X946Y60D02*
X952Y60D01*
X964Y60D02*
X970Y60D01*
X1490Y60D02*
X1499Y60D01*
X1957Y60D02*
X1985Y60D01*
X2070Y60D02*
X2077Y60D01*
X0Y59D02*
X7Y59D01*
X436Y59D02*
X442Y59D01*
X460Y59D02*
X466Y59D01*
X483Y59D02*
X489Y59D01*
X919Y59D02*
X928Y59D01*
X946Y59D02*
X952Y59D01*
X964Y59D02*
X970Y59D01*
X1491Y59D02*
X1499Y59D01*
X1956Y59D02*
X1985Y59D01*
X2070Y59D02*
X2077Y59D01*
X0Y58D02*
X7Y58D01*
X436Y58D02*
X442Y58D01*
X460Y58D02*
X466Y58D01*
X483Y58D02*
X489Y58D01*
X919Y58D02*
X928Y58D01*
X946Y58D02*
X952Y58D01*
X964Y58D02*
X970Y58D01*
X1491Y58D02*
X1499Y58D01*
X1956Y58D02*
X1986Y58D01*
X2070Y58D02*
X2077Y58D01*
X0Y57D02*
X7Y57D01*
X436Y57D02*
X442Y57D01*
X460Y57D02*
X466Y57D01*
X483Y57D02*
X489Y57D01*
X919Y57D02*
X928Y57D01*
X946Y57D02*
X952Y57D01*
X964Y57D02*
X970Y57D01*
X1493Y57D02*
X1499Y57D01*
X1956Y57D02*
X1962Y57D01*
X1979Y57D02*
X2006Y57D01*
X2070Y57D02*
X2077Y57D01*
X0Y56D02*
X7Y56D01*
X436Y56D02*
X442Y56D01*
X460Y56D02*
X466Y56D01*
X483Y56D02*
X489Y56D01*
X919Y56D02*
X928Y56D01*
X946Y56D02*
X952Y56D01*
X964Y56D02*
X970Y56D01*
X1493Y56D02*
X1499Y56D01*
X1956Y56D02*
X1962Y56D01*
X1980Y56D02*
X2008Y56D01*
X2070Y56D02*
X2077Y56D01*
X0Y55D02*
X7Y55D01*
X436Y55D02*
X442Y55D01*
X460Y55D02*
X466Y55D01*
X483Y55D02*
X489Y55D01*
X919Y55D02*
X928Y55D01*
X946Y55D02*
X952Y55D01*
X964Y55D02*
X970Y55D01*
X1493Y55D02*
X1499Y55D01*
X1956Y55D02*
X1962Y55D01*
X1980Y55D02*
X2009Y55D01*
X2070Y55D02*
X2077Y55D01*
X0Y54D02*
X7Y54D01*
X436Y54D02*
X442Y54D01*
X460Y54D02*
X466Y54D01*
X483Y54D02*
X489Y54D01*
X919Y54D02*
X928Y54D01*
X946Y54D02*
X952Y54D01*
X964Y54D02*
X970Y54D01*
X1493Y54D02*
X1499Y54D01*
X1956Y54D02*
X1962Y54D01*
X1980Y54D02*
X2009Y54D01*
X2070Y54D02*
X2077Y54D01*
X0Y53D02*
X7Y53D01*
X436Y53D02*
X442Y53D01*
X460Y53D02*
X466Y53D01*
X483Y53D02*
X489Y53D01*
X919Y53D02*
X928Y53D01*
X946Y53D02*
X952Y53D01*
X964Y53D02*
X970Y53D01*
X1493Y53D02*
X1499Y53D01*
X1956Y53D02*
X1962Y53D01*
X1980Y53D02*
X2009Y53D01*
X2070Y53D02*
X2077Y53D01*
X0Y52D02*
X7Y52D01*
X436Y52D02*
X442Y52D01*
X460Y52D02*
X466Y52D01*
X483Y52D02*
X489Y52D01*
X919Y52D02*
X928Y52D01*
X946Y52D02*
X952Y52D01*
X964Y52D02*
X970Y52D01*
X1493Y52D02*
X1499Y52D01*
X1956Y52D02*
X1962Y52D01*
X1980Y52D02*
X2009Y52D01*
X2070Y52D02*
X2077Y52D01*
X0Y51D02*
X7Y51D01*
X436Y51D02*
X442Y51D01*
X460Y51D02*
X466Y51D01*
X483Y51D02*
X489Y51D01*
X919Y51D02*
X928Y51D01*
X946Y51D02*
X952Y51D01*
X964Y51D02*
X970Y51D01*
X1493Y51D02*
X1499Y51D01*
X1956Y51D02*
X1962Y51D01*
X1980Y51D02*
X2009Y51D01*
X2070Y51D02*
X2077Y51D01*
X0Y50D02*
X7Y50D01*
X436Y50D02*
X466Y50D01*
X483Y50D02*
X489Y50D01*
X919Y50D02*
X928Y50D01*
X946Y50D02*
X952Y50D01*
X964Y50D02*
X970Y50D01*
X1448Y50D02*
X1467Y50D01*
X1493Y50D02*
X1499Y50D01*
X1956Y50D02*
X1962Y50D01*
X1980Y50D02*
X1986Y50D01*
X2003Y50D02*
X2009Y50D01*
X2070Y50D02*
X2077Y50D01*
X0Y49D02*
X7Y49D01*
X436Y49D02*
X466Y49D01*
X483Y49D02*
X489Y49D01*
X919Y49D02*
X928Y49D01*
X946Y49D02*
X952Y49D01*
X964Y49D02*
X970Y49D01*
X1447Y49D02*
X1469Y49D01*
X1493Y49D02*
X1499Y49D01*
X1956Y49D02*
X1962Y49D01*
X1980Y49D02*
X1986Y49D01*
X2003Y49D02*
X2009Y49D01*
X2070Y49D02*
X2077Y49D01*
X0Y48D02*
X7Y48D01*
X437Y48D02*
X465Y48D01*
X483Y48D02*
X489Y48D01*
X919Y48D02*
X928Y48D01*
X946Y48D02*
X952Y48D01*
X964Y48D02*
X970Y48D01*
X1446Y48D02*
X1470Y48D01*
X1493Y48D02*
X1499Y48D01*
X1956Y48D02*
X1962Y48D01*
X1980Y48D02*
X1986Y48D01*
X2003Y48D02*
X2009Y48D01*
X2070Y48D02*
X2077Y48D01*
X0Y47D02*
X7Y47D01*
X437Y47D02*
X465Y47D01*
X483Y47D02*
X489Y47D01*
X919Y47D02*
X928Y47D01*
X946Y47D02*
X952Y47D01*
X964Y47D02*
X970Y47D01*
X1446Y47D02*
X1471Y47D01*
X1493Y47D02*
X1499Y47D01*
X1956Y47D02*
X1962Y47D01*
X1980Y47D02*
X1986Y47D01*
X2003Y47D02*
X2009Y47D01*
X2070Y47D02*
X2077Y47D01*
X0Y46D02*
X7Y46D01*
X438Y46D02*
X464Y46D01*
X483Y46D02*
X489Y46D01*
X919Y46D02*
X928Y46D01*
X946Y46D02*
X952Y46D01*
X964Y46D02*
X970Y46D01*
X1446Y46D02*
X1471Y46D01*
X1493Y46D02*
X1499Y46D01*
X1956Y46D02*
X1962Y46D01*
X1980Y46D02*
X1986Y46D01*
X2003Y46D02*
X2009Y46D01*
X2070Y46D02*
X2077Y46D01*
X0Y45D02*
X7Y45D01*
X438Y45D02*
X463Y45D01*
X484Y45D02*
X489Y45D01*
X919Y45D02*
X928Y45D01*
X946Y45D02*
X952Y45D01*
X964Y45D02*
X970Y45D01*
X1447Y45D02*
X1472Y45D01*
X1493Y45D02*
X1499Y45D01*
X1956Y45D02*
X1962Y45D01*
X1980Y45D02*
X1986Y45D01*
X2003Y45D02*
X2009Y45D01*
X2070Y45D02*
X2077Y45D01*
X0Y44D02*
X7Y44D01*
X440Y44D02*
X462Y44D01*
X485Y44D02*
X488Y44D01*
X919Y44D02*
X928Y44D01*
X946Y44D02*
X952Y44D01*
X964Y44D02*
X970Y44D01*
X1447Y44D02*
X1473Y44D01*
X1493Y44D02*
X1499Y44D01*
X1956Y44D02*
X1962Y44D01*
X1980Y44D02*
X1986Y44D01*
X2003Y44D02*
X2009Y44D01*
X2070Y44D02*
X2077Y44D01*
X0Y43D02*
X7Y43D01*
X919Y43D02*
X928Y43D01*
X946Y43D02*
X970Y43D01*
X1466Y43D02*
X1474Y43D01*
X1493Y43D02*
X1499Y43D01*
X1956Y43D02*
X1962Y43D01*
X1980Y43D02*
X2009Y43D01*
X2070Y43D02*
X2077Y43D01*
X0Y42D02*
X7Y42D01*
X919Y42D02*
X928Y42D01*
X946Y42D02*
X970Y42D01*
X1467Y42D02*
X1475Y42D01*
X1493Y42D02*
X1499Y42D01*
X1956Y42D02*
X1962Y42D01*
X1980Y42D02*
X2009Y42D01*
X2070Y42D02*
X2077Y42D01*
X0Y41D02*
X7Y41D01*
X919Y41D02*
X928Y41D01*
X946Y41D02*
X970Y41D01*
X1467Y41D02*
X1476Y41D01*
X1493Y41D02*
X1499Y41D01*
X1956Y41D02*
X1962Y41D01*
X1980Y41D02*
X2009Y41D01*
X2070Y41D02*
X2077Y41D01*
X0Y40D02*
X7Y40D01*
X919Y40D02*
X928Y40D01*
X946Y40D02*
X970Y40D01*
X1468Y40D02*
X1477Y40D01*
X1493Y40D02*
X1499Y40D01*
X1956Y40D02*
X1962Y40D01*
X1980Y40D02*
X2009Y40D01*
X2070Y40D02*
X2077Y40D01*
X0Y39D02*
X7Y39D01*
X919Y39D02*
X928Y39D01*
X946Y39D02*
X970Y39D01*
X1469Y39D02*
X1477Y39D01*
X1493Y39D02*
X1499Y39D01*
X1956Y39D02*
X1962Y39D01*
X1980Y39D02*
X2009Y39D01*
X2070Y39D02*
X2077Y39D01*
X0Y38D02*
X7Y38D01*
X919Y38D02*
X928Y38D01*
X947Y38D02*
X969Y38D01*
X1470Y38D02*
X1478Y38D01*
X1493Y38D02*
X1499Y38D01*
X1956Y38D02*
X1962Y38D01*
X1980Y38D02*
X2009Y38D01*
X2070Y38D02*
X2077Y38D01*
X0Y37D02*
X7Y37D01*
X919Y37D02*
X928Y37D01*
X948Y37D02*
X969Y37D01*
X1471Y37D02*
X1479Y37D01*
X1493Y37D02*
X1499Y37D01*
X1956Y37D02*
X1962Y37D01*
X1980Y37D02*
X2008Y37D01*
X2070Y37D02*
X2077Y37D01*
X0Y36D02*
X7Y36D01*
X919Y36D02*
X928Y36D01*
X1472Y36D02*
X1499Y36D01*
X1956Y36D02*
X1986Y36D01*
X2070Y36D02*
X2077Y36D01*
X0Y35D02*
X7Y35D01*
X919Y35D02*
X928Y35D01*
X1473Y35D02*
X1499Y35D01*
X1956Y35D02*
X1985Y35D01*
X2070Y35D02*
X2077Y35D01*
X0Y34D02*
X7Y34D01*
X919Y34D02*
X928Y34D01*
X1473Y34D02*
X1499Y34D01*
X1957Y34D02*
X1985Y34D01*
X2070Y34D02*
X2077Y34D01*
X0Y33D02*
X7Y33D01*
X919Y33D02*
X928Y33D01*
X1474Y33D02*
X1499Y33D01*
X1957Y33D02*
X1985Y33D01*
X2070Y33D02*
X2077Y33D01*
X0Y32D02*
X7Y32D01*
X919Y32D02*
X928Y32D01*
X1475Y32D02*
X1499Y32D01*
X1958Y32D02*
X1984Y32D01*
X2070Y32D02*
X2077Y32D01*
X0Y31D02*
X7Y31D01*
X919Y31D02*
X928Y31D01*
X1476Y31D02*
X1499Y31D01*
X1959Y31D02*
X1983Y31D01*
X2070Y31D02*
X2077Y31D01*
X0Y30D02*
X7Y30D01*
X919Y30D02*
X928Y30D01*
X1477Y30D02*
X1499Y30D01*
X1960Y30D02*
X1981Y30D01*
X2070Y30D02*
X2077Y30D01*
X0Y29D02*
X7Y29D01*
X919Y29D02*
X928Y29D01*
X2070Y29D02*
X2077Y29D01*
X0Y28D02*
X7Y28D01*
X919Y28D02*
X928Y28D01*
X2070Y28D02*
X2077Y28D01*
X0Y27D02*
X7Y27D01*
X919Y27D02*
X928Y27D01*
X2070Y27D02*
X2077Y27D01*
X0Y26D02*
X7Y26D01*
X919Y26D02*
X928Y26D01*
X2070Y26D02*
X2077Y26D01*
X0Y25D02*
X7Y25D01*
X919Y25D02*
X928Y25D01*
X2070Y25D02*
X2077Y25D01*
X0Y24D02*
X7Y24D01*
X919Y24D02*
X928Y24D01*
X2070Y24D02*
X2077Y24D01*
X0Y23D02*
X7Y23D01*
X919Y23D02*
X928Y23D01*
X2070Y23D02*
X2077Y23D01*
X0Y22D02*
X7Y22D01*
X919Y22D02*
X928Y22D01*
X2070Y22D02*
X2077Y22D01*
X0Y21D02*
X7Y21D01*
X919Y21D02*
X928Y21D01*
X2070Y21D02*
X2077Y21D01*
X0Y20D02*
X7Y20D01*
X919Y20D02*
X928Y20D01*
X2070Y20D02*
X2077Y20D01*
X0Y19D02*
X7Y19D01*
X2070Y19D02*
X2077Y19D01*
X0Y18D02*
X7Y18D01*
X2070Y18D02*
X2077Y18D01*
X0Y17D02*
X7Y17D01*
X2070Y17D02*
X2077Y17D01*
X0Y16D02*
X7Y16D01*
X2070Y16D02*
X2077Y16D01*
X0Y15D02*
X7Y15D01*
X2070Y15D02*
X2077Y15D01*
X0Y14D02*
X7Y14D01*
X2070Y14D02*
X2077Y14D01*
X0Y13D02*
X7Y13D01*
X2070Y13D02*
X2077Y13D01*
X0Y12D02*
X7Y12D01*
X2070Y12D02*
X2077Y12D01*
X0Y11D02*
X7Y11D01*
X2070Y11D02*
X2077Y11D01*
X0Y10D02*
X7Y10D01*
X2070Y10D02*
X2077Y10D01*
X0Y9D02*
X7Y9D01*
X2070Y9D02*
X2077Y9D01*
X0Y8D02*
X2077Y8D01*
X0Y7D02*
X2077Y7D01*
X0Y6D02*
X2077Y6D01*
X0Y5D02*
X2077Y5D01*
X0Y4D02*
X2077Y4D01*
X0Y3D02*
X2077Y3D01*
X0Y2D02*
X2077Y2D01*
X0Y1D02*
X2077Y1D01*
D02*
G04 End of Silk1*
M02*