G04 MADE WITH FRITZING*
G04 WWW.FRITZING.ORG*
G04 DOUBLE SIDED*
G04 HOLES PLATED*
G04 CONTOUR ON CENTER OF CONTOUR VECTOR*
%ASAXBY*%
%FSLAX23Y23*%
%MOIN*%
%OFA0B0*%
%SFA1.0B1.0*%
%ADD10C,0.085361*%
%ADD11C,0.090000*%
%ADD12C,0.085000*%
%ADD13C,0.084000*%
%ADD14R,0.090000X0.090000*%
%ADD15R,0.001000X0.001000*%
%LNMASK1*%
G90*
G70*
G54D10*
X121Y979D03*
X221Y979D03*
X321Y979D03*
X421Y979D03*
X521Y979D03*
X621Y979D03*
X721Y979D03*
X821Y979D03*
X921Y979D03*
X1021Y979D03*
X1121Y979D03*
X1221Y979D03*
X1321Y979D03*
X1421Y979D03*
X1521Y979D03*
X1621Y979D03*
X1721Y979D03*
X1821Y979D03*
X1921Y979D03*
X2021Y979D03*
X2021Y1079D03*
X1921Y1079D03*
X1821Y1079D03*
X1721Y1079D03*
X1621Y1079D03*
X1521Y1079D03*
X1421Y1079D03*
X1321Y1079D03*
X1221Y1079D03*
X1121Y1079D03*
X1021Y1079D03*
X921Y1079D03*
X821Y1079D03*
X721Y1079D03*
X621Y1079D03*
X521Y1079D03*
X421Y1079D03*
X321Y1079D03*
X221Y1079D03*
X121Y1079D03*
G54D11*
X1821Y279D03*
X1624Y279D03*
X1321Y279D03*
X1124Y279D03*
X821Y279D03*
X624Y279D03*
X321Y279D03*
X124Y279D03*
G54D12*
X1221Y779D03*
X938Y496D03*
X1421Y779D03*
X1138Y496D03*
G54D13*
X221Y579D03*
X221Y679D03*
X221Y779D03*
X221Y579D03*
X221Y679D03*
X221Y779D03*
G54D14*
X1821Y279D03*
X1321Y279D03*
X821Y279D03*
X321Y279D03*
G54D15*
X180Y621D02*
X262Y621D01*
X179Y620D02*
X262Y620D01*
X179Y619D02*
X262Y619D01*
X179Y618D02*
X262Y618D01*
X179Y617D02*
X262Y617D01*
X179Y616D02*
X262Y616D01*
X179Y615D02*
X262Y615D01*
X179Y614D02*
X262Y614D01*
X179Y613D02*
X262Y613D01*
X179Y612D02*
X262Y612D01*
X179Y611D02*
X262Y611D01*
X179Y610D02*
X262Y610D01*
X179Y609D02*
X262Y609D01*
X179Y608D02*
X262Y608D01*
X179Y607D02*
X262Y607D01*
X179Y606D02*
X262Y606D01*
X179Y605D02*
X262Y605D01*
X179Y604D02*
X262Y604D01*
X179Y603D02*
X262Y603D01*
X179Y602D02*
X262Y602D01*
X179Y601D02*
X262Y601D01*
X179Y600D02*
X262Y600D01*
X179Y599D02*
X262Y599D01*
X179Y598D02*
X262Y598D01*
X179Y597D02*
X262Y597D01*
X179Y596D02*
X262Y596D01*
X179Y595D02*
X262Y595D01*
X179Y594D02*
X262Y594D01*
X179Y593D02*
X215Y593D01*
X226Y593D02*
X262Y593D01*
X179Y592D02*
X213Y592D01*
X228Y592D02*
X262Y592D01*
X179Y591D02*
X212Y591D01*
X230Y591D02*
X262Y591D01*
X179Y590D02*
X210Y590D01*
X231Y590D02*
X262Y590D01*
X179Y589D02*
X209Y589D01*
X232Y589D02*
X262Y589D01*
X179Y588D02*
X209Y588D01*
X233Y588D02*
X262Y588D01*
X179Y587D02*
X208Y587D01*
X234Y587D02*
X262Y587D01*
X179Y586D02*
X207Y586D01*
X234Y586D02*
X262Y586D01*
X179Y585D02*
X207Y585D01*
X235Y585D02*
X262Y585D01*
X179Y584D02*
X206Y584D01*
X235Y584D02*
X262Y584D01*
X179Y583D02*
X206Y583D01*
X235Y583D02*
X262Y583D01*
X179Y582D02*
X206Y582D01*
X236Y582D02*
X262Y582D01*
X179Y581D02*
X206Y581D01*
X236Y581D02*
X262Y581D01*
X179Y580D02*
X206Y580D01*
X236Y580D02*
X262Y580D01*
X179Y579D02*
X206Y579D01*
X236Y579D02*
X262Y579D01*
X179Y578D02*
X206Y578D01*
X236Y578D02*
X262Y578D01*
X179Y577D02*
X206Y577D01*
X236Y577D02*
X262Y577D01*
X179Y576D02*
X206Y576D01*
X236Y576D02*
X262Y576D01*
X179Y575D02*
X206Y575D01*
X235Y575D02*
X262Y575D01*
X179Y574D02*
X206Y574D01*
X235Y574D02*
X262Y574D01*
X179Y573D02*
X207Y573D01*
X235Y573D02*
X262Y573D01*
X179Y572D02*
X207Y572D01*
X234Y572D02*
X262Y572D01*
X179Y571D02*
X208Y571D01*
X234Y571D02*
X262Y571D01*
X179Y570D02*
X209Y570D01*
X233Y570D02*
X262Y570D01*
X179Y569D02*
X210Y569D01*
X232Y569D02*
X262Y569D01*
X179Y568D02*
X211Y568D01*
X231Y568D02*
X262Y568D01*
X179Y567D02*
X212Y567D01*
X230Y567D02*
X262Y567D01*
X179Y566D02*
X214Y566D01*
X228Y566D02*
X262Y566D01*
X179Y565D02*
X216Y565D01*
X225Y565D02*
X262Y565D01*
X179Y564D02*
X262Y564D01*
X179Y563D02*
X262Y563D01*
X179Y562D02*
X262Y562D01*
X179Y561D02*
X262Y561D01*
X179Y560D02*
X262Y560D01*
X179Y559D02*
X262Y559D01*
X179Y558D02*
X262Y558D01*
X179Y557D02*
X262Y557D01*
X179Y556D02*
X262Y556D01*
X179Y555D02*
X262Y555D01*
X179Y554D02*
X262Y554D01*
X179Y553D02*
X262Y553D01*
X179Y552D02*
X262Y552D01*
X179Y551D02*
X262Y551D01*
X179Y550D02*
X262Y550D01*
X179Y549D02*
X262Y549D01*
X179Y548D02*
X262Y548D01*
X179Y547D02*
X262Y547D01*
X179Y546D02*
X262Y546D01*
X179Y545D02*
X262Y545D01*
X179Y544D02*
X262Y544D01*
X179Y543D02*
X262Y543D01*
X179Y542D02*
X262Y542D01*
X179Y541D02*
X262Y541D01*
X179Y540D02*
X262Y540D01*
X179Y539D02*
X262Y539D01*
X179Y538D02*
X262Y538D01*
D02*
G04 End of Mask1*
M02*