G04 MADE WITH FRITZING*
G04 WWW.FRITZING.ORG*
G04 DOUBLE SIDED*
G04 HOLES PLATED*
G04 CONTOUR ON CENTER OF CONTOUR VECTOR*
%ASAXBY*%
%FSLAX23Y23*%
%MOIN*%
%OFA0B0*%
%SFA1.0B1.0*%
%ADD10C,0.075000*%
%ADD11C,0.075361*%
%ADD12C,0.080000*%
%ADD13C,0.074000*%
%ADD14R,0.080000X0.080000*%
%ADD15R,0.001000X0.001000*%
%LNCOPPER1*%
G90*
G70*
G54D10*
X1525Y851D03*
G54D11*
X121Y979D03*
X221Y979D03*
X321Y979D03*
X421Y979D03*
X521Y979D03*
X621Y979D03*
X721Y979D03*
X821Y979D03*
X921Y979D03*
X1021Y979D03*
X1121Y979D03*
X1221Y979D03*
X1321Y979D03*
X1421Y979D03*
X1521Y979D03*
X1621Y979D03*
X1721Y979D03*
X1821Y979D03*
X1921Y979D03*
X2021Y979D03*
X2021Y1079D03*
X1921Y1079D03*
X1821Y1079D03*
X1721Y1079D03*
X1621Y1079D03*
X1521Y1079D03*
X1421Y1079D03*
X1321Y1079D03*
X1221Y1079D03*
X1121Y1079D03*
X1021Y1079D03*
X921Y1079D03*
X821Y1079D03*
X721Y1079D03*
X621Y1079D03*
X521Y1079D03*
X421Y1079D03*
X321Y1079D03*
X221Y1079D03*
X121Y1079D03*
G54D12*
X1821Y279D03*
X1624Y279D03*
X1321Y279D03*
X1124Y279D03*
X821Y279D03*
X624Y279D03*
X321Y279D03*
X124Y279D03*
G54D10*
X1221Y779D03*
X938Y496D03*
X1421Y779D03*
X1138Y496D03*
G54D13*
X221Y579D03*
X221Y679D03*
X221Y779D03*
X221Y579D03*
X221Y679D03*
X221Y779D03*
G54D14*
X1821Y279D03*
X1321Y279D03*
X821Y279D03*
X321Y279D03*
G36*
X40Y1101D02*
X40Y921D01*
X110Y921D01*
X110Y923D01*
X102Y923D01*
X102Y925D01*
X98Y925D01*
X98Y927D01*
X94Y927D01*
X94Y929D01*
X90Y929D01*
X90Y931D01*
X88Y931D01*
X88Y933D01*
X86Y933D01*
X86Y935D01*
X82Y935D01*
X82Y937D01*
X80Y937D01*
X80Y939D01*
X78Y939D01*
X78Y943D01*
X76Y943D01*
X76Y945D01*
X74Y945D01*
X74Y947D01*
X72Y947D01*
X72Y951D01*
X70Y951D01*
X70Y955D01*
X68Y955D01*
X68Y959D01*
X66Y959D01*
X66Y967D01*
X64Y967D01*
X64Y991D01*
X66Y991D01*
X66Y997D01*
X68Y997D01*
X68Y1003D01*
X70Y1003D01*
X70Y1007D01*
X72Y1007D01*
X72Y1009D01*
X74Y1009D01*
X74Y1013D01*
X76Y1013D01*
X76Y1015D01*
X78Y1015D01*
X78Y1017D01*
X80Y1017D01*
X80Y1039D01*
X78Y1039D01*
X78Y1043D01*
X76Y1043D01*
X76Y1045D01*
X74Y1045D01*
X74Y1047D01*
X72Y1047D01*
X72Y1051D01*
X70Y1051D01*
X70Y1055D01*
X68Y1055D01*
X68Y1059D01*
X66Y1059D01*
X66Y1067D01*
X64Y1067D01*
X64Y1101D01*
X40Y1101D01*
G37*
D02*
G36*
X160Y937D02*
X160Y935D01*
X158Y935D01*
X158Y933D01*
X156Y933D01*
X156Y931D01*
X152Y931D01*
X152Y929D01*
X150Y929D01*
X150Y927D01*
X146Y927D01*
X146Y925D01*
X140Y925D01*
X140Y923D01*
X132Y923D01*
X132Y921D01*
X210Y921D01*
X210Y923D01*
X202Y923D01*
X202Y925D01*
X198Y925D01*
X198Y927D01*
X194Y927D01*
X194Y929D01*
X190Y929D01*
X190Y931D01*
X188Y931D01*
X188Y933D01*
X186Y933D01*
X186Y935D01*
X182Y935D01*
X182Y937D01*
X160Y937D01*
G37*
D02*
G36*
X260Y937D02*
X260Y935D01*
X258Y935D01*
X258Y933D01*
X256Y933D01*
X256Y931D01*
X252Y931D01*
X252Y929D01*
X250Y929D01*
X250Y927D01*
X246Y927D01*
X246Y925D01*
X240Y925D01*
X240Y923D01*
X232Y923D01*
X232Y921D01*
X310Y921D01*
X310Y923D01*
X302Y923D01*
X302Y925D01*
X298Y925D01*
X298Y927D01*
X294Y927D01*
X294Y929D01*
X290Y929D01*
X290Y931D01*
X288Y931D01*
X288Y933D01*
X286Y933D01*
X286Y935D01*
X282Y935D01*
X282Y937D01*
X260Y937D01*
G37*
D02*
G36*
X360Y937D02*
X360Y935D01*
X358Y935D01*
X358Y933D01*
X356Y933D01*
X356Y931D01*
X352Y931D01*
X352Y929D01*
X350Y929D01*
X350Y927D01*
X346Y927D01*
X346Y925D01*
X340Y925D01*
X340Y923D01*
X332Y923D01*
X332Y921D01*
X410Y921D01*
X410Y923D01*
X402Y923D01*
X402Y925D01*
X398Y925D01*
X398Y927D01*
X394Y927D01*
X394Y929D01*
X390Y929D01*
X390Y931D01*
X388Y931D01*
X388Y933D01*
X386Y933D01*
X386Y935D01*
X382Y935D01*
X382Y937D01*
X360Y937D01*
G37*
D02*
G36*
X460Y937D02*
X460Y935D01*
X458Y935D01*
X458Y933D01*
X456Y933D01*
X456Y931D01*
X452Y931D01*
X452Y929D01*
X450Y929D01*
X450Y927D01*
X446Y927D01*
X446Y925D01*
X440Y925D01*
X440Y923D01*
X432Y923D01*
X432Y921D01*
X510Y921D01*
X510Y923D01*
X502Y923D01*
X502Y925D01*
X498Y925D01*
X498Y927D01*
X494Y927D01*
X494Y929D01*
X490Y929D01*
X490Y931D01*
X488Y931D01*
X488Y933D01*
X486Y933D01*
X486Y935D01*
X482Y935D01*
X482Y937D01*
X460Y937D01*
G37*
D02*
G36*
X560Y937D02*
X560Y935D01*
X558Y935D01*
X558Y933D01*
X556Y933D01*
X556Y931D01*
X552Y931D01*
X552Y929D01*
X550Y929D01*
X550Y927D01*
X546Y927D01*
X546Y925D01*
X540Y925D01*
X540Y923D01*
X532Y923D01*
X532Y921D01*
X610Y921D01*
X610Y923D01*
X602Y923D01*
X602Y925D01*
X598Y925D01*
X598Y927D01*
X594Y927D01*
X594Y929D01*
X590Y929D01*
X590Y931D01*
X588Y931D01*
X588Y933D01*
X586Y933D01*
X586Y935D01*
X582Y935D01*
X582Y937D01*
X560Y937D01*
G37*
D02*
G36*
X660Y937D02*
X660Y935D01*
X658Y935D01*
X658Y933D01*
X656Y933D01*
X656Y931D01*
X652Y931D01*
X652Y929D01*
X650Y929D01*
X650Y927D01*
X646Y927D01*
X646Y925D01*
X640Y925D01*
X640Y923D01*
X632Y923D01*
X632Y921D01*
X710Y921D01*
X710Y923D01*
X702Y923D01*
X702Y925D01*
X698Y925D01*
X698Y927D01*
X694Y927D01*
X694Y929D01*
X690Y929D01*
X690Y931D01*
X688Y931D01*
X688Y933D01*
X686Y933D01*
X686Y935D01*
X682Y935D01*
X682Y937D01*
X660Y937D01*
G37*
D02*
G36*
X760Y937D02*
X760Y935D01*
X758Y935D01*
X758Y933D01*
X756Y933D01*
X756Y931D01*
X752Y931D01*
X752Y929D01*
X750Y929D01*
X750Y927D01*
X746Y927D01*
X746Y925D01*
X740Y925D01*
X740Y923D01*
X732Y923D01*
X732Y921D01*
X810Y921D01*
X810Y923D01*
X802Y923D01*
X802Y925D01*
X798Y925D01*
X798Y927D01*
X794Y927D01*
X794Y929D01*
X790Y929D01*
X790Y931D01*
X788Y931D01*
X788Y933D01*
X786Y933D01*
X786Y935D01*
X782Y935D01*
X782Y937D01*
X760Y937D01*
G37*
D02*
G36*
X860Y937D02*
X860Y935D01*
X858Y935D01*
X858Y933D01*
X856Y933D01*
X856Y931D01*
X852Y931D01*
X852Y929D01*
X850Y929D01*
X850Y927D01*
X846Y927D01*
X846Y925D01*
X840Y925D01*
X840Y923D01*
X832Y923D01*
X832Y921D01*
X910Y921D01*
X910Y923D01*
X902Y923D01*
X902Y925D01*
X898Y925D01*
X898Y927D01*
X894Y927D01*
X894Y929D01*
X890Y929D01*
X890Y931D01*
X888Y931D01*
X888Y933D01*
X886Y933D01*
X886Y935D01*
X882Y935D01*
X882Y937D01*
X860Y937D01*
G37*
D02*
G36*
X960Y937D02*
X960Y935D01*
X958Y935D01*
X958Y933D01*
X956Y933D01*
X956Y931D01*
X952Y931D01*
X952Y929D01*
X950Y929D01*
X950Y927D01*
X946Y927D01*
X946Y925D01*
X940Y925D01*
X940Y923D01*
X932Y923D01*
X932Y921D01*
X1010Y921D01*
X1010Y923D01*
X1002Y923D01*
X1002Y925D01*
X998Y925D01*
X998Y927D01*
X994Y927D01*
X994Y929D01*
X990Y929D01*
X990Y931D01*
X988Y931D01*
X988Y933D01*
X986Y933D01*
X986Y935D01*
X982Y935D01*
X982Y937D01*
X960Y937D01*
G37*
D02*
G36*
X1060Y937D02*
X1060Y935D01*
X1058Y935D01*
X1058Y933D01*
X1056Y933D01*
X1056Y931D01*
X1052Y931D01*
X1052Y929D01*
X1050Y929D01*
X1050Y927D01*
X1046Y927D01*
X1046Y925D01*
X1040Y925D01*
X1040Y923D01*
X1032Y923D01*
X1032Y921D01*
X1110Y921D01*
X1110Y923D01*
X1102Y923D01*
X1102Y925D01*
X1098Y925D01*
X1098Y927D01*
X1094Y927D01*
X1094Y929D01*
X1090Y929D01*
X1090Y931D01*
X1088Y931D01*
X1088Y933D01*
X1086Y933D01*
X1086Y935D01*
X1082Y935D01*
X1082Y937D01*
X1060Y937D01*
G37*
D02*
G36*
X1160Y937D02*
X1160Y935D01*
X1158Y935D01*
X1158Y933D01*
X1156Y933D01*
X1156Y931D01*
X1152Y931D01*
X1152Y929D01*
X1150Y929D01*
X1150Y927D01*
X1146Y927D01*
X1146Y925D01*
X1140Y925D01*
X1140Y923D01*
X1132Y923D01*
X1132Y921D01*
X1210Y921D01*
X1210Y923D01*
X1202Y923D01*
X1202Y925D01*
X1198Y925D01*
X1198Y927D01*
X1194Y927D01*
X1194Y929D01*
X1190Y929D01*
X1190Y931D01*
X1188Y931D01*
X1188Y933D01*
X1186Y933D01*
X1186Y935D01*
X1182Y935D01*
X1182Y937D01*
X1160Y937D01*
G37*
D02*
G36*
X1260Y937D02*
X1260Y935D01*
X1258Y935D01*
X1258Y933D01*
X1256Y933D01*
X1256Y931D01*
X1252Y931D01*
X1252Y929D01*
X1250Y929D01*
X1250Y927D01*
X1246Y927D01*
X1246Y925D01*
X1240Y925D01*
X1240Y923D01*
X1232Y923D01*
X1232Y921D01*
X1310Y921D01*
X1310Y923D01*
X1302Y923D01*
X1302Y925D01*
X1298Y925D01*
X1298Y927D01*
X1294Y927D01*
X1294Y929D01*
X1290Y929D01*
X1290Y931D01*
X1288Y931D01*
X1288Y933D01*
X1286Y933D01*
X1286Y935D01*
X1282Y935D01*
X1282Y937D01*
X1260Y937D01*
G37*
D02*
G36*
X1360Y937D02*
X1360Y935D01*
X1358Y935D01*
X1358Y933D01*
X1356Y933D01*
X1356Y931D01*
X1352Y931D01*
X1352Y929D01*
X1350Y929D01*
X1350Y927D01*
X1346Y927D01*
X1346Y925D01*
X1340Y925D01*
X1340Y923D01*
X1332Y923D01*
X1332Y921D01*
X1410Y921D01*
X1410Y923D01*
X1402Y923D01*
X1402Y925D01*
X1398Y925D01*
X1398Y927D01*
X1394Y927D01*
X1394Y929D01*
X1390Y929D01*
X1390Y931D01*
X1388Y931D01*
X1388Y933D01*
X1386Y933D01*
X1386Y935D01*
X1382Y935D01*
X1382Y937D01*
X1360Y937D01*
G37*
D02*
G36*
X1460Y937D02*
X1460Y935D01*
X1458Y935D01*
X1458Y933D01*
X1456Y933D01*
X1456Y931D01*
X1452Y931D01*
X1452Y929D01*
X1450Y929D01*
X1450Y927D01*
X1446Y927D01*
X1446Y925D01*
X1440Y925D01*
X1440Y923D01*
X1432Y923D01*
X1432Y921D01*
X1510Y921D01*
X1510Y923D01*
X1502Y923D01*
X1502Y925D01*
X1498Y925D01*
X1498Y927D01*
X1494Y927D01*
X1494Y929D01*
X1490Y929D01*
X1490Y931D01*
X1488Y931D01*
X1488Y933D01*
X1486Y933D01*
X1486Y935D01*
X1482Y935D01*
X1482Y937D01*
X1460Y937D01*
G37*
D02*
G36*
X1560Y937D02*
X1560Y935D01*
X1558Y935D01*
X1558Y933D01*
X1556Y933D01*
X1556Y931D01*
X1552Y931D01*
X1552Y929D01*
X1550Y929D01*
X1550Y927D01*
X1546Y927D01*
X1546Y925D01*
X1540Y925D01*
X1540Y923D01*
X1532Y923D01*
X1532Y921D01*
X1610Y921D01*
X1610Y923D01*
X1602Y923D01*
X1602Y925D01*
X1598Y925D01*
X1598Y927D01*
X1594Y927D01*
X1594Y929D01*
X1590Y929D01*
X1590Y931D01*
X1588Y931D01*
X1588Y933D01*
X1586Y933D01*
X1586Y935D01*
X1582Y935D01*
X1582Y937D01*
X1560Y937D01*
G37*
D02*
G36*
X1660Y937D02*
X1660Y935D01*
X1658Y935D01*
X1658Y933D01*
X1656Y933D01*
X1656Y931D01*
X1652Y931D01*
X1652Y929D01*
X1650Y929D01*
X1650Y927D01*
X1646Y927D01*
X1646Y925D01*
X1640Y925D01*
X1640Y923D01*
X1632Y923D01*
X1632Y921D01*
X1710Y921D01*
X1710Y923D01*
X1702Y923D01*
X1702Y925D01*
X1698Y925D01*
X1698Y927D01*
X1694Y927D01*
X1694Y929D01*
X1690Y929D01*
X1690Y931D01*
X1688Y931D01*
X1688Y933D01*
X1686Y933D01*
X1686Y935D01*
X1682Y935D01*
X1682Y937D01*
X1660Y937D01*
G37*
D02*
G36*
X1760Y937D02*
X1760Y935D01*
X1758Y935D01*
X1758Y933D01*
X1756Y933D01*
X1756Y931D01*
X1752Y931D01*
X1752Y929D01*
X1750Y929D01*
X1750Y927D01*
X1746Y927D01*
X1746Y925D01*
X1740Y925D01*
X1740Y923D01*
X1732Y923D01*
X1732Y921D01*
X1810Y921D01*
X1810Y923D01*
X1802Y923D01*
X1802Y925D01*
X1798Y925D01*
X1798Y927D01*
X1794Y927D01*
X1794Y929D01*
X1790Y929D01*
X1790Y931D01*
X1788Y931D01*
X1788Y933D01*
X1786Y933D01*
X1786Y935D01*
X1782Y935D01*
X1782Y937D01*
X1760Y937D01*
G37*
D02*
G36*
X1860Y937D02*
X1860Y935D01*
X1858Y935D01*
X1858Y933D01*
X1856Y933D01*
X1856Y931D01*
X1852Y931D01*
X1852Y929D01*
X1850Y929D01*
X1850Y927D01*
X1846Y927D01*
X1846Y925D01*
X1840Y925D01*
X1840Y923D01*
X1832Y923D01*
X1832Y921D01*
X1910Y921D01*
X1910Y923D01*
X1902Y923D01*
X1902Y925D01*
X1898Y925D01*
X1898Y927D01*
X1894Y927D01*
X1894Y929D01*
X1890Y929D01*
X1890Y931D01*
X1888Y931D01*
X1888Y933D01*
X1886Y933D01*
X1886Y935D01*
X1882Y935D01*
X1882Y937D01*
X1860Y937D01*
G37*
D02*
G36*
X1960Y937D02*
X1960Y935D01*
X1958Y935D01*
X1958Y933D01*
X1956Y933D01*
X1956Y931D01*
X1952Y931D01*
X1952Y929D01*
X1950Y929D01*
X1950Y927D01*
X1946Y927D01*
X1946Y925D01*
X1940Y925D01*
X1940Y923D01*
X1932Y923D01*
X1932Y921D01*
X2010Y921D01*
X2010Y923D01*
X2002Y923D01*
X2002Y925D01*
X1998Y925D01*
X1998Y927D01*
X1994Y927D01*
X1994Y929D01*
X1990Y929D01*
X1990Y931D01*
X1988Y931D01*
X1988Y933D01*
X1986Y933D01*
X1986Y935D01*
X1982Y935D01*
X1982Y937D01*
X1960Y937D01*
G37*
D02*
G36*
X40Y921D02*
X40Y919D01*
X2038Y919D01*
X2038Y921D01*
X40Y921D01*
G37*
D02*
G36*
X40Y921D02*
X40Y919D01*
X2038Y919D01*
X2038Y921D01*
X40Y921D01*
G37*
D02*
G36*
X40Y921D02*
X40Y919D01*
X2038Y919D01*
X2038Y921D01*
X40Y921D01*
G37*
D02*
G36*
X40Y921D02*
X40Y919D01*
X2038Y919D01*
X2038Y921D01*
X40Y921D01*
G37*
D02*
G36*
X40Y921D02*
X40Y919D01*
X2038Y919D01*
X2038Y921D01*
X40Y921D01*
G37*
D02*
G36*
X40Y921D02*
X40Y919D01*
X2038Y919D01*
X2038Y921D01*
X40Y921D01*
G37*
D02*
G36*
X40Y921D02*
X40Y919D01*
X2038Y919D01*
X2038Y921D01*
X40Y921D01*
G37*
D02*
G36*
X40Y921D02*
X40Y919D01*
X2038Y919D01*
X2038Y921D01*
X40Y921D01*
G37*
D02*
G36*
X40Y921D02*
X40Y919D01*
X2038Y919D01*
X2038Y921D01*
X40Y921D01*
G37*
D02*
G36*
X40Y921D02*
X40Y919D01*
X2038Y919D01*
X2038Y921D01*
X40Y921D01*
G37*
D02*
G36*
X40Y921D02*
X40Y919D01*
X2038Y919D01*
X2038Y921D01*
X40Y921D01*
G37*
D02*
G36*
X40Y921D02*
X40Y919D01*
X2038Y919D01*
X2038Y921D01*
X40Y921D01*
G37*
D02*
G36*
X40Y921D02*
X40Y919D01*
X2038Y919D01*
X2038Y921D01*
X40Y921D01*
G37*
D02*
G36*
X40Y921D02*
X40Y919D01*
X2038Y919D01*
X2038Y921D01*
X40Y921D01*
G37*
D02*
G36*
X40Y921D02*
X40Y919D01*
X2038Y919D01*
X2038Y921D01*
X40Y921D01*
G37*
D02*
G36*
X40Y921D02*
X40Y919D01*
X2038Y919D01*
X2038Y921D01*
X40Y921D01*
G37*
D02*
G36*
X40Y921D02*
X40Y919D01*
X2038Y919D01*
X2038Y921D01*
X40Y921D01*
G37*
D02*
G36*
X40Y921D02*
X40Y919D01*
X2038Y919D01*
X2038Y921D01*
X40Y921D01*
G37*
D02*
G36*
X40Y921D02*
X40Y919D01*
X2038Y919D01*
X2038Y921D01*
X40Y921D01*
G37*
D02*
G36*
X40Y921D02*
X40Y919D01*
X2038Y919D01*
X2038Y921D01*
X40Y921D01*
G37*
D02*
G36*
X40Y919D02*
X40Y835D01*
X1436Y835D01*
X1436Y833D01*
X1442Y833D01*
X1442Y831D01*
X1446Y831D01*
X1446Y829D01*
X1450Y829D01*
X1450Y827D01*
X1454Y827D01*
X1454Y825D01*
X1456Y825D01*
X1456Y823D01*
X1458Y823D01*
X1458Y821D01*
X1462Y821D01*
X1462Y817D01*
X1464Y817D01*
X1464Y815D01*
X1466Y815D01*
X1466Y813D01*
X1468Y813D01*
X1468Y811D01*
X1470Y811D01*
X1470Y807D01*
X1472Y807D01*
X1472Y803D01*
X1474Y803D01*
X1474Y799D01*
X1476Y799D01*
X1476Y793D01*
X1478Y793D01*
X1478Y765D01*
X1476Y765D01*
X1476Y757D01*
X1474Y757D01*
X1474Y753D01*
X1472Y753D01*
X1472Y749D01*
X1470Y749D01*
X1470Y747D01*
X1468Y747D01*
X1468Y743D01*
X1466Y743D01*
X1466Y741D01*
X1464Y741D01*
X1464Y739D01*
X1462Y739D01*
X1462Y737D01*
X1460Y737D01*
X1460Y735D01*
X1458Y735D01*
X1458Y733D01*
X1454Y733D01*
X1454Y731D01*
X1452Y731D01*
X1452Y729D01*
X1448Y729D01*
X1448Y727D01*
X1444Y727D01*
X1444Y725D01*
X1440Y725D01*
X1440Y723D01*
X1430Y723D01*
X1430Y721D01*
X2038Y721D01*
X2038Y919D01*
X40Y919D01*
G37*
D02*
G36*
X40Y835D02*
X40Y521D01*
X164Y521D01*
X164Y635D01*
X170Y635D01*
X170Y655D01*
X168Y655D01*
X168Y661D01*
X166Y661D01*
X166Y671D01*
X164Y671D01*
X164Y685D01*
X166Y685D01*
X166Y695D01*
X168Y695D01*
X168Y701D01*
X170Y701D01*
X170Y705D01*
X172Y705D01*
X172Y709D01*
X174Y709D01*
X174Y711D01*
X176Y711D01*
X176Y713D01*
X178Y713D01*
X178Y717D01*
X180Y717D01*
X180Y719D01*
X182Y719D01*
X182Y739D01*
X180Y739D01*
X180Y741D01*
X178Y741D01*
X178Y743D01*
X176Y743D01*
X176Y745D01*
X174Y745D01*
X174Y749D01*
X172Y749D01*
X172Y751D01*
X170Y751D01*
X170Y755D01*
X168Y755D01*
X168Y761D01*
X166Y761D01*
X166Y771D01*
X164Y771D01*
X164Y785D01*
X166Y785D01*
X166Y795D01*
X168Y795D01*
X168Y801D01*
X170Y801D01*
X170Y805D01*
X172Y805D01*
X172Y809D01*
X174Y809D01*
X174Y811D01*
X176Y811D01*
X176Y813D01*
X178Y813D01*
X178Y817D01*
X180Y817D01*
X180Y819D01*
X182Y819D01*
X182Y821D01*
X186Y821D01*
X186Y823D01*
X188Y823D01*
X188Y825D01*
X190Y825D01*
X190Y827D01*
X194Y827D01*
X194Y829D01*
X198Y829D01*
X198Y831D01*
X202Y831D01*
X202Y833D01*
X210Y833D01*
X210Y835D01*
X40Y835D01*
G37*
D02*
G36*
X234Y835D02*
X234Y833D01*
X240Y833D01*
X240Y831D01*
X246Y831D01*
X246Y829D01*
X250Y829D01*
X250Y827D01*
X252Y827D01*
X252Y825D01*
X256Y825D01*
X256Y823D01*
X258Y823D01*
X258Y821D01*
X260Y821D01*
X260Y819D01*
X262Y819D01*
X262Y817D01*
X264Y817D01*
X264Y815D01*
X266Y815D01*
X266Y813D01*
X268Y813D01*
X268Y809D01*
X270Y809D01*
X270Y807D01*
X272Y807D01*
X272Y803D01*
X274Y803D01*
X274Y797D01*
X276Y797D01*
X276Y791D01*
X278Y791D01*
X278Y767D01*
X276Y767D01*
X276Y759D01*
X274Y759D01*
X274Y755D01*
X272Y755D01*
X272Y751D01*
X270Y751D01*
X270Y747D01*
X268Y747D01*
X268Y745D01*
X266Y745D01*
X266Y743D01*
X264Y743D01*
X264Y739D01*
X262Y739D01*
X262Y721D01*
X1212Y721D01*
X1212Y723D01*
X1204Y723D01*
X1204Y725D01*
X1198Y725D01*
X1198Y727D01*
X1194Y727D01*
X1194Y729D01*
X1190Y729D01*
X1190Y731D01*
X1188Y731D01*
X1188Y733D01*
X1186Y733D01*
X1186Y735D01*
X1182Y735D01*
X1182Y737D01*
X1180Y737D01*
X1180Y739D01*
X1178Y739D01*
X1178Y743D01*
X1176Y743D01*
X1176Y745D01*
X1174Y745D01*
X1174Y747D01*
X1172Y747D01*
X1172Y751D01*
X1170Y751D01*
X1170Y755D01*
X1168Y755D01*
X1168Y759D01*
X1166Y759D01*
X1166Y767D01*
X1164Y767D01*
X1164Y789D01*
X1166Y789D01*
X1166Y797D01*
X1168Y797D01*
X1168Y803D01*
X1170Y803D01*
X1170Y805D01*
X1172Y805D01*
X1172Y809D01*
X1174Y809D01*
X1174Y813D01*
X1176Y813D01*
X1176Y815D01*
X1178Y815D01*
X1178Y817D01*
X1180Y817D01*
X1180Y819D01*
X1182Y819D01*
X1182Y821D01*
X1184Y821D01*
X1184Y823D01*
X1186Y823D01*
X1186Y825D01*
X1190Y825D01*
X1190Y827D01*
X1192Y827D01*
X1192Y829D01*
X1196Y829D01*
X1196Y831D01*
X1200Y831D01*
X1200Y833D01*
X1208Y833D01*
X1208Y835D01*
X234Y835D01*
G37*
D02*
G36*
X1236Y835D02*
X1236Y833D01*
X1242Y833D01*
X1242Y831D01*
X1246Y831D01*
X1246Y829D01*
X1250Y829D01*
X1250Y827D01*
X1254Y827D01*
X1254Y825D01*
X1256Y825D01*
X1256Y823D01*
X1258Y823D01*
X1258Y821D01*
X1262Y821D01*
X1262Y817D01*
X1264Y817D01*
X1264Y815D01*
X1266Y815D01*
X1266Y813D01*
X1268Y813D01*
X1268Y811D01*
X1270Y811D01*
X1270Y807D01*
X1272Y807D01*
X1272Y803D01*
X1274Y803D01*
X1274Y799D01*
X1276Y799D01*
X1276Y793D01*
X1278Y793D01*
X1278Y765D01*
X1276Y765D01*
X1276Y757D01*
X1274Y757D01*
X1274Y753D01*
X1272Y753D01*
X1272Y749D01*
X1270Y749D01*
X1270Y747D01*
X1268Y747D01*
X1268Y743D01*
X1266Y743D01*
X1266Y741D01*
X1264Y741D01*
X1264Y739D01*
X1262Y739D01*
X1262Y737D01*
X1260Y737D01*
X1260Y735D01*
X1258Y735D01*
X1258Y733D01*
X1254Y733D01*
X1254Y731D01*
X1252Y731D01*
X1252Y729D01*
X1248Y729D01*
X1248Y727D01*
X1244Y727D01*
X1244Y725D01*
X1240Y725D01*
X1240Y723D01*
X1230Y723D01*
X1230Y721D01*
X1412Y721D01*
X1412Y723D01*
X1404Y723D01*
X1404Y725D01*
X1398Y725D01*
X1398Y727D01*
X1394Y727D01*
X1394Y729D01*
X1390Y729D01*
X1390Y731D01*
X1388Y731D01*
X1388Y733D01*
X1386Y733D01*
X1386Y735D01*
X1382Y735D01*
X1382Y737D01*
X1380Y737D01*
X1380Y739D01*
X1378Y739D01*
X1378Y743D01*
X1376Y743D01*
X1376Y745D01*
X1374Y745D01*
X1374Y747D01*
X1372Y747D01*
X1372Y751D01*
X1370Y751D01*
X1370Y755D01*
X1368Y755D01*
X1368Y759D01*
X1366Y759D01*
X1366Y767D01*
X1364Y767D01*
X1364Y789D01*
X1366Y789D01*
X1366Y797D01*
X1368Y797D01*
X1368Y803D01*
X1370Y803D01*
X1370Y805D01*
X1372Y805D01*
X1372Y809D01*
X1374Y809D01*
X1374Y813D01*
X1376Y813D01*
X1376Y815D01*
X1378Y815D01*
X1378Y817D01*
X1380Y817D01*
X1380Y819D01*
X1382Y819D01*
X1382Y821D01*
X1384Y821D01*
X1384Y823D01*
X1386Y823D01*
X1386Y825D01*
X1390Y825D01*
X1390Y827D01*
X1392Y827D01*
X1392Y829D01*
X1396Y829D01*
X1396Y831D01*
X1400Y831D01*
X1400Y833D01*
X1408Y833D01*
X1408Y835D01*
X1236Y835D01*
G37*
D02*
G36*
X262Y721D02*
X262Y719D01*
X2038Y719D01*
X2038Y721D01*
X262Y721D01*
G37*
D02*
G36*
X262Y721D02*
X262Y719D01*
X2038Y719D01*
X2038Y721D01*
X262Y721D01*
G37*
D02*
G36*
X262Y721D02*
X262Y719D01*
X2038Y719D01*
X2038Y721D01*
X262Y721D01*
G37*
D02*
G36*
X262Y719D02*
X262Y717D01*
X264Y717D01*
X264Y715D01*
X266Y715D01*
X266Y713D01*
X268Y713D01*
X268Y709D01*
X270Y709D01*
X270Y707D01*
X272Y707D01*
X272Y703D01*
X274Y703D01*
X274Y697D01*
X276Y697D01*
X276Y691D01*
X278Y691D01*
X278Y667D01*
X276Y667D01*
X276Y659D01*
X274Y659D01*
X274Y655D01*
X272Y655D01*
X272Y635D01*
X278Y635D01*
X278Y553D01*
X1148Y553D01*
X1148Y551D01*
X1156Y551D01*
X1156Y549D01*
X1162Y549D01*
X1162Y547D01*
X1166Y547D01*
X1166Y545D01*
X1170Y545D01*
X1170Y543D01*
X1172Y543D01*
X1172Y541D01*
X1174Y541D01*
X1174Y539D01*
X1178Y539D01*
X1178Y537D01*
X1180Y537D01*
X1180Y535D01*
X1182Y535D01*
X1182Y531D01*
X1184Y531D01*
X1184Y529D01*
X1186Y529D01*
X1186Y527D01*
X1188Y527D01*
X1188Y523D01*
X1190Y523D01*
X1190Y519D01*
X1192Y519D01*
X1192Y513D01*
X1194Y513D01*
X1194Y505D01*
X1196Y505D01*
X1196Y487D01*
X1194Y487D01*
X1194Y477D01*
X1192Y477D01*
X1192Y473D01*
X1190Y473D01*
X1190Y469D01*
X1188Y469D01*
X1188Y465D01*
X1186Y465D01*
X1186Y463D01*
X1184Y463D01*
X1184Y459D01*
X1182Y459D01*
X1182Y457D01*
X1180Y457D01*
X1180Y455D01*
X1178Y455D01*
X1178Y453D01*
X1176Y453D01*
X1176Y451D01*
X1174Y451D01*
X1174Y449D01*
X1170Y449D01*
X1170Y447D01*
X1168Y447D01*
X1168Y445D01*
X1164Y445D01*
X1164Y443D01*
X1160Y443D01*
X1160Y441D01*
X1152Y441D01*
X1152Y439D01*
X2038Y439D01*
X2038Y719D01*
X262Y719D01*
G37*
D02*
G36*
X278Y553D02*
X278Y521D01*
X888Y521D01*
X888Y525D01*
X890Y525D01*
X890Y527D01*
X892Y527D01*
X892Y531D01*
X894Y531D01*
X894Y533D01*
X896Y533D01*
X896Y535D01*
X898Y535D01*
X898Y537D01*
X900Y537D01*
X900Y539D01*
X902Y539D01*
X902Y541D01*
X904Y541D01*
X904Y543D01*
X908Y543D01*
X908Y545D01*
X912Y545D01*
X912Y547D01*
X914Y547D01*
X914Y549D01*
X920Y549D01*
X920Y551D01*
X928Y551D01*
X928Y553D01*
X278Y553D01*
G37*
D02*
G36*
X948Y553D02*
X948Y551D01*
X956Y551D01*
X956Y549D01*
X962Y549D01*
X962Y547D01*
X966Y547D01*
X966Y545D01*
X970Y545D01*
X970Y543D01*
X972Y543D01*
X972Y541D01*
X974Y541D01*
X974Y539D01*
X978Y539D01*
X978Y537D01*
X980Y537D01*
X980Y535D01*
X982Y535D01*
X982Y531D01*
X984Y531D01*
X984Y529D01*
X986Y529D01*
X986Y527D01*
X988Y527D01*
X988Y523D01*
X990Y523D01*
X990Y519D01*
X992Y519D01*
X992Y513D01*
X994Y513D01*
X994Y505D01*
X996Y505D01*
X996Y487D01*
X994Y487D01*
X994Y477D01*
X992Y477D01*
X992Y473D01*
X990Y473D01*
X990Y469D01*
X988Y469D01*
X988Y465D01*
X986Y465D01*
X986Y463D01*
X984Y463D01*
X984Y459D01*
X982Y459D01*
X982Y457D01*
X980Y457D01*
X980Y455D01*
X978Y455D01*
X978Y453D01*
X976Y453D01*
X976Y451D01*
X974Y451D01*
X974Y449D01*
X970Y449D01*
X970Y447D01*
X968Y447D01*
X968Y445D01*
X964Y445D01*
X964Y443D01*
X960Y443D01*
X960Y441D01*
X952Y441D01*
X952Y439D01*
X1124Y439D01*
X1124Y441D01*
X1118Y441D01*
X1118Y443D01*
X1114Y443D01*
X1114Y445D01*
X1110Y445D01*
X1110Y447D01*
X1106Y447D01*
X1106Y449D01*
X1104Y449D01*
X1104Y451D01*
X1102Y451D01*
X1102Y453D01*
X1098Y453D01*
X1098Y455D01*
X1096Y455D01*
X1096Y459D01*
X1094Y459D01*
X1094Y461D01*
X1092Y461D01*
X1092Y463D01*
X1090Y463D01*
X1090Y467D01*
X1088Y467D01*
X1088Y471D01*
X1086Y471D01*
X1086Y475D01*
X1084Y475D01*
X1084Y481D01*
X1082Y481D01*
X1082Y511D01*
X1084Y511D01*
X1084Y517D01*
X1086Y517D01*
X1086Y521D01*
X1088Y521D01*
X1088Y525D01*
X1090Y525D01*
X1090Y527D01*
X1092Y527D01*
X1092Y531D01*
X1094Y531D01*
X1094Y533D01*
X1096Y533D01*
X1096Y535D01*
X1098Y535D01*
X1098Y537D01*
X1100Y537D01*
X1100Y539D01*
X1102Y539D01*
X1102Y541D01*
X1104Y541D01*
X1104Y543D01*
X1108Y543D01*
X1108Y545D01*
X1112Y545D01*
X1112Y547D01*
X1114Y547D01*
X1114Y549D01*
X1120Y549D01*
X1120Y551D01*
X1128Y551D01*
X1128Y553D01*
X948Y553D01*
G37*
D02*
G36*
X40Y521D02*
X40Y519D01*
X886Y519D01*
X886Y521D01*
X40Y521D01*
G37*
D02*
G36*
X40Y521D02*
X40Y519D01*
X886Y519D01*
X886Y521D01*
X40Y521D01*
G37*
D02*
G36*
X40Y519D02*
X40Y439D01*
X924Y439D01*
X924Y441D01*
X918Y441D01*
X918Y443D01*
X914Y443D01*
X914Y445D01*
X910Y445D01*
X910Y447D01*
X906Y447D01*
X906Y449D01*
X904Y449D01*
X904Y451D01*
X902Y451D01*
X902Y453D01*
X898Y453D01*
X898Y455D01*
X896Y455D01*
X896Y459D01*
X894Y459D01*
X894Y461D01*
X892Y461D01*
X892Y463D01*
X890Y463D01*
X890Y467D01*
X888Y467D01*
X888Y471D01*
X886Y471D01*
X886Y475D01*
X884Y475D01*
X884Y481D01*
X882Y481D01*
X882Y511D01*
X884Y511D01*
X884Y517D01*
X886Y517D01*
X886Y519D01*
X40Y519D01*
G37*
D02*
G36*
X40Y439D02*
X40Y437D01*
X2038Y437D01*
X2038Y439D01*
X40Y439D01*
G37*
D02*
G36*
X40Y439D02*
X40Y437D01*
X2038Y437D01*
X2038Y439D01*
X40Y439D01*
G37*
D02*
G36*
X40Y439D02*
X40Y437D01*
X2038Y437D01*
X2038Y439D01*
X40Y439D01*
G37*
D02*
G36*
X40Y437D02*
X40Y339D01*
X1880Y339D01*
X1880Y337D01*
X1882Y337D01*
X1882Y219D01*
X2038Y219D01*
X2038Y437D01*
X40Y437D01*
G37*
D02*
G36*
X40Y339D02*
X40Y219D01*
X112Y219D01*
X112Y221D01*
X104Y221D01*
X104Y223D01*
X100Y223D01*
X100Y225D01*
X96Y225D01*
X96Y227D01*
X92Y227D01*
X92Y229D01*
X90Y229D01*
X90Y231D01*
X88Y231D01*
X88Y233D01*
X84Y233D01*
X84Y235D01*
X82Y235D01*
X82Y237D01*
X80Y237D01*
X80Y239D01*
X78Y239D01*
X78Y243D01*
X76Y243D01*
X76Y245D01*
X74Y245D01*
X74Y247D01*
X72Y247D01*
X72Y251D01*
X70Y251D01*
X70Y255D01*
X68Y255D01*
X68Y261D01*
X66Y261D01*
X66Y271D01*
X64Y271D01*
X64Y285D01*
X66Y285D01*
X66Y295D01*
X68Y295D01*
X68Y301D01*
X70Y301D01*
X70Y305D01*
X72Y305D01*
X72Y309D01*
X74Y309D01*
X74Y313D01*
X76Y313D01*
X76Y315D01*
X78Y315D01*
X78Y317D01*
X80Y317D01*
X80Y319D01*
X82Y319D01*
X82Y321D01*
X84Y321D01*
X84Y323D01*
X86Y323D01*
X86Y325D01*
X88Y325D01*
X88Y327D01*
X90Y327D01*
X90Y329D01*
X94Y329D01*
X94Y331D01*
X98Y331D01*
X98Y333D01*
X102Y333D01*
X102Y335D01*
X108Y335D01*
X108Y337D01*
X118Y337D01*
X118Y339D01*
X40Y339D01*
G37*
D02*
G36*
X130Y339D02*
X130Y337D01*
X140Y337D01*
X140Y335D01*
X148Y335D01*
X148Y333D01*
X152Y333D01*
X152Y331D01*
X154Y331D01*
X154Y329D01*
X158Y329D01*
X158Y327D01*
X160Y327D01*
X160Y325D01*
X164Y325D01*
X164Y323D01*
X166Y323D01*
X166Y321D01*
X168Y321D01*
X168Y319D01*
X170Y319D01*
X170Y315D01*
X172Y315D01*
X172Y313D01*
X174Y313D01*
X174Y311D01*
X176Y311D01*
X176Y307D01*
X178Y307D01*
X178Y303D01*
X180Y303D01*
X180Y299D01*
X182Y299D01*
X182Y291D01*
X184Y291D01*
X184Y265D01*
X182Y265D01*
X182Y259D01*
X180Y259D01*
X180Y253D01*
X178Y253D01*
X178Y249D01*
X176Y249D01*
X176Y247D01*
X174Y247D01*
X174Y243D01*
X172Y243D01*
X172Y241D01*
X170Y241D01*
X170Y239D01*
X168Y239D01*
X168Y237D01*
X166Y237D01*
X166Y235D01*
X164Y235D01*
X164Y233D01*
X162Y233D01*
X162Y231D01*
X160Y231D01*
X160Y229D01*
X156Y229D01*
X156Y227D01*
X154Y227D01*
X154Y225D01*
X150Y225D01*
X150Y223D01*
X144Y223D01*
X144Y221D01*
X138Y221D01*
X138Y219D01*
X262Y219D01*
X262Y339D01*
X130Y339D01*
G37*
D02*
G36*
X380Y339D02*
X380Y337D01*
X382Y337D01*
X382Y219D01*
X612Y219D01*
X612Y221D01*
X604Y221D01*
X604Y223D01*
X600Y223D01*
X600Y225D01*
X596Y225D01*
X596Y227D01*
X592Y227D01*
X592Y229D01*
X590Y229D01*
X590Y231D01*
X588Y231D01*
X588Y233D01*
X584Y233D01*
X584Y235D01*
X582Y235D01*
X582Y237D01*
X580Y237D01*
X580Y239D01*
X578Y239D01*
X578Y243D01*
X576Y243D01*
X576Y245D01*
X574Y245D01*
X574Y247D01*
X572Y247D01*
X572Y251D01*
X570Y251D01*
X570Y255D01*
X568Y255D01*
X568Y261D01*
X566Y261D01*
X566Y271D01*
X564Y271D01*
X564Y285D01*
X566Y285D01*
X566Y295D01*
X568Y295D01*
X568Y301D01*
X570Y301D01*
X570Y305D01*
X572Y305D01*
X572Y309D01*
X574Y309D01*
X574Y313D01*
X576Y313D01*
X576Y315D01*
X578Y315D01*
X578Y317D01*
X580Y317D01*
X580Y319D01*
X582Y319D01*
X582Y321D01*
X584Y321D01*
X584Y323D01*
X586Y323D01*
X586Y325D01*
X588Y325D01*
X588Y327D01*
X590Y327D01*
X590Y329D01*
X594Y329D01*
X594Y331D01*
X598Y331D01*
X598Y333D01*
X602Y333D01*
X602Y335D01*
X608Y335D01*
X608Y337D01*
X618Y337D01*
X618Y339D01*
X380Y339D01*
G37*
D02*
G36*
X630Y339D02*
X630Y337D01*
X640Y337D01*
X640Y335D01*
X648Y335D01*
X648Y333D01*
X652Y333D01*
X652Y331D01*
X654Y331D01*
X654Y329D01*
X658Y329D01*
X658Y327D01*
X660Y327D01*
X660Y325D01*
X664Y325D01*
X664Y323D01*
X666Y323D01*
X666Y321D01*
X668Y321D01*
X668Y319D01*
X670Y319D01*
X670Y315D01*
X672Y315D01*
X672Y313D01*
X674Y313D01*
X674Y311D01*
X676Y311D01*
X676Y307D01*
X678Y307D01*
X678Y303D01*
X680Y303D01*
X680Y299D01*
X682Y299D01*
X682Y291D01*
X684Y291D01*
X684Y265D01*
X682Y265D01*
X682Y259D01*
X680Y259D01*
X680Y253D01*
X678Y253D01*
X678Y249D01*
X676Y249D01*
X676Y247D01*
X674Y247D01*
X674Y243D01*
X672Y243D01*
X672Y241D01*
X670Y241D01*
X670Y239D01*
X668Y239D01*
X668Y237D01*
X666Y237D01*
X666Y235D01*
X664Y235D01*
X664Y233D01*
X662Y233D01*
X662Y231D01*
X660Y231D01*
X660Y229D01*
X656Y229D01*
X656Y227D01*
X654Y227D01*
X654Y225D01*
X650Y225D01*
X650Y223D01*
X644Y223D01*
X644Y221D01*
X638Y221D01*
X638Y219D01*
X762Y219D01*
X762Y339D01*
X630Y339D01*
G37*
D02*
G36*
X880Y339D02*
X880Y337D01*
X882Y337D01*
X882Y219D01*
X1112Y219D01*
X1112Y221D01*
X1104Y221D01*
X1104Y223D01*
X1100Y223D01*
X1100Y225D01*
X1096Y225D01*
X1096Y227D01*
X1092Y227D01*
X1092Y229D01*
X1090Y229D01*
X1090Y231D01*
X1088Y231D01*
X1088Y233D01*
X1084Y233D01*
X1084Y235D01*
X1082Y235D01*
X1082Y237D01*
X1080Y237D01*
X1080Y239D01*
X1078Y239D01*
X1078Y243D01*
X1076Y243D01*
X1076Y245D01*
X1074Y245D01*
X1074Y247D01*
X1072Y247D01*
X1072Y251D01*
X1070Y251D01*
X1070Y255D01*
X1068Y255D01*
X1068Y261D01*
X1066Y261D01*
X1066Y271D01*
X1064Y271D01*
X1064Y285D01*
X1066Y285D01*
X1066Y295D01*
X1068Y295D01*
X1068Y301D01*
X1070Y301D01*
X1070Y305D01*
X1072Y305D01*
X1072Y309D01*
X1074Y309D01*
X1074Y313D01*
X1076Y313D01*
X1076Y315D01*
X1078Y315D01*
X1078Y317D01*
X1080Y317D01*
X1080Y319D01*
X1082Y319D01*
X1082Y321D01*
X1084Y321D01*
X1084Y323D01*
X1086Y323D01*
X1086Y325D01*
X1088Y325D01*
X1088Y327D01*
X1090Y327D01*
X1090Y329D01*
X1094Y329D01*
X1094Y331D01*
X1098Y331D01*
X1098Y333D01*
X1102Y333D01*
X1102Y335D01*
X1108Y335D01*
X1108Y337D01*
X1118Y337D01*
X1118Y339D01*
X880Y339D01*
G37*
D02*
G36*
X1130Y339D02*
X1130Y337D01*
X1140Y337D01*
X1140Y335D01*
X1148Y335D01*
X1148Y333D01*
X1152Y333D01*
X1152Y331D01*
X1154Y331D01*
X1154Y329D01*
X1158Y329D01*
X1158Y327D01*
X1160Y327D01*
X1160Y325D01*
X1164Y325D01*
X1164Y323D01*
X1166Y323D01*
X1166Y321D01*
X1168Y321D01*
X1168Y319D01*
X1170Y319D01*
X1170Y315D01*
X1172Y315D01*
X1172Y313D01*
X1174Y313D01*
X1174Y311D01*
X1176Y311D01*
X1176Y307D01*
X1178Y307D01*
X1178Y303D01*
X1180Y303D01*
X1180Y299D01*
X1182Y299D01*
X1182Y291D01*
X1184Y291D01*
X1184Y265D01*
X1182Y265D01*
X1182Y259D01*
X1180Y259D01*
X1180Y253D01*
X1178Y253D01*
X1178Y249D01*
X1176Y249D01*
X1176Y247D01*
X1174Y247D01*
X1174Y243D01*
X1172Y243D01*
X1172Y241D01*
X1170Y241D01*
X1170Y239D01*
X1168Y239D01*
X1168Y237D01*
X1166Y237D01*
X1166Y235D01*
X1164Y235D01*
X1164Y233D01*
X1162Y233D01*
X1162Y231D01*
X1160Y231D01*
X1160Y229D01*
X1156Y229D01*
X1156Y227D01*
X1154Y227D01*
X1154Y225D01*
X1150Y225D01*
X1150Y223D01*
X1144Y223D01*
X1144Y221D01*
X1138Y221D01*
X1138Y219D01*
X1262Y219D01*
X1262Y339D01*
X1130Y339D01*
G37*
D02*
G36*
X1380Y339D02*
X1380Y337D01*
X1382Y337D01*
X1382Y219D01*
X1612Y219D01*
X1612Y221D01*
X1604Y221D01*
X1604Y223D01*
X1600Y223D01*
X1600Y225D01*
X1596Y225D01*
X1596Y227D01*
X1592Y227D01*
X1592Y229D01*
X1590Y229D01*
X1590Y231D01*
X1588Y231D01*
X1588Y233D01*
X1584Y233D01*
X1584Y235D01*
X1582Y235D01*
X1582Y237D01*
X1580Y237D01*
X1580Y239D01*
X1578Y239D01*
X1578Y243D01*
X1576Y243D01*
X1576Y245D01*
X1574Y245D01*
X1574Y247D01*
X1572Y247D01*
X1572Y251D01*
X1570Y251D01*
X1570Y255D01*
X1568Y255D01*
X1568Y261D01*
X1566Y261D01*
X1566Y271D01*
X1564Y271D01*
X1564Y285D01*
X1566Y285D01*
X1566Y295D01*
X1568Y295D01*
X1568Y301D01*
X1570Y301D01*
X1570Y305D01*
X1572Y305D01*
X1572Y309D01*
X1574Y309D01*
X1574Y313D01*
X1576Y313D01*
X1576Y315D01*
X1578Y315D01*
X1578Y317D01*
X1580Y317D01*
X1580Y319D01*
X1582Y319D01*
X1582Y321D01*
X1584Y321D01*
X1584Y323D01*
X1586Y323D01*
X1586Y325D01*
X1588Y325D01*
X1588Y327D01*
X1590Y327D01*
X1590Y329D01*
X1594Y329D01*
X1594Y331D01*
X1598Y331D01*
X1598Y333D01*
X1602Y333D01*
X1602Y335D01*
X1608Y335D01*
X1608Y337D01*
X1618Y337D01*
X1618Y339D01*
X1380Y339D01*
G37*
D02*
G36*
X1630Y339D02*
X1630Y337D01*
X1640Y337D01*
X1640Y335D01*
X1648Y335D01*
X1648Y333D01*
X1652Y333D01*
X1652Y331D01*
X1654Y331D01*
X1654Y329D01*
X1658Y329D01*
X1658Y327D01*
X1660Y327D01*
X1660Y325D01*
X1664Y325D01*
X1664Y323D01*
X1666Y323D01*
X1666Y321D01*
X1668Y321D01*
X1668Y319D01*
X1670Y319D01*
X1670Y315D01*
X1672Y315D01*
X1672Y313D01*
X1674Y313D01*
X1674Y311D01*
X1676Y311D01*
X1676Y307D01*
X1678Y307D01*
X1678Y303D01*
X1680Y303D01*
X1680Y299D01*
X1682Y299D01*
X1682Y291D01*
X1684Y291D01*
X1684Y265D01*
X1682Y265D01*
X1682Y259D01*
X1680Y259D01*
X1680Y253D01*
X1678Y253D01*
X1678Y249D01*
X1676Y249D01*
X1676Y247D01*
X1674Y247D01*
X1674Y243D01*
X1672Y243D01*
X1672Y241D01*
X1670Y241D01*
X1670Y239D01*
X1668Y239D01*
X1668Y237D01*
X1666Y237D01*
X1666Y235D01*
X1664Y235D01*
X1664Y233D01*
X1662Y233D01*
X1662Y231D01*
X1660Y231D01*
X1660Y229D01*
X1656Y229D01*
X1656Y227D01*
X1654Y227D01*
X1654Y225D01*
X1650Y225D01*
X1650Y223D01*
X1644Y223D01*
X1644Y221D01*
X1638Y221D01*
X1638Y219D01*
X1762Y219D01*
X1762Y339D01*
X1630Y339D01*
G37*
D02*
G36*
X40Y219D02*
X40Y217D01*
X2038Y217D01*
X2038Y219D01*
X40Y219D01*
G37*
D02*
G36*
X40Y219D02*
X40Y217D01*
X2038Y217D01*
X2038Y219D01*
X40Y219D01*
G37*
D02*
G36*
X40Y219D02*
X40Y217D01*
X2038Y217D01*
X2038Y219D01*
X40Y219D01*
G37*
D02*
G36*
X40Y219D02*
X40Y217D01*
X2038Y217D01*
X2038Y219D01*
X40Y219D01*
G37*
D02*
G36*
X40Y219D02*
X40Y217D01*
X2038Y217D01*
X2038Y219D01*
X40Y219D01*
G37*
D02*
G36*
X40Y219D02*
X40Y217D01*
X2038Y217D01*
X2038Y219D01*
X40Y219D01*
G37*
D02*
G36*
X40Y219D02*
X40Y217D01*
X2038Y217D01*
X2038Y219D01*
X40Y219D01*
G37*
D02*
G36*
X40Y219D02*
X40Y217D01*
X2038Y217D01*
X2038Y219D01*
X40Y219D01*
G37*
D02*
G36*
X40Y219D02*
X40Y217D01*
X2038Y217D01*
X2038Y219D01*
X40Y219D01*
G37*
D02*
G36*
X40Y217D02*
X40Y41D01*
X2038Y41D01*
X2038Y217D01*
X40Y217D01*
G37*
D02*
G54D15*
X185Y616D02*
X257Y616D01*
X184Y615D02*
X257Y615D01*
X184Y614D02*
X257Y614D01*
X184Y613D02*
X257Y613D01*
X184Y612D02*
X257Y612D01*
X184Y611D02*
X257Y611D01*
X184Y610D02*
X257Y610D01*
X184Y609D02*
X257Y609D01*
X184Y608D02*
X257Y608D01*
X184Y607D02*
X257Y607D01*
X184Y606D02*
X257Y606D01*
X184Y605D02*
X257Y605D01*
X184Y604D02*
X257Y604D01*
X184Y603D02*
X257Y603D01*
X184Y602D02*
X257Y602D01*
X184Y601D02*
X257Y601D01*
X184Y600D02*
X257Y600D01*
X184Y599D02*
X257Y599D01*
X184Y598D02*
X215Y598D01*
X226Y598D02*
X257Y598D01*
X184Y597D02*
X212Y597D01*
X229Y597D02*
X257Y597D01*
X184Y596D02*
X210Y596D01*
X231Y596D02*
X257Y596D01*
X184Y595D02*
X209Y595D01*
X233Y595D02*
X257Y595D01*
X184Y594D02*
X208Y594D01*
X234Y594D02*
X257Y594D01*
X184Y593D02*
X206Y593D01*
X235Y593D02*
X257Y593D01*
X184Y592D02*
X206Y592D01*
X236Y592D02*
X257Y592D01*
X184Y591D02*
X205Y591D01*
X237Y591D02*
X257Y591D01*
X184Y590D02*
X204Y590D01*
X238Y590D02*
X257Y590D01*
X184Y589D02*
X203Y589D01*
X238Y589D02*
X257Y589D01*
X184Y588D02*
X203Y588D01*
X239Y588D02*
X257Y588D01*
X184Y587D02*
X202Y587D01*
X239Y587D02*
X257Y587D01*
X184Y586D02*
X202Y586D01*
X240Y586D02*
X257Y586D01*
X184Y585D02*
X202Y585D01*
X240Y585D02*
X257Y585D01*
X184Y584D02*
X201Y584D01*
X240Y584D02*
X257Y584D01*
X184Y583D02*
X201Y583D01*
X241Y583D02*
X257Y583D01*
X184Y582D02*
X201Y582D01*
X241Y582D02*
X257Y582D01*
X184Y581D02*
X201Y581D01*
X241Y581D02*
X257Y581D01*
X184Y580D02*
X201Y580D01*
X241Y580D02*
X257Y580D01*
X184Y579D02*
X201Y579D01*
X241Y579D02*
X257Y579D01*
X184Y578D02*
X201Y578D01*
X241Y578D02*
X257Y578D01*
X184Y577D02*
X201Y577D01*
X241Y577D02*
X257Y577D01*
X184Y576D02*
X201Y576D01*
X241Y576D02*
X257Y576D01*
X184Y575D02*
X201Y575D01*
X240Y575D02*
X257Y575D01*
X184Y574D02*
X201Y574D01*
X240Y574D02*
X257Y574D01*
X184Y573D02*
X202Y573D01*
X240Y573D02*
X257Y573D01*
X184Y572D02*
X202Y572D01*
X240Y572D02*
X257Y572D01*
X184Y571D02*
X202Y571D01*
X239Y571D02*
X257Y571D01*
X184Y570D02*
X203Y570D01*
X239Y570D02*
X257Y570D01*
X184Y569D02*
X203Y569D01*
X238Y569D02*
X257Y569D01*
X184Y568D02*
X204Y568D01*
X237Y568D02*
X257Y568D01*
X184Y567D02*
X205Y567D01*
X237Y567D02*
X257Y567D01*
X184Y566D02*
X206Y566D01*
X236Y566D02*
X257Y566D01*
X184Y565D02*
X207Y565D01*
X235Y565D02*
X257Y565D01*
X184Y564D02*
X208Y564D01*
X234Y564D02*
X257Y564D01*
X184Y563D02*
X209Y563D01*
X233Y563D02*
X257Y563D01*
X184Y562D02*
X211Y562D01*
X231Y562D02*
X257Y562D01*
X184Y561D02*
X213Y561D01*
X229Y561D02*
X257Y561D01*
X184Y560D02*
X216Y560D01*
X226Y560D02*
X257Y560D01*
X184Y559D02*
X257Y559D01*
X184Y558D02*
X257Y558D01*
X184Y557D02*
X257Y557D01*
X184Y556D02*
X257Y556D01*
X184Y555D02*
X257Y555D01*
X184Y554D02*
X257Y554D01*
X184Y553D02*
X257Y553D01*
X184Y552D02*
X257Y552D01*
X184Y551D02*
X257Y551D01*
X184Y550D02*
X257Y550D01*
X184Y549D02*
X257Y549D01*
X184Y548D02*
X257Y548D01*
X184Y547D02*
X257Y547D01*
X184Y546D02*
X257Y546D01*
X184Y545D02*
X257Y545D01*
X184Y544D02*
X257Y544D01*
X184Y543D02*
X257Y543D01*
D02*
G04 End of Copper1*
M02*