; NON-PLATED HOLES START AT T1
; THROUGH (PLATED) HOLES START AT T100
M48
INCH
T100C0.039370
T101C0.035000
T102C0.040639
T103C0.040000
%
T100
X002213Y007787
X002213Y006787
X002213Y005787
T101
X012213Y007787
X014213Y007787
X011384Y004958
X009384Y004958
T102
X016213Y009787
X013213Y009787
X020213Y009787
X014213Y009787
X009213Y009787
X004213Y009787
X017213Y010787
X004213Y010787
X011213Y009787
X001213Y009787
X017213Y009787
X002213Y010787
X002213Y009787
X003213Y010787
X019213Y010787
X015213Y010787
X010213Y010787
X005213Y010787
X007213Y009787
X005213Y009787
X018213Y009787
X014213Y010787
X008213Y010787
X008213Y009787
X013213Y010787
X006213Y010787
X011213Y010787
X019213Y009787
X016213Y010787
X010213Y009787
X015213Y009787
X012213Y010787
X012213Y009787
X006213Y009787
X020213Y010787
X001213Y010787
X009213Y010787
X003213Y009787
X007213Y010787
X018213Y010787
T103
X016244Y002787
X001244Y002787
X011244Y002787
X003213Y002787
X018213Y002787
X008213Y002787
X006244Y002787
X013213Y002787
T00
M30
